<svg width="1440" height="524" viewBox="0 0 1440 524" fill="none" xmlns="http://www.w3.org/2000/svg">
<g clip-path="url(#clip0)">
<circle opacity="0.05" cx="28" cy="28" r="28" transform="translate(1294 46)" fill="white"/>
<circle opacity="0.05" cx="10.5" cy="10.5" r="10.5" transform="translate(1283 80)" fill="white"/>
<ellipse opacity="0.05" cx="20.6896" cy="20.7121" rx="20.6896" ry="20.7121" transform="matrix(-0.259122 0.965845 -0.966007 -0.258516 1161.74 244.709)" fill="white"/>
<ellipse opacity="0.05" cx="91.9302" cy="92.0302" rx="91.9302" ry="92.0302" transform="matrix(-0.259122 0.965845 -0.966007 -0.258516 1568.45 317.583)" fill="white"/>
<ellipse opacity="0.05" cx="34.9689" cy="35.007" rx="34.9689" ry="35.007" transform="matrix(-0.259122 0.965845 -0.966007 -0.258516 1270.76 279.1)" fill="white"/>
<circle opacity="0.05" cx="28" cy="28" r="28" transform="translate(1280 70)" fill="white"/>
<circle opacity="0.05" cx="10.5" cy="10.5" r="10.5" transform="translate(1269 104)" fill="white"/>
<ellipse opacity="0.05" cx="20.6896" cy="20.7121" rx="20.6896" ry="20.7121" transform="matrix(-0.259122 0.965845 -0.966007 -0.258516 1147.74 268.709)" fill="white"/>
<ellipse opacity="0.05" cx="91.9302" cy="92.0302" rx="91.9302" ry="92.0302" transform="matrix(-0.259122 0.965845 -0.966007 -0.258516 1554.45 341.583)" fill="white"/>
<ellipse opacity="0.05" cx="34.9689" cy="35.007" rx="34.9689" ry="35.007" transform="matrix(-0.259122 0.965845 -0.966007 -0.258516 1256.76 303.1)" fill="white"/>
</g>
<defs>
<clipPath id="clip0">
<rect width="1440" height="524" fill="white"/>
</clipPath>
</defs>
</svg>
