<svg width="1951" height="1295" viewBox="0 0 1951 1295" fill="none" xmlns="http://www.w3.org/2000/svg">
<g clip-path="url(#clip0)">
<path d="M2284.06 655.96C2240.25 675.679 2196.44 695.399 2152.5 696.838C2062.9 699.773 2013.72 688.031 1962.43 675.786C1916.2 664.751 1868.27 653.307 1787.5 651.823C1708.42 650.369 1650.68 672.326 1592.87 694.313C1535.48 716.139 1476.8 739.327 1399.5 737.013C1321.53 734.679 1237.13 671.683 1128.5 674C1028.97 676.123 958.746 733.307 881.5 737.013C804.255 740.719 745.522 716.139 688.132 694.313C630.316 672.326 572.581 650.369 493.5 651.823C412.731 653.307 364.795 664.751 318.574 675.786C267.28 688.031 218.098 699.773 128.5 696.838C84.5565 695.399 40.7467 675.679 -3.06226 655.96C-49.6558 634.987 -96.2483 614.015 -143 615.036C-231.963 616.979 -328.295 646.788 -403 695.418L-399 1411.71H4276L4272 727.569C4257.65 728.82 4169.42 736.351 4116.5 737.013C4037.99 737.994 3980.52 716.139 3923.13 694.313C3865.32 672.326 3807.58 650.369 3728.5 651.823C3647.73 653.307 3599.8 664.751 3553.57 675.786C3502.28 688.031 3453.1 699.773 3363.5 696.838C3319.56 695.399 3275.75 675.679 3231.94 655.96C3185.34 634.987 3138.75 614.015 3092 615.036C2956.5 615.036 2893.8 693.772 2757.5 693.66C2621.57 693.549 2535.5 617.471 2424 615.036C2377.25 614.015 2330.66 634.987 2284.06 655.96Z" fill="#D1DAE2" fill-opacity="0.2"/>
<path d="M2152.5 696.838L2152.58 699.337L2152.58 699.337L2152.5 696.838ZM2284.06 655.96L2283.04 653.68L2283.04 653.68L2284.06 655.96ZM1962.43 675.786L1963.01 673.354L1963.01 673.354L1962.43 675.786ZM1787.5 651.823L1787.45 654.322L1787.5 651.823ZM1592.87 694.313L1591.98 691.976L1591.98 691.976L1592.87 694.313ZM1399.5 737.013L1399.57 734.514L1399.57 734.514L1399.5 737.013ZM1128.5 674L1128.45 671.501L1128.5 674ZM2424 615.036L2423.95 617.535L2423.95 617.535L2424 615.036ZM3363.5 696.838L3363.42 699.337L3363.42 699.337L3363.5 696.838ZM3231.94 655.96L3232.96 653.68L3232.96 653.68L3231.94 655.96ZM3553.57 675.786L3552.99 673.354L3552.99 673.354L3553.57 675.786ZM3728.5 651.823L3728.55 654.322L3728.55 654.322L3728.5 651.823ZM3923.13 694.313L3922.24 696.65L3922.24 696.65L3923.13 694.313ZM4116.5 737.013L4116.47 734.513L4116.47 734.513L4116.5 737.013ZM4272 727.569L4274.5 727.554L4274.48 724.843L4271.78 725.078L4272 727.569ZM4276 1411.71V1414.21H4278.51L4278.5 1411.7L4276 1411.71ZM3092 615.036V617.536H3092.03L3092.05 617.535L3092 615.036ZM128.5 696.838L128.418 699.337L128.418 699.337L128.5 696.838ZM-3.06226 655.96L-2.03612 653.68L-2.03612 653.68L-3.06226 655.96ZM318.574 675.786L319.155 678.217L319.155 678.217L318.574 675.786ZM493.5 651.823L493.546 654.322L493.546 654.322L493.5 651.823ZM688.132 694.313L687.243 696.65L687.243 696.65L688.132 694.313ZM-399 1411.71L-401.5 1411.72L-401.486 1414.21H-399V1411.71ZM-403 695.418L-404.364 693.322L-405.508 694.067L-405.5 695.432L-403 695.418ZM-143 615.036L-142.945 617.535L-142.945 617.535L-143 615.036ZM2757.5 693.66L2757.5 696.16L2757.5 693.66ZM2152.58 699.337C2197.11 697.878 2241.39 677.908 2285.09 658.239L2283.04 653.68C2239.11 673.45 2195.77 692.919 2152.42 694.339L2152.58 699.337ZM1961.85 678.217C2013.23 690.483 2062.66 702.282 2152.58 699.337L2152.42 694.339C2063.15 697.263 2014.21 685.579 1963.01 673.354L1961.85 678.217ZM1787.45 654.322C1867.95 655.802 1915.68 667.197 1961.85 678.217L1963.01 673.354C1916.73 662.305 1868.58 650.812 1787.55 649.323L1787.45 654.322ZM1593.76 696.65C1651.57 674.664 1708.9 652.879 1787.45 654.322L1787.55 649.323C1707.94 647.86 1649.8 669.988 1591.98 691.976L1593.76 696.65ZM1399.43 739.512C1477.29 741.842 1536.4 718.461 1593.76 696.65L1591.98 691.976C1534.55 713.816 1476.31 736.811 1399.57 734.514L1399.43 739.512ZM1128.55 676.499C1182.38 675.351 1230.27 690.38 1274.66 706.119C1318.87 721.795 1359.94 738.33 1399.43 739.512L1399.57 734.514C1361.09 733.362 1320.97 717.233 1276.33 701.406C1231.87 685.643 1183.25 670.332 1128.45 671.501L1128.55 676.499ZM2285.09 658.239C2331.81 637.207 2377.87 616.529 2423.95 617.535L2424.05 612.536C2376.63 611.501 2329.5 632.767 2283.04 653.68L2285.09 658.239ZM3363.58 694.339C3320.23 692.919 3276.89 673.45 3232.96 653.68L3230.91 658.239C3274.61 677.908 3318.89 697.878 3363.42 699.337L3363.58 694.339ZM3552.99 673.354C3501.79 685.579 3452.85 697.263 3363.58 694.339L3363.42 699.337C3453.34 702.282 3502.77 690.483 3554.15 678.217L3552.99 673.354ZM3728.45 649.323C3647.42 650.812 3599.27 662.305 3552.99 673.354L3554.15 678.217C3600.32 667.197 3648.05 655.802 3728.55 654.322L3728.45 649.323ZM3924.02 691.976C3866.2 669.988 3808.06 647.86 3728.45 649.323L3728.55 654.322C3807.1 652.879 3864.43 674.664 3922.24 696.65L3924.02 691.976ZM4116.47 734.513C4038.48 735.488 3981.41 713.801 3924.02 691.976L3922.24 696.65C3979.64 718.476 4037.5 740.501 4116.53 739.513L4116.47 734.513ZM4271.78 725.078C4257.41 726.332 4169.28 733.853 4116.47 734.513L4116.53 739.513C4169.57 738.85 4257.89 731.309 4272.22 730.059L4271.78 725.078ZM4278.5 1411.7L4274.5 727.554L4269.5 727.583L4273.5 1411.73L4278.5 1411.7ZM3232.96 653.68C3186.5 632.767 3139.37 611.501 3091.95 612.536L3092.05 617.535C3138.13 616.529 3184.19 637.207 3230.91 658.239L3232.96 653.68ZM128.582 694.339C85.2254 692.919 41.8857 673.45 -2.03612 653.68L-4.0884 658.239C39.6077 677.908 83.8876 697.878 128.418 699.337L128.582 694.339ZM317.994 673.354C266.785 685.579 217.854 697.263 128.582 694.339L128.418 699.337C218.343 702.282 267.775 690.483 319.155 678.217L317.994 673.354ZM493.454 649.323C412.416 650.812 364.274 662.305 317.994 673.354L319.155 678.217C365.317 667.197 413.047 655.802 493.546 654.322L493.454 649.323ZM689.02 691.976C631.202 669.988 573.065 647.86 493.454 649.323L493.546 654.322C572.098 652.879 629.431 674.664 687.243 696.65L689.02 691.976ZM881.38 734.516C804.742 738.193 746.498 713.835 689.02 691.976L687.243 696.65C744.547 718.442 803.767 743.245 881.62 739.51L881.38 734.516ZM-396.5 1411.7L-400.5 695.404L-405.5 695.432L-401.5 1411.72L-396.5 1411.7ZM-143.054 612.536C-232.485 614.489 -329.27 644.44 -404.364 693.322L-401.636 697.513C-327.32 649.137 -231.441 619.468 -142.945 617.535L-143.054 612.536ZM-2.03612 653.68C-48.4976 632.767 -95.6307 611.501 -143.054 612.536L-142.945 617.535C-96.8659 616.529 -50.8139 637.207 -4.08839 658.239L-2.03612 653.68ZM4276 1409.21H-399V1414.21H4276V1409.21ZM1128.45 671.501C1078.22 672.572 1035.43 687.542 995.759 702.575C955.953 717.657 919.515 732.686 881.38 734.516L881.62 739.51C920.731 737.634 958.03 722.217 997.531 707.251C1037.16 692.234 1079.25 677.551 1128.55 676.499L1128.45 671.501ZM2757.5 696.16C2826.17 696.217 2876.32 676.386 2925.97 656.714C2975.62 637.044 3024.77 617.536 3092 617.536V612.536C3023.73 612.536 2973.78 632.396 2924.13 652.066C2874.48 671.734 2825.13 691.216 2757.5 691.16L2757.5 696.16ZM2423.95 617.535C2479.19 618.742 2528.16 638.183 2580.73 657.565C2633.2 676.912 2689.06 696.104 2757.5 696.16L2757.5 691.16C2690.02 691.105 2634.88 672.202 2582.45 652.874C2530.13 633.58 2480.31 613.765 2424.05 612.536L2423.95 617.535Z" fill="#D1DAE2" fill-opacity="0.25"/>
</g>
<defs>
<clipPath id="clip0">
<rect width="1951" height="1295" fill="white"/>
</clipPath>
</defs>
</svg>
