<svg width="45" height="48" viewBox="0 0 45 48" fill="none" xmlns="http://www.w3.org/2000/svg">
<path d="M0 3C0 1.34315 1.34315 0 3 0H41.386C43.0428 0 44.386 1.34315 44.386 3V16.6V32.2V45C44.386 46.6569 43.0428 48 41.386 48H3C1.34315 48 0 46.6569 0 45V32.2V16.6V3Z" fill="url(#paint0_linear)"/>
<path fill-rule="evenodd" clip-rule="evenodd" d="M43.386 17.1H1V31.7H43.386V17.1ZM43.386 16.1H1V3C1 1.89543 1.89543 1 3 1H41.386C42.4905 1 43.386 1.89543 43.386 3V16.1ZM44.386 3C44.386 1.34315 43.0428 0 41.386 0H3C1.34315 0 0 1.34315 0 3V45C0 46.6569 1.34315 48 3 48H41.386C43.0428 48 44.386 46.6569 44.386 45V3ZM43.386 32.7H1V45C1 46.1046 1.89543 47 3 47H41.386C42.4905 47 43.386 46.1046 43.386 45V32.7Z" fill="white"/>
<path d="M32.4738 8.4C32.4738 9.72548 31.396 10.8 30.0665 10.8C28.737 10.8 27.6592 9.72548 27.6592 8.4C27.6592 7.07452 28.737 6 30.0665 6C31.396 6 32.4738 7.07452 32.4738 8.4Z" fill="#BFCBD6"/>
<path d="M39.1408 8.4C39.1408 9.72548 38.063 10.8 36.7335 10.8C35.404 10.8 34.3262 9.72548 34.3262 8.4C34.3262 7.07452 35.404 6 36.7335 6C38.063 6 39.1408 7.07452 39.1408 8.4Z" fill="#BFCBD6"/>
<path d="M32.4738 24C32.4738 25.3255 31.396 26.4 30.0665 26.4C28.737 26.4 27.6592 25.3255 27.6592 24C27.6592 22.6745 28.737 21.6 30.0665 21.6C31.396 21.6 32.4738 22.6745 32.4738 24Z" fill="#BFCBD6"/>
<path d="M39.1408 24C39.1408 25.3255 38.063 26.4 36.7335 26.4C35.404 26.4 34.3262 25.3255 34.3262 24C34.3262 22.6745 35.404 21.6 36.7335 21.6C38.063 21.6 39.1408 22.6745 39.1408 24Z" fill="#BFCBD6"/>
<path d="M32.4738 40C32.4738 41.3255 31.396 42.4 30.0665 42.4C28.737 42.4 27.6592 41.3255 27.6592 40C27.6592 38.6745 28.737 37.6 30.0665 37.6C31.396 37.6 32.4738 38.6745 32.4738 40Z" fill="#BFCBD6"/>
<path d="M39.1408 40C39.1408 41.3255 38.063 42.4 36.7335 42.4C35.404 42.4 34.3262 41.3255 34.3262 40C34.3262 38.6745 35.404 37.6 36.7335 37.6C38.063 37.6 39.1408 38.6745 39.1408 40Z" fill="#BFCBD6"/>
<defs>
<linearGradient id="paint0_linear" x1="25.6742" y1="196.364" x2="25.6742" y2="-38.1013" gradientUnits="userSpaceOnUse">
<stop stop-color="#B8C4CE"/>
<stop offset="0.815701" stop-color="#EFF4F9"/>
</linearGradient>
</defs>
</svg>
