<svg width="38" height="54" viewBox="0 0 38 54" fill="none" xmlns="http://www.w3.org/2000/svg">
<path d="M0.0217721 10.5405C-0.16124 9.22209 0.832827 8.04254 2.12692 8.04254H31.2666C32.5541 8.04254 33.5462 9.21058 33.3741 10.5236L27.9227 52.1042C27.7804 53.1899 26.8799 54 25.8153 54H7.8989C6.84064 54 5.94341 53.1992 5.79375 52.1211L0.0217721 10.5405Z" fill="url(#paint0_linear)"/>
<path d="M10.4942 51.0821H23.0444C23.7901 51.0821 24.421 50.5163 24.5207 49.758L27.4926 28.1126C27.5924 27.3859 27.4508 26.8402 26.8353 27.2392C26.3021 27.5848 25.4469 28.2038 24.0848 29.2766C19.8167 32.6383 11.5126 33.895 8.1358 32.5593C7.75196 32.4075 6.62559 33.0926 6.68424 33.5012L9.01959 49.7698C9.12442 50.5228 9.75292 51.0821 10.4942 51.0821Z" fill="url(#paint1_linear)"/>
<path d="M33.3685 4.34326C32.8113 3.83365 32.1845 3.45144 31.488 3.19664C30.8148 2.91867 30.1067 2.77969 29.3638 2.77969C28.0173 2.77969 26.8101 3.19664 25.7421 4.03055C24.6974 4.84129 24.0126 5.89525 23.6875 7.19244C23.6643 7.2851 23.6179 7.36617 23.5483 7.43566C23.4786 7.48199 23.3857 7.50515 23.2697 7.50515H21.2847C21.1454 7.50515 21.0293 7.45883 20.9365 7.36617C20.8668 7.25035 20.8436 7.13453 20.8668 7.01871C21.1222 5.69836 21.6562 4.50541 22.4687 3.43986C23.2813 2.37432 24.2795 1.54041 25.4635 0.938144C26.6708 0.312715 27.9708 0 29.3638 0C30.5014 0 31.5809 0.208476 32.6024 0.625429C33.6239 1.04238 34.5293 1.63307 35.3186 2.39748L36.5723 1.14662C36.7348 0.984472 36.9321 0.903398 37.1643 0.903398C37.3964 0.903398 37.5938 0.984472 37.7563 1.14662C37.9188 1.30877 38 1.50566 38 1.7373V6.39328C38 6.62492 37.9188 6.82181 37.7563 6.98396C37.5938 7.14611 37.3964 7.22718 37.1643 7.22718H32.4979C32.2658 7.22718 32.0684 7.14611 31.9059 6.98396C31.7434 6.82181 31.6622 6.62492 31.6622 6.39328C31.6622 6.16164 31.7434 5.96474 31.9059 5.8026L33.3685 4.34326ZM21.5633 10.0069H26.2297C26.4618 10.0069 26.6592 10.0879 26.8217 10.2501C26.9842 10.4122 27.0654 10.6091 27.0654 10.8408C27.0654 11.0724 26.9842 11.2693 26.8217 11.4315L25.3591 12.8908C25.9163 13.4004 26.5315 13.7942 27.2047 14.0722C27.9012 14.327 28.6209 14.4544 29.3638 14.4544C30.7103 14.4544 31.9059 14.049 32.9506 13.2383C34.0185 12.4044 34.715 11.3388 35.04 10.0416C35.0633 9.94896 35.1097 9.87947 35.1793 9.83314C35.249 9.76365 35.3418 9.7289 35.4579 9.7289H37.4429C37.5822 9.7289 37.6866 9.78681 37.7563 9.90263C37.8491 9.99529 37.884 10.0995 37.8608 10.2153C37.6054 11.5357 37.0714 12.7286 36.2589 13.7942C35.4463 14.8597 34.4364 15.6936 33.2292 16.2959C32.0452 16.9213 30.7567 17.2341 29.3638 17.2341C28.2262 17.2341 27.1467 17.0256 26.1252 16.6086C25.1037 16.1917 24.1983 15.601 23.409 14.8366L22.1553 16.0874C21.9928 16.2496 21.7955 16.3307 21.5633 16.3307C21.3311 16.3307 21.1338 16.2496 20.9713 16.0874C20.8088 15.9253 20.7275 15.7284 20.7275 15.4968V10.8408C20.7275 10.6091 20.8088 10.4122 20.9713 10.2501C21.1338 10.0879 21.3311 10.0069 21.5633 10.0069Z" fill="#BFCBD6"/>
<defs>
<linearGradient id="paint0_linear" x1="0" y1="-87.5" x2="-3.52217e-06" y2="125" gradientUnits="userSpaceOnUse">
<stop stop-color="#B8C4CE"/>
<stop offset="0.690279" stop-color="#EFF4F9"/>
</linearGradient>
<linearGradient id="paint1_linear" x1="18.7049" y1="54.4259" x2="18.7049" y2="24.9581" gradientUnits="userSpaceOnUse">
<stop stop-color="#EFF4F9"/>
<stop offset="1" stop-color="#B8C4CE"/>
</linearGradient>
</defs>
</svg>
