<svg width="42" height="51" viewBox="0 0 42 51" fill="none" xmlns="http://www.w3.org/2000/svg">
<path fill-rule="evenodd" clip-rule="evenodd" d="M3 21.4959C1.34277 21.4959 0 22.8391 0 24.4959V48.0001C0 49.6569 1.34277 51.0001 3 51.0001H39C40.6572 51.0001 42 49.6569 42 48.0001V24.4959C42 22.8391 40.6572 21.4959 39 21.4959H3ZM26.04 34.3513C26.04 36.5118 24.7441 38.3687 22.8896 39.1816V43.8422C22.8896 45.002 21.9492 45.9422 20.7891 45.9422C19.6299 45.9422 18.6895 45.002 18.6895 43.8422V39.1812C16.8359 38.368 15.54 36.5115 15.54 34.3513C15.54 31.4415 17.8906 29.0826 20.79 29.0826C23.6895 29.0826 26.04 31.4415 26.04 34.3513Z" fill="url(#paint0_linear)"/>
<path fill-rule="evenodd" clip-rule="evenodd" d="M5.52637 15.1181C5.52637 6.7686 12.2018 0 20.4364 0C28.6709 0 35.3464 6.7686 35.3464 15.1181V18.8099C35.3464 19.3622 34.8987 19.8099 34.3464 19.8099H31.205C30.6527 19.8099 30.205 19.3622 30.205 18.8099V15.1181C30.205 9.64774 25.8314 5.21314 20.4364 5.21314C15.0413 5.21314 10.6677 9.64774 10.6677 15.1181V18.8099C10.6677 19.3622 10.22 19.8099 9.66775 19.8099H6.52637C5.97408 19.8099 5.52637 19.3622 5.52637 18.8099V15.1181Z" fill="url(#paint1_linear)"/>
<defs>
<linearGradient id="paint0_linear" x1="26.5" y1="93.5" x2="24.2941" y2="-1.9238" gradientUnits="userSpaceOnUse">
<stop stop-color="#B8C4CE"/>
<stop offset="0.815701" stop-color="#EFF4F9"/>
</linearGradient>
<linearGradient id="paint1_linear" x1="22.7752" y1="81.0408" x2="22.7752" y2="-15.7247" gradientUnits="userSpaceOnUse">
<stop stop-color="#B8C4CE"/>
<stop offset="0.815701" stop-color="#EFF4F9"/>
</linearGradient>
</defs>
</svg>
