<svg width="48" height="48" viewBox="0 0 48 48" fill="none" xmlns="http://www.w3.org/2000/svg">
<g id="support">
<path id="Union" d="M24.7362 21.0339C27.8882 19.0577 29.9985 15.4452 29.9985 11.3162C29.9985 5.06641 25.1638 0 19.1998 0C13.2359 0 8.40118 5.06641 8.40118 11.3162C8.40118 15.4452 10.5115 19.0577 13.6635 21.0339C6.6302 23.9487 1.2619 32.2745 0.0298418 42.5585C-0.267326 45.0389 1.69615 47.0752 4.08172 47.0752H34.318C36.7035 47.0752 38.667 45.0389 38.3699 42.5585C37.1378 32.2745 31.7695 23.9487 24.7362 21.0339Z" fill="#E6EDF3"/>
<g id="pc">
<path id="Rectangle (Stroke)" fill-rule="evenodd" clip-rule="evenodd" d="M21.83 28.5677C21.2519 28.5677 20.7832 28.9876 20.7832 29.5054V45.446H47.9995V29.5054C47.9995 28.9876 47.5308 28.5677 46.9527 28.5677H21.83Z" fill="#D1DAE2"/>
<path id="Rectangle 2.1" d="M20.7832 45.446H47.9995C47.9995 46.4818 47.1947 47.3214 46.202 47.3214H22.5807C21.588 47.3214 20.7832 46.4818 20.7832 45.446Z" fill="#BFCBD6"/>
</g>
<path id="&#239;&#137;&#186;" d="M47.9994 12.3076C47.9994 11.3835 47.7012 10.5312 47.1047 9.75055C46.5082 8.9646 45.698 8.34592 44.6741 7.89453C43.6502 7.43782 42.5318 7.20947 41.319 7.20947C40.1062 7.20947 38.9879 7.43782 37.9639 7.89453C36.94 8.34592 36.1298 8.9646 35.5334 9.75055C34.9369 10.5312 34.6387 11.3835 34.6387 12.3076C34.6387 13.067 34.8449 13.7839 35.2575 14.4583C35.675 15.1274 36.2466 15.701 36.9723 16.1789C36.9475 16.386 36.9152 16.5799 36.8754 16.7604C36.8406 16.9357 36.8058 17.087 36.771 17.2145C36.7362 17.3419 36.6865 17.4694 36.6219 17.5968C36.5573 17.7243 36.5051 17.8225 36.4653 17.8916C36.4305 17.9606 36.3709 18.0429 36.2864 18.1385C36.2069 18.2394 36.1497 18.3084 36.1149 18.3456C36.0801 18.3828 36.0155 18.4439 35.9211 18.5288C35.8316 18.6191 35.7744 18.6775 35.7496 18.7041C35.6303 18.8209 35.5806 18.9191 35.6005 18.9988C35.6154 19.0572 35.6477 19.105 35.6974 19.1422C35.7471 19.1794 35.8018 19.1953 35.8614 19.19C36.0304 19.1741 36.2441 19.1395 36.5026 19.0864C37.8049 18.789 38.886 18.181 39.7459 17.2623C40.2479 17.3579 40.7723 17.4057 41.319 17.4057C42.5318 17.4057 43.6502 17.18 44.6741 16.7286C45.698 16.2719 46.5082 15.6532 47.1047 14.8725C47.7012 14.0866 47.9994 13.2316 47.9994 12.3076Z" fill="url(#paint0_linear)"/>
</g>
<defs>
<linearGradient id="paint0_linear" x1="42.3669" y1="20.8436" x2="42.3669" y2="6.27987" gradientUnits="userSpaceOnUse">
<stop stop-color="#EFF4F9"/>
<stop offset="1" stop-color="#B8C4CE"/>
</linearGradient>
</defs>
</svg>
