<svg width="1951" height="1295" viewBox="0 0 1951 1295" fill="none" xmlns="http://www.w3.org/2000/svg">
<g clip-path="url(#clip0)">
<path d="M2284.06 655.96C2240.25 675.679 2196.44 695.399 2152.5 696.838C2062.9 699.773 2013.72 688.031 1962.43 675.786C1916.2 664.751 1868.27 653.307 1787.5 651.823C1708.42 650.369 1650.68 672.326 1592.87 694.313C1535.48 716.139 1476.8 739.327 1399.5 737.013C1321.53 734.679 1237.13 671.683 1128.5 674C1028.97 676.123 958.746 733.307 881.5 737.013C804.255 740.719 745.522 716.139 688.132 694.313C630.316 672.326 572.581 650.369 493.5 651.823C412.731 653.307 364.795 664.751 318.574 675.786C267.28 688.031 218.098 699.773 128.5 696.838C84.5565 695.399 40.7467 675.679 -3.06226 655.96C-49.6558 634.987 -96.2483 614.015 -143 615.036C-231.963 616.979 -328.295 646.788 -403 695.418L-399 1411.71H4276L4272 727.569C4257.65 728.82 4169.42 736.351 4116.5 737.013C4037.99 737.994 3980.52 716.139 3923.13 694.313C3865.32 672.326 3807.58 650.369 3728.5 651.823C3647.73 653.307 3599.8 664.751 3553.57 675.786C3502.28 688.031 3453.1 699.773 3363.5 696.838C3319.56 695.399 3275.75 675.679 3231.94 655.96C3185.34 634.987 3138.75 614.015 3092 615.036C2956.5 615.036 2893.8 693.772 2757.5 693.66C2621.57 693.549 2535.5 617.471 2424 615.036C2377.25 614.015 2330.66 634.987 2284.06 655.96Z" fill="white" fill-opacity="0.1"/>
<path d="M2152.5 696.838L2152.55 698.337L2152.55 698.337L2152.5 696.838ZM2284.06 655.96L2283.45 654.592L2283.45 654.592L2284.06 655.96ZM1962.43 675.786L1962.77 674.327L1962.77 674.327L1962.43 675.786ZM1787.5 651.823L1787.47 653.322L1787.5 651.823ZM1592.87 694.313L1592.34 692.911L1592.34 692.911L1592.87 694.313ZM1399.5 737.013L1399.54 735.514L1399.54 735.514L1399.5 737.013ZM1128.5 674L1128.47 672.5L1128.47 672.5L1128.5 674ZM2424 615.036L2423.97 616.535L2423.97 616.535L2424 615.036ZM3363.5 696.838L3363.45 698.337L3363.45 698.337L3363.5 696.838ZM3231.94 655.96L3232.55 654.592L3232.55 654.592L3231.94 655.96ZM3553.57 675.786L3553.23 674.327L3553.23 674.327L3553.57 675.786ZM3728.5 651.823L3728.53 653.322L3728.53 653.322L3728.5 651.823ZM3923.13 694.313L3922.6 695.715L3922.6 695.715L3923.13 694.313ZM4116.5 737.013L4116.48 735.513L4116.48 735.513L4116.5 737.013ZM4272 727.569L4273.5 727.56L4273.49 725.933L4271.87 726.074L4272 727.569ZM4276 1411.71V1413.21H4277.51L4277.5 1411.7L4276 1411.71ZM3092 615.036V616.536H3092.02L3092.03 616.535L3092 615.036ZM128.5 696.838L128.451 698.337L128.451 698.337L128.5 696.838ZM-3.06226 655.96L-2.44657 654.592L-2.44657 654.592L-3.06226 655.96ZM318.574 675.786L318.922 677.245L318.922 677.245L318.574 675.786ZM493.5 651.823L493.528 653.322L493.528 653.322L493.5 651.823ZM688.132 694.313L687.598 695.715L687.598 695.715L688.132 694.313ZM-399 1411.71L-400.5 1411.72L-400.492 1413.21H-399V1411.71ZM-403 695.418L-403.818 694.161L-404.505 694.607L-404.5 695.426L-403 695.418ZM-143 615.036L-142.967 616.535L-142.967 616.535L-143 615.036ZM2757.5 693.66L2757.5 695.16L2757.5 693.66ZM2152.55 698.337C2196.84 696.886 2240.94 677.016 2284.68 657.328L2283.45 654.592C2239.57 674.342 2196.04 693.911 2152.45 695.339L2152.55 698.337ZM1962.08 677.245C2013.42 689.503 2062.76 701.278 2152.55 698.337L2152.45 695.339C2063.05 698.267 2014.02 686.56 1962.77 674.327L1962.08 677.245ZM1787.47 653.322C1868.08 654.804 1915.89 666.218 1962.08 677.245L1962.77 674.327C1916.52 663.284 1868.46 651.81 1787.53 650.323L1787.47 653.322ZM1593.4 695.715C1651.22 673.729 1708.71 651.875 1787.47 653.322L1787.53 650.323C1708.13 648.864 1650.15 670.923 1592.34 692.911L1593.4 695.715ZM1399.46 738.512C1477.09 740.836 1536.03 717.532 1593.4 695.715L1592.34 692.911C1534.92 714.745 1476.51 737.817 1399.54 735.514L1399.46 738.512ZM1128.53 675.5C1182.56 674.347 1230.59 689.433 1275 705.176C1319.29 720.882 1360.17 737.337 1399.46 738.512L1399.54 735.514C1360.86 734.356 1320.55 718.145 1276 702.349C1231.55 686.59 1183.08 671.336 1128.47 672.5L1128.53 675.5ZM2284.68 657.328C2331.35 636.319 2377.62 615.523 2423.97 616.535L2424.03 613.536C2376.88 612.506 2329.96 633.655 2283.45 654.592L2284.68 657.328ZM3363.55 695.339C3319.96 693.911 3276.43 674.342 3232.55 654.592L3231.32 657.328C3275.06 677.016 3319.16 696.886 3363.45 698.337L3363.55 695.339ZM3553.23 674.327C3501.98 686.56 3452.95 698.267 3363.55 695.339L3363.45 698.337C3453.24 701.278 3502.58 689.503 3553.92 677.245L3553.23 674.327ZM3728.47 650.323C3647.54 651.81 3599.48 663.284 3553.23 674.327L3553.92 677.245C3600.11 666.218 3647.92 654.804 3728.53 653.322L3728.47 650.323ZM3923.67 692.911C3865.85 670.923 3807.87 648.864 3728.47 650.323L3728.53 653.322C3807.29 651.875 3864.79 673.729 3922.6 695.715L3923.67 692.911ZM4116.48 735.513C4038.29 736.491 3981.05 714.736 3923.67 692.911L3922.6 695.715C3979.99 717.541 4037.7 739.498 4116.52 738.513L4116.48 735.513ZM4271.87 726.074C4257.51 727.327 4169.34 734.852 4116.48 735.513L4116.52 738.513C4169.51 737.85 4257.79 730.314 4272.13 729.063L4271.87 726.074ZM4277.5 1411.7L4273.5 727.56L4270.5 727.577L4274.5 1411.72L4277.5 1411.7ZM3232.55 654.592C3186.04 633.655 3139.12 612.506 3091.97 613.536L3092.03 616.535C3138.38 615.523 3184.65 636.319 3231.32 657.328L3232.55 654.592ZM128.549 695.339C84.9579 693.911 41.4301 674.342 -2.44657 654.592L-3.67794 657.328C40.0633 677.016 84.1552 696.886 128.451 698.337L128.549 695.339ZM318.226 674.327C266.983 686.56 217.952 698.267 128.549 695.339L128.451 698.337C218.245 701.278 267.577 689.503 318.922 677.245L318.226 674.327ZM493.473 650.323C412.542 651.81 364.482 663.284 318.226 674.327L318.922 677.245C365.108 666.218 412.921 654.804 493.528 653.322L493.473 650.323ZM688.665 692.911C630.847 670.923 572.871 648.864 493.473 650.323L493.528 653.322C572.291 651.875 629.785 673.729 687.598 695.715L688.665 692.911ZM881.428 735.515C804.547 739.203 746.108 714.756 688.665 692.911L687.598 695.715C744.937 717.521 803.962 742.235 881.572 738.511L881.428 735.515ZM-397.5 1411.7L-401.5 695.409L-404.5 695.426L-400.5 1411.72L-397.5 1411.7ZM-143.033 613.536C-232.276 615.485 -328.88 645.379 -403.818 694.161L-402.182 696.675C-327.71 648.197 -231.65 618.472 -142.967 616.535L-143.033 613.536ZM-2.44657 654.592C-48.9609 633.655 -95.8777 612.506 -143.033 613.536L-142.967 616.535C-96.6189 615.523 -50.3506 636.319 -3.67794 657.328L-2.44657 654.592ZM4276 1410.21H-399V1413.21H4276V1410.21ZM1128.47 672.5C1078.43 673.568 1035.78 688.48 996.113 703.51C956.368 718.569 919.758 733.676 881.428 735.515L881.572 738.511C920.488 736.644 957.614 721.305 997.176 706.315C1036.82 691.296 1079.05 676.555 1128.53 675.5L1128.47 672.5ZM2757.5 695.16C2825.96 695.216 2875.95 675.456 2925.6 655.785C2975.25 636.114 3024.56 616.536 3092 616.536V613.536C3023.94 613.536 2974.15 633.326 2924.5 652.995C2874.85 672.665 2825.34 692.216 2757.5 692.16L2757.5 695.16ZM2423.97 616.535C2479.41 617.746 2528.55 637.262 2581.07 656.627C2633.53 675.97 2689.25 695.104 2757.5 695.16L2757.5 692.16C2689.82 692.105 2634.54 673.144 2582.11 653.812C2529.73 634.501 2480.09 614.76 2424.03 613.536L2423.97 616.535Z" fill="white" fill-opacity="0.1"/>
</g>
<defs>
<clipPath id="clip0">
<rect width="1951" height="1295" fill="white"/>
</clipPath>
</defs>
</svg>
