<svg width="1951" height="1295" viewBox="0 0 1951 1295" fill="none" xmlns="http://www.w3.org/2000/svg">
<g clip-path="url(#clip0)">
<path d="M597.998 299.574C652.235 281.339 723.972 241.962 804.503 240.593C836.7 240.045 860.37 244.858 884.494 249.763C906.163 254.169 928.198 258.649 957.108 259.386C1016.13 260.892 1057.15 246.906 1098.68 232.743C1137.9 219.368 1177.59 205.835 1233.35 205.037C1286.64 204.274 1327.07 215.544 1367.56 226.828L1367.56 226.828C1407.73 238.024 1447.94 249.234 1500.83 248.72C1553.71 249.234 1593.92 238.025 1634.09 226.829L1634.09 226.828C1674.58 215.544 1715.01 204.274 1768.3 205.037C1824.06 205.835 1863.75 219.368 1902.97 232.743C1944.5 246.906 1985.52 260.892 2044.54 259.386C2073.45 258.649 2095.49 254.169 2117.16 249.763C2141.28 244.858 2164.95 240.045 2197.15 240.593C2277.68 241.962 2387.48 292.002 2403.65 299.574L2371.33 1377H-544L-511.673 244.253C-491.368 246.317 -465.278 248.522 -444.972 248.72C-392.089 249.234 -351.87 238.024 -311.701 226.828L-311.701 226.828L-311.7 226.828C-271.217 215.544 -230.785 204.274 -177.493 205.037C-121.733 205.835 -82.0463 219.368 -42.8256 232.743C-1.29163 246.906 39.7202 260.892 98.7458 259.386C127.656 258.649 149.691 254.169 171.36 249.763C195.484 244.858 219.154 240.045 251.351 240.593C331.882 241.962 398.229 281.339 457.856 299.574C517.483 317.809 543.761 317.809 597.998 299.574Z" fill="white" fill-opacity="0.1"/>
<path d="M804.503 240.593L804.529 242.092L804.529 242.092L804.503 240.593ZM884.494 249.763L884.793 248.293L884.793 248.293L884.494 249.763ZM957.108 259.386L957.146 257.887L957.146 257.887L957.108 259.386ZM1098.68 232.743L1098.2 231.323L1098.2 231.323L1098.68 232.743ZM1233.35 205.037L1233.37 206.536L1233.37 206.536L1233.35 205.037ZM1367.56 226.828L1367.98 225.389L1367.97 225.386L1367.96 225.383L1367.56 226.828ZM1500.83 248.72L1500.84 247.22L1500.83 247.22L1500.81 247.22L1500.83 248.72ZM1367.56 226.828L1367.13 228.268L1367.14 228.271L1367.15 228.273L1367.56 226.828ZM2403.65 299.574L2405.15 299.619L2405.18 298.634L2404.29 298.216L2403.65 299.574ZM2371.33 1377V1378.5H2372.78L2372.83 1377.04L2371.33 1377ZM2197.15 240.593L2197.12 242.092L2197.12 242.092L2197.15 240.593ZM2117.16 249.763L2116.86 248.293L2116.86 248.293L2117.16 249.763ZM2044.54 259.386L2044.5 257.887L2044.54 259.386ZM1902.97 232.743L1903.45 231.323L1903.45 231.323L1902.97 232.743ZM1768.3 205.037L1768.28 206.536L1768.28 206.536L1768.3 205.037ZM1634.09 226.828L1634.47 228.279L1634.49 228.276L1634.5 228.273L1634.09 226.828ZM1634.09 226.829L1633.71 225.378L1633.7 225.381L1633.69 225.384L1634.09 226.829ZM251.351 240.593L251.325 242.092L251.325 242.092L251.351 240.593ZM457.856 299.574L457.417 301.008L457.417 301.008L457.856 299.574ZM171.36 249.763L171.659 251.233L171.659 251.233L171.36 249.763ZM98.7458 259.386L98.7076 257.887L98.7076 257.887L98.7458 259.386ZM-42.8256 232.743L-42.3415 231.323L-42.3415 231.323L-42.8256 232.743ZM-177.493 205.037L-177.514 206.536L-177.514 206.536L-177.493 205.037ZM-311.701 226.828L-312.106 225.383L-312.113 225.386L-312.121 225.388L-311.701 226.828ZM-311.7 226.828L-312.103 225.383L-312.104 225.383L-311.7 226.828ZM-444.972 248.72L-444.986 250.22L-444.972 248.72ZM-311.701 226.828L-311.299 228.273L-311.29 228.27L-311.281 228.268L-311.701 226.828ZM-511.673 244.253L-511.522 242.761L-513.127 242.598L-513.173 244.21L-511.673 244.253ZM-544 1377L-545.499 1376.96L-545.543 1378.5H-544V1377ZM804.478 239.093C763.981 239.782 725.74 250.025 690.89 262.344C673.465 268.504 656.868 275.191 641.261 281.466C625.641 287.747 611.03 293.61 597.52 298.152L598.476 300.996C612.084 296.421 626.779 290.523 642.381 284.249C657.996 277.97 674.535 271.308 691.89 265.173C726.601 252.903 764.494 242.773 804.529 242.092L804.478 239.093ZM884.793 248.293C860.661 243.386 836.852 238.542 804.478 239.093L804.529 242.092C836.548 241.548 860.078 246.329 884.195 251.233L884.793 248.293ZM957.146 257.887C928.38 257.153 906.458 252.698 884.793 248.293L884.195 251.233C905.867 255.639 928.016 260.145 957.07 260.886L957.146 257.887ZM1098.2 231.323C1056.68 245.482 1015.88 259.385 957.146 257.887L957.07 260.886C1016.38 262.399 1057.62 248.331 1099.16 234.163L1098.2 231.323ZM1233.33 203.537C1177.31 204.338 1137.43 217.945 1098.2 231.323L1099.16 234.163C1138.37 220.791 1177.86 207.331 1233.37 206.536L1233.33 203.537ZM1367.96 225.383C1327.47 214.098 1286.86 202.771 1233.33 203.537L1233.37 206.536C1286.42 205.777 1326.67 216.989 1367.15 228.273L1367.96 225.383ZM1500.81 247.22C1448.16 247.732 1408.13 236.579 1367.96 225.383L1367.15 228.273C1407.32 239.47 1447.72 250.737 1500.84 250.22L1500.81 247.22ZM1367.98 225.389L1367.98 225.389L1367.13 228.267L1367.13 228.268L1367.98 225.389ZM2402.15 299.529L2369.83 1376.96L2372.83 1377.04L2405.15 299.619L2402.15 299.529ZM2197.12 242.092C2237.14 242.773 2284.55 255.561 2324.05 269.176C2363.52 282.78 2394.96 297.159 2403.02 300.932L2404.29 298.216C2396.18 294.417 2364.63 279.991 2325.02 266.339C2285.45 252.699 2237.68 239.782 2197.17 239.093L2197.12 242.092ZM2117.46 251.233C2141.57 246.329 2165.1 241.548 2197.12 242.092L2197.17 239.093C2164.8 238.542 2140.99 243.386 2116.86 248.293L2117.46 251.233ZM2044.58 260.886C2073.63 260.145 2095.78 255.639 2117.46 251.233L2116.86 248.293C2095.19 252.698 2073.27 257.153 2044.5 257.887L2044.58 260.886ZM1902.49 234.163C1944.03 248.331 1985.27 262.399 2044.58 260.886L2044.5 257.887C1985.77 259.385 1944.97 245.482 1903.45 231.323L1902.49 234.163ZM1768.28 206.536C1823.79 207.331 1863.28 220.791 1902.49 234.163L1903.45 231.323C1864.22 217.945 1824.34 204.338 1768.33 203.537L1768.28 206.536ZM1634.5 228.273C1674.98 216.989 1715.23 205.777 1768.28 206.536L1768.33 203.537C1714.79 202.771 1674.18 214.098 1633.69 225.383L1634.5 228.273ZM1500.81 250.22C1553.93 250.737 1594.33 239.47 1634.49 228.274L1633.69 225.384C1593.52 236.579 1553.49 247.732 1500.84 247.22L1500.81 250.22ZM1634.47 228.28L1634.47 228.279L1633.71 225.377L1633.71 225.378L1634.47 228.28ZM251.325 242.092C291.354 242.773 327.896 252.9 361.934 265.17C378.959 271.307 395.326 277.968 411.207 284.252C427.073 290.531 442.448 296.43 457.417 301.008L458.294 298.14C443.45 293.6 428.172 287.739 412.311 281.463C396.465 275.193 380.033 268.505 362.951 262.348C328.776 250.028 291.879 239.782 251.376 239.093L251.325 242.092ZM171.659 251.233C195.776 246.329 219.306 241.548 251.325 242.092L251.376 239.093C219.002 238.542 195.193 243.386 171.061 248.293L171.659 251.233ZM98.7841 260.886C127.838 260.145 149.986 255.639 171.659 251.233L171.061 248.293C149.396 252.698 127.474 257.153 98.7076 257.887L98.7841 260.886ZM-43.3098 234.163C-1.7616 248.331 39.47 262.399 98.7841 260.886L98.7076 257.887C39.9704 259.385 -0.821648 245.482 -42.3415 231.323L-43.3098 234.163ZM-177.514 206.536C-122.011 207.331 -82.5202 220.791 -43.3098 234.163L-42.3415 231.323C-81.5725 217.945 -121.454 204.338 -177.471 203.537L-177.514 206.536ZM-311.297 228.272L-311.296 228.272L-312.104 225.383L-312.106 225.383L-311.297 228.272ZM-311.297 228.272C-270.815 216.989 -230.569 205.777 -177.514 206.536L-177.471 203.537C-231.001 202.771 -271.618 214.098 -312.103 225.383L-311.297 228.272ZM-444.986 250.22C-391.87 250.737 -351.468 239.469 -311.299 228.273L-312.104 225.383C-352.271 236.579 -392.308 247.732 -444.957 247.22L-444.986 250.22ZM-311.281 228.268L-311.281 228.268L-312.121 225.388L-312.121 225.388L-311.281 228.268ZM-511.825 245.745C-491.513 247.81 -465.365 250.021 -444.986 250.22L-444.957 247.22C-465.19 247.023 -491.224 244.823 -511.522 242.761L-511.825 245.745ZM-542.501 1377.04L-510.174 244.296L-513.173 244.21L-545.499 1376.96L-542.501 1377.04ZM457.417 301.008C487.275 310.14 508.921 314.75 529.948 314.75C550.987 314.75 571.294 310.135 598.476 300.996L597.52 298.152C570.465 307.248 550.514 311.75 529.948 311.75C509.37 311.75 488.064 307.244 458.294 298.14L457.417 301.008ZM-544 1378.5H2371.33V1375.5H-544V1378.5Z" fill="white" fill-opacity="0.1"/>
</g>
<defs>
<clipPath id="clip0">
<rect width="1951" height="1295" fill="white"/>
</clipPath>
</defs>
</svg>
