<svg width="1951" height="200" viewBox="0 0 1951 200" fill="none" xmlns="http://www.w3.org/2000/svg">
<g clip-path="url(#clip0)">
<rect width="1951" height="200" fill="black" fill-opacity="0"/>
<path d="M171 142.263C251.5 115.219 357.973 56.8189 477.5 54.7876C525.287 53.9756 560.418 61.1133 596.224 68.3881C628.385 74.9224 661.091 81.5673 704 82.6609C791.607 84.8939 852.478 64.1518 914.124 43.1457C972.336 23.3095 1031.24 3.23785 1114 2.05435C1193.1 0.923214 1253.11 17.6375 1313.2 34.3731C1372.82 50.9783 1432.51 67.6045 1511 66.841C1589.49 67.6045 1649.18 50.9783 1708.8 34.3731C1768.89 17.6375 1828.9 0.923214 1908 2.05435C1990.76 3.23785 2049.66 23.3095 2107.88 43.1457C2169.52 64.1518 2230.39 84.8939 2318 82.6609C2360.91 81.5673 2393.61 74.9224 2425.78 68.3881C2461.58 61.1133 2496.71 53.9756 2544.5 54.7876C2664.03 56.8189 2827 131.034 2851 142.263L2852 880H-1475L-1476 60.2166C-1445.86 63.2769 -1407.14 66.5478 -1377 66.841C-1298.51 67.6045 -1238.82 50.9783 -1179.2 34.3731C-1119.11 17.6375 -1059.1 0.923214 -980 2.05435C-897.24 3.23785 -838.336 23.3095 -780.124 43.1457C-718.478 64.1518 -657.607 84.8939 -570 82.6609C-527.091 81.5673 -494.386 74.9224 -462.224 68.3881C-426.418 61.1133 -391.287 53.9756 -343.5 54.7876C-223.973 56.8189 -125.5 115.219 -37 142.263C51.5 169.308 90.5 169.308 171 142.263Z" fill="white" fill-opacity="0.1"/>
<path d="M477.5 54.7876L477.542 57.2873L477.542 57.2873L477.5 54.7876ZM171 142.263L171.796 144.633L171.796 144.633L171 142.263ZM596.224 68.3881L596.722 65.9382L596.722 65.9382L596.224 68.3881ZM704 82.6609L704.064 80.1617L704.064 80.1617L704 82.6609ZM914.124 43.1457L913.318 40.7793L913.318 40.7793L914.124 43.1457ZM1114 2.05435L1114.04 4.5541L1114.04 4.5541L1114 2.05435ZM1313.2 34.3731L1312.53 36.7814L1312.53 36.7814L1313.2 34.3731ZM1511 66.841L1511.02 64.3411L1511 64.3408L1510.98 64.3411L1511 66.841ZM2851 142.263L2853.5 142.26L2853.5 140.672L2852.06 139.999L2851 142.263ZM2852 880V882.5H2854.5L2854.5 879.997L2852 880ZM2544.5 54.7876L2544.46 57.2873L2544.46 57.2873L2544.5 54.7876ZM2425.78 68.3881L2425.28 65.9382L2425.28 65.9382L2425.78 68.3881ZM2318 82.6609L2317.94 80.1617L2317.94 80.1617L2318 82.6609ZM2107.88 43.1457L2108.68 40.7793L2108.68 40.7793L2107.88 43.1457ZM1908 2.05435L1907.96 4.5541L1907.96 4.5541L1908 2.05435ZM1708.8 34.3731L1709.47 36.7814L1709.47 36.7814L1708.8 34.3731ZM-343.5 54.7876L-343.542 57.2873L-343.542 57.2873L-343.5 54.7876ZM-37 142.263L-37.7306 144.654L-37.7306 144.654L-37 142.263ZM-462.224 68.3881L-461.726 70.838L-461.726 70.838L-462.224 68.3881ZM-570 82.6609L-570.064 80.1617L-570.064 80.1617L-570 82.6609ZM-780.124 43.1457L-779.318 40.7793L-779.318 40.7793L-780.124 43.1457ZM-980 2.05435L-980.036 4.5541L-980.036 4.5541L-980 2.05435ZM-1179.2 34.3731L-1179.87 31.9647L-1179.87 31.9647L-1179.2 34.3731ZM-1377 66.841L-1376.98 64.3411L-1376.98 64.3411L-1377 66.841ZM-1476 60.2166L-1475.75 57.7294L-1478.5 57.4496L-1478.5 60.2197L-1476 60.2166ZM-1475 880L-1477.5 880.003L-1477.5 882.5H-1475V880ZM477.458 52.288C417.31 53.3102 360.52 68.5127 308.782 86.7882C282.913 95.926 258.273 105.845 235.111 115.152C211.926 124.468 190.247 133.16 170.204 139.894L171.796 144.633C192.003 137.845 213.821 129.095 236.975 119.791C260.153 110.478 284.695 100.599 310.448 91.5027C361.953 73.3093 418.163 58.2964 477.542 57.2873L477.458 52.288ZM596.722 65.9382C560.904 58.6609 525.54 51.4709 477.458 52.288L477.542 57.2873C525.034 56.4802 559.933 63.5657 595.726 70.838L596.722 65.9382ZM704.064 80.1617C661.394 79.0742 628.877 72.4712 596.722 65.9382L595.726 70.838C627.894 77.3736 660.788 84.0604 703.936 85.1601L704.064 80.1617ZM913.318 40.7793C851.696 61.7774 791.191 82.3825 704.064 80.1617L703.936 85.1601C792.024 87.4053 853.261 66.5263 914.93 45.5121L913.318 40.7793ZM1113.96 -0.44539C1030.78 0.744228 971.547 20.9373 913.318 40.7793L914.93 45.5121C973.126 25.6818 1031.7 5.73148 1114.04 4.5541L1113.96 -0.44539ZM1313.87 31.9647C1253.78 15.2284 1193.46 -1.58218 1113.96 -0.44539L1114.04 4.5541C1192.74 3.42861 1252.44 20.0466 1312.53 36.7814L1313.87 31.9647ZM1510.98 64.3411C1432.87 65.1009 1373.48 48.5693 1313.87 31.9647L1312.53 36.7814C1372.15 53.3873 1432.15 70.1082 1511.02 69.3408L1510.98 64.3411ZM2848.5 142.267L2849.5 880.003L2854.5 879.997L2853.5 142.26L2848.5 142.267ZM2544.46 57.2873C2603.82 58.296 2674.14 77.25 2732.76 97.4399C2791.33 117.612 2837.98 138.933 2849.94 144.528L2852.06 139.999C2840.02 134.364 2793.19 112.963 2734.39 92.7124C2675.64 72.4796 2604.71 53.3105 2544.54 52.288L2544.46 57.2873ZM2426.27 70.838C2462.07 63.5657 2496.97 56.4802 2544.46 57.2873L2544.54 52.288C2496.46 51.4709 2461.1 58.6609 2425.28 65.9382L2426.27 70.838ZM2318.06 85.1601C2361.21 84.0604 2394.11 77.3736 2426.27 70.838L2425.28 65.9382C2393.12 72.4712 2360.61 79.0742 2317.94 80.1617L2318.06 85.1601ZM2107.07 45.5121C2168.74 66.5263 2229.98 87.4053 2318.06 85.1601L2317.94 80.1617C2230.81 82.3825 2170.3 61.7774 2108.68 40.7793L2107.07 45.5121ZM1907.96 4.5541C1990.3 5.73148 2048.87 25.6818 2107.07 45.5121L2108.68 40.7793C2050.45 20.9373 1991.22 0.744228 1908.04 -0.44539L1907.96 4.5541ZM1709.47 36.7814C1769.56 20.0466 1829.26 3.42861 1907.96 4.5541L1908.04 -0.44539C1828.54 -1.58218 1768.22 15.2284 1708.13 31.9647L1709.47 36.7814ZM1510.98 69.3408C1589.85 70.1082 1649.85 53.3873 1709.47 36.7814L1708.13 31.9647C1648.52 48.5693 1589.13 65.1009 1511.02 64.3411L1510.98 69.3408ZM-343.542 57.2873C-284.173 58.2962 -229.969 73.3042 -179.462 91.4975C-154.199 100.598 -129.912 110.475 -106.337 119.796C-82.7889 129.108 -59.9596 137.861 -37.7306 144.654L-36.2694 139.873C-58.2904 133.143 -80.9577 124.455 -104.499 115.147C-128.014 105.848 -152.409 95.9276 -177.768 86.7934C-228.504 68.5178 -283.3 53.3103 -343.458 52.288L-343.542 57.2873ZM-461.726 70.838C-425.933 63.5657 -391.034 56.4802 -343.542 57.2873L-343.458 52.288C-391.54 51.4709 -426.904 58.6609 -462.722 65.9382L-461.726 70.838ZM-569.936 85.1601C-526.788 84.0604 -493.894 77.3736 -461.726 70.838L-462.722 65.9382C-494.877 72.4712 -527.394 79.0742 -570.064 80.1617L-569.936 85.1601ZM-780.93 45.5121C-719.261 66.5263 -658.024 87.4053 -569.936 85.1601L-570.064 80.1617C-657.191 82.3825 -717.695 61.7774 -779.318 40.7793L-780.93 45.5121ZM-980.036 4.5541C-897.703 5.73148 -839.125 25.6818 -780.93 45.5121L-779.318 40.7793C-837.547 20.9373 -896.776 0.744228 -979.964 -0.44539L-980.036 4.5541ZM-1178.53 36.7814C-1118.44 20.0466 -1058.74 3.42861 -980.036 4.5541L-979.964 -0.44539C-1059.46 -1.58218 -1119.78 15.2284 -1179.87 31.9647L-1178.53 36.7814ZM-1377.02 69.3408C-1298.15 70.1082 -1238.15 53.3873 -1178.53 36.7814L-1179.87 31.9647C-1239.48 48.5693 -1298.87 65.1009 -1376.98 64.3411L-1377.02 69.3408ZM-1476.25 62.7038C-1446.1 65.7653 -1407.28 69.0465 -1377.02 69.3408L-1376.98 64.3411C-1406.99 64.0491 -1445.62 60.7884 -1475.75 57.7294L-1476.25 62.7038ZM-1472.5 879.997L-1473.5 60.2136L-1478.5 60.2197L-1477.5 880.003L-1472.5 879.997ZM-37.7306 144.654C6.59332 158.199 38.7509 165.047 70 165.047C101.269 165.047 131.44 158.191 171.796 144.633L170.204 139.894C130.06 153.38 100.481 160.047 70 160.047C39.4991 160.047 7.90668 153.372 -36.2694 139.873L-37.7306 144.654ZM-1475 882.5H2852V877.5H-1475V882.5Z" fill="white" fill-opacity="0.1"/>
</g>
<defs>
<clipPath id="clip0">
<rect width="1951" height="200" fill="white"/>
</clipPath>
</defs>
</svg>
