<svg width="1951" height="301" viewBox="0 0 1951 301" fill="none" xmlns="http://www.w3.org/2000/svg">
<g clip-path="url(#clip0)">
<rect width="1951" height="301" fill="black" fill-opacity="0"/>
<path d="M597.67 96.574C651.907 78.3387 723.644 38.9622 804.175 37.5926C836.371 37.045 860.041 41.8577 884.166 46.7628C905.835 51.1686 927.87 55.649 956.78 56.3864C1015.81 57.892 1056.82 43.9065 1098.35 29.7429C1137.57 16.3681 1177.26 2.83464 1233.02 2.03665C1286.31 1.27397 1326.74 12.5437 1367.23 23.8279C1407.4 35.0241 1447.62 46.2345 1500.5 45.7196C1553.38 46.2345 1593.6 35.0241 1633.77 23.8279C1674.25 12.5437 1714.68 1.27397 1767.98 2.03665C1823.74 2.83464 1863.42 16.3681 1902.64 29.7429C1944.18 43.9065 1985.19 57.892 2044.22 56.3864C2073.13 55.649 2095.16 51.1686 2116.83 46.7628C2140.95 41.8577 2164.62 37.045 2196.82 37.5926C2277.35 38.9622 2387.16 89.0023 2403.33 96.574L2404 594H-511.326L-512 41.2531C-491.695 43.3165 -465.604 45.522 -445.299 45.7196C-392.416 46.2345 -352.196 35.0241 -312.028 23.8279L-312.028 23.8279C-271.544 12.5437 -231.112 1.27397 -177.819 2.03665C-122.059 2.83464 -82.3726 16.3681 -43.1519 29.7429C-1.61792 43.9065 39.394 57.892 98.4196 56.3864C127.33 55.649 149.365 51.1686 171.034 46.7628C195.158 41.8577 218.828 37.045 251.024 37.5926C331.556 38.9622 397.902 78.3387 457.53 96.574C517.157 114.809 543.433 114.809 597.67 96.574Z" fill="white" fill-opacity="0.1"/>
<path d="M804.175 37.5926L804.218 40.0922L804.218 40.0922L804.175 37.5926ZM597.67 96.574L596.873 94.2043L596.873 94.2043L597.67 96.574ZM884.166 46.7628L884.664 44.3129L884.664 44.3129L884.166 46.7628ZM956.78 56.3864L956.844 53.8872L956.844 53.8872L956.78 56.3864ZM1098.35 29.7429L1097.54 27.3767L1097.54 27.3767L1098.35 29.7429ZM1233.02 2.03665L1233.05 4.53639L1233.05 4.53639L1233.02 2.03665ZM1367.23 23.8279L1367.9 21.4197L1367.9 21.4197L1367.23 23.8279ZM1500.5 45.7196L1500.52 43.2198L1500.5 43.2195L1500.47 43.2198L1500.5 45.7196ZM2403.33 96.574L2405.83 96.5706L2405.82 94.9831L2404.39 94.3099L2403.33 96.574ZM2404 594V596.5H2406.5L2406.5 593.997L2404 594ZM2196.82 37.5926L2196.78 40.0922L2196.78 40.0922L2196.82 37.5926ZM2116.83 46.7628L2117.33 49.2127L2117.33 49.2127L2116.83 46.7628ZM2044.22 56.3864L2044.15 53.8872L2044.15 53.8872L2044.22 56.3864ZM1902.64 29.7429L1903.45 27.3767L1903.45 27.3767L1902.64 29.7429ZM1767.98 2.03665L1767.94 4.53639L1767.94 4.53639L1767.98 2.03665ZM1633.77 23.8279L1633.1 21.4197L1633.1 21.4197L1633.77 23.8279ZM251.024 37.5926L250.982 40.0922L250.982 40.0922L251.024 37.5926ZM457.53 96.574L458.261 94.1833L458.261 94.1833L457.53 96.574ZM171.034 46.7628L170.536 44.3129L170.536 44.3129L171.034 46.7628ZM98.4196 56.3864L98.3559 53.8872L98.3559 53.8872L98.4196 56.3864ZM-43.1519 29.7429L-42.345 27.3767L-42.345 27.3767L-43.1519 29.7429ZM-177.819 2.03665L-177.855 4.53639L-177.855 4.53639L-177.819 2.03665ZM-312.028 23.8279L-312.699 21.4197L-312.714 21.4237L-312.728 21.4279L-312.028 23.8279ZM-445.299 45.7196L-445.323 48.2195L-445.323 48.2195L-445.299 45.7196ZM-312.028 23.8279L-311.357 26.2361L-311.342 26.2321L-311.328 26.2279L-312.028 23.8279ZM-512 41.2531L-511.747 38.7659L-514.503 38.4858L-514.5 41.2562L-512 41.2531ZM-511.326 594L-513.826 594.003L-513.823 596.5H-511.326V594ZM804.133 35.0929C763.482 35.7843 725.125 46.0658 690.229 58.4016C672.78 64.5696 656.163 71.2641 640.56 77.5382C624.934 83.8218 610.351 89.6729 596.873 94.2043L598.467 98.9436C612.108 94.3574 626.831 88.4483 642.426 82.1772C658.044 75.8968 674.564 69.2425 691.895 63.1157C726.559 50.862 764.337 40.7705 804.218 40.0922L804.133 35.0929ZM884.664 44.3129C860.527 39.4054 836.625 34.5404 804.133 35.0929L804.218 40.0922C836.118 39.5497 859.555 44.3101 883.668 49.2127L884.664 44.3129ZM956.844 53.8872C928.173 53.1559 906.327 48.7175 884.664 44.3129L883.668 49.2127C905.342 53.6197 927.567 58.1421 956.716 58.8856L956.844 53.8872ZM1097.54 27.3767C1056.03 41.5322 1015.39 55.3806 956.844 53.8872L956.716 58.8856C1016.22 60.4035 1057.6 46.2807 1099.16 32.1091L1097.54 27.3767ZM1232.98 -0.463095C1176.79 0.341018 1136.78 13.9961 1097.54 27.3767L1099.16 32.1091C1138.36 18.7402 1177.72 5.32825 1233.05 4.53639L1232.98 -0.463095ZM1367.9 21.4197C1327.41 10.1348 1286.67 -1.23144 1232.98 -0.463095L1233.05 4.53639C1285.95 3.77937 1326.07 14.9527 1366.56 26.2361L1367.9 21.4197ZM1500.47 43.2198C1447.98 43.7308 1408.06 32.6153 1367.9 21.4197L1366.56 26.2361C1406.73 37.4329 1447.25 48.7382 1500.52 48.2195L1500.47 43.2198ZM2400.83 96.5774L2401.5 594.003L2406.5 593.997L2405.83 96.5706L2400.83 96.5774ZM2196.78 40.0922C2236.64 40.7701 2283.92 53.5149 2323.39 67.121C2362.82 80.7093 2394.22 95.0727 2402.27 98.8381L2404.39 94.3099C2396.26 90.5036 2364.68 76.0611 2325.02 62.3939C2285.42 48.7447 2237.54 35.7846 2196.86 35.0929L2196.78 40.0922ZM2117.33 49.2127C2141.44 44.3101 2164.88 39.5497 2196.78 40.0922L2196.86 35.0929C2164.37 34.5404 2140.47 39.4054 2116.33 44.3129L2117.33 49.2127ZM2044.28 58.8856C2073.43 58.1421 2095.65 53.6197 2117.33 49.2127L2116.33 44.3129C2094.67 48.7175 2072.82 53.1559 2044.15 53.8872L2044.28 58.8856ZM1901.84 32.1091C1943.4 46.2807 1984.77 60.4035 2044.28 58.8856L2044.15 53.8872C1985.61 55.3806 1944.96 41.5322 1903.45 27.3767L1901.84 32.1091ZM1767.94 4.53639C1823.27 5.32825 1862.63 18.7402 1901.84 32.1091L1903.45 27.3767C1864.21 13.9961 1824.2 0.341018 1768.01 -0.463095L1767.94 4.53639ZM1634.44 26.2361C1674.92 14.9527 1715.04 3.77937 1767.94 4.53639L1768.01 -0.463095C1714.33 -1.23144 1673.58 10.1348 1633.1 21.4197L1634.44 26.2361ZM1500.47 48.2195C1553.75 48.7382 1594.27 37.4329 1634.44 26.2361L1633.1 21.4197C1592.93 32.6153 1553.02 43.7308 1500.52 43.2198L1500.47 48.2195ZM250.982 40.0922C290.853 40.7703 327.276 50.857 361.268 63.1105C378.274 69.2408 394.62 75.8933 410.513 82.1823C426.38 88.4611 441.788 94.374 456.798 98.9647L458.261 94.1833C443.458 89.6563 428.212 83.8089 412.353 77.5331C396.519 71.2676 380.065 64.5712 362.964 58.4068C328.743 46.0708 291.727 35.7844 251.067 35.0929L250.982 40.0922ZM171.532 49.2127C195.644 44.3101 219.081 39.5497 250.982 40.0922L251.067 35.0929C218.575 34.5404 194.672 39.4054 170.536 44.3129L171.532 49.2127ZM98.4834 58.8856C127.633 58.1421 149.857 53.6197 171.532 49.2127L170.536 44.3129C148.873 48.7175 127.026 53.1559 98.3559 53.8872L98.4834 58.8856ZM-43.9588 32.1091C-2.40122 46.2807 38.9769 60.4035 98.4834 58.8856L98.3559 53.8872C39.811 55.3806 -0.834624 41.5322 -42.345 27.3767L-43.9588 32.1091ZM-177.855 4.53639C-122.523 5.32825 -83.1623 18.7402 -43.9588 32.1091L-42.345 27.3767C-81.5828 13.9961 -121.595 0.341018 -177.783 -0.463095L-177.855 4.53639ZM-311.357 26.2361C-270.875 14.9527 -230.752 3.77937 -177.855 4.53639L-177.783 -0.463095C-231.471 -1.23144 -272.213 10.1348 -312.699 21.4197L-311.357 26.2361ZM-445.323 48.2195C-392.051 48.7382 -351.527 37.433 -311.357 26.2361L-312.699 21.4197C-352.865 32.6153 -392.78 43.7308 -445.274 43.2198L-445.323 48.2195ZM-311.328 26.2279L-311.328 26.2279L-312.728 21.4279L-312.728 21.4279L-311.328 26.2279ZM-512.253 43.7403C-491.936 45.805 -465.75 48.0207 -445.323 48.2195L-445.274 43.2198C-465.459 43.0233 -491.455 40.8281 -511.747 38.7659L-512.253 43.7403ZM-508.826 593.997L-509.5 41.2501L-514.5 41.2562L-513.826 594.003L-508.826 593.997ZM456.798 98.9647C486.686 108.105 508.445 112.75 529.621 112.75C550.817 112.75 571.242 108.097 598.467 98.9436L596.873 94.2043C569.861 103.286 550.029 107.75 529.621 107.75C509.193 107.75 488 103.278 458.261 94.1833L456.798 98.9647ZM-511.326 596.5H2404V591.5H-511.326V596.5Z" fill="white" fill-opacity="0.1"/>
</g>
<defs>
<clipPath id="clip0">
<rect width="1951" height="301" fill="white"/>
</clipPath>
</defs>
</svg>
