<svg width="80" height="61" viewBox="0 0 80 61" fill="none" xmlns="http://www.w3.org/2000/svg">
<path fill-rule="evenodd" clip-rule="evenodd" d="M46.9942 0H0V23.9481C0 25.1959 1.03135 26.2074 2.30364 26.2074H44.6906C45.9629 26.2074 46.9942 25.1959 46.9942 23.9481V0Z" transform="translate(15.1415 18.9778)" fill="#E6EDF3"/>
<path d="M0 0H38.5496V2.25926H0V0Z" transform="translate(19.5054 22.0688)" fill="white"/>
<path d="M2.30364 0C1.03135 0 0 1.19542 0 2.67003V5.87407H46.9942V2.67003C46.9942 1.19542 45.9629 0 44.6906 0H2.30364Z" transform="translate(15.1415 13.1036)" fill="#BFCBD6"/>
<path d="M0 0H6.54616V1.06416H0V0Z" transform="translate(53.3275 15.5868)" fill="white"/>
<path d="M0 0H4.00043V1.06416H0V0Z" transform="translate(47.1447 15.5868)" fill="white"/>
<path d="M0 0H38.5496V2.25926H0V0Z" transform="translate(19.5054 27.7908)" fill="white"/>
<path d="M0 0H38.5496V2.25926H0V0Z" transform="translate(19.5054 33.5127)" fill="white"/>
<path d="M0 0H38.5496V2.25926H0V0Z" transform="translate(19.5054 39.3287)" fill="white"/>
<path d="M0.718118 1.76044L1.88373 2.14288V2.78096L0 2.03272V1.47985L1.88373 0.731612V1.36762L0.718118 1.76044Z" transform="translate(17.0578 14.3341)" fill="white"/>
<path d="M2.57414 3.28602H2.06485L3.12392 0H3.63534L2.57414 3.28602Z" transform="translate(17.0578 14.3341)" fill="white"/>
<path d="M5.05666 1.75421L3.89744 1.36969V0.733691L5.77051 1.48193V2.0348L3.89744 2.78304V2.14703L5.05666 1.75421Z" transform="translate(17.0578 14.3341)" fill="white"/>
<path fill-rule="evenodd" clip-rule="evenodd" d="M0.934204 0C0.418274 0 0 0.418274 0 0.934204V1.20331C0 1.67999 0.356964 2.07324 0.818115 2.13037V2.93909H2.45465H4.09119V2.13043C4.55252 2.07343 4.90964 1.68011 4.90964 1.20331V0.934204C4.90964 0.418274 4.49136 0 3.9754 0H0.934204Z" transform="translate(56.8791 28.4539)" fill="#BFCBD6"/>
<path d="M18.5475 9.08455C18.5475 14.1018 14.3955 18.1691 9.27373 18.1691C4.15199 18.1691 0 14.1018 0 9.08455C0 4.06729 4.15199 0 9.27373 0C14.3955 0 18.5475 4.06729 18.5475 9.08455Z" transform="translate(49.7874 30.8586)" fill="url(#paint0_linear)"/>
<path fill-rule="evenodd" clip-rule="evenodd" d="M5.29833 0C5.81428 0 6.23254 0.418263 6.23254 0.934216V5.47649C6.23254 5.99244 5.81428 6.4107 5.29833 6.4107H0.934216C0.418263 6.4107 0 5.99244 0 5.47649C0 4.96054 0.418263 4.54227 0.934216 4.54227H4.36411V0.934216C4.36411 0.418263 4.78237 0 5.29833 0Z" transform="translate(54.0354 35.001)" fill="white"/>
<path d="M0 0.866861C0 0.388107 0.388107 0 0.866861 0H6.11033C6.58908 0 6.97719 0.388107 6.97719 0.866861V0.866861C6.97719 1.34561 6.58908 1.73372 6.11033 1.73372H0.866861C0.388107 1.73372 0 1.34561 0 0.866861V0.866861Z" transform="translate(31.5049 56.1117) scale(1.0067 0.993254) rotate(-45)" fill="#E6EDF3"/>
<path d="M0 0.866861C0 0.388107 0.388107 0 0.866861 0H6.11033C6.58908 0 6.97719 0.388107 6.97719 0.866861V0.866861C6.97719 1.34561 6.58908 1.73372 6.11033 1.73372H0.866861C0.388107 1.73372 0 1.34561 0 0.866861V0.866861Z" transform="translate(32.7503 51.2113) scale(1.0067 0.993254) rotate(45)" fill="#E6EDF3"/>
<path d="M0 0H4.1068V4.1068H0V0Z" transform="translate(2.93207 37.1134) scale(1.00968 0.990227) rotate(45)" fill="#E6EDF3"/>
<path d="M0 0.545438C0 0.244201 0.244201 0 0.545438 0H3.84469C4.14592 0 4.39013 0.244201 4.39013 0.545438V0.545438C4.39013 0.846675 4.14592 1.09088 3.84469 1.09088H0.545438C0.244201 1.09088 0 0.846675 0 0.545438V0.545438Z" transform="translate(46.9314 3.07629) scale(1.00893 0.990992) rotate(-45)" fill="#E6EDF3"/>
<path d="M0 0.545438C0 0.244201 0.244201 0 0.545438 0H3.84469C4.14592 0 4.39013 0.244201 4.39013 0.545438V0.545438C4.39013 0.846675 4.14592 1.09088 3.84469 1.09088H0.545438C0.244201 1.09088 0 0.846675 0 0.545438V0.545438Z" transform="translate(47.7167) scale(1.00893 0.990992) rotate(45)" fill="#E6EDF3"/>
<path fill-rule="evenodd" clip-rule="evenodd" d="M4.8575 5.78818C5.54632 5.78818 5.97814 5.25975 5.97814 4.76252C5.97814 4.26529 5.54632 3.73686 4.8575 3.73686C4.16868 3.73686 3.73686 4.26529 3.73686 4.76252C3.73686 5.25975 4.16868 5.78818 4.8575 5.78818ZM4.8575 9.52504C7.54022 9.52504 9.715 7.39279 9.715 4.76252C9.715 2.13225 7.54022 0 4.8575 0C2.17478 0 0 2.13225 0 4.76252C0 7.39279 2.17478 9.52504 4.8575 9.52504Z" transform="translate(63.3841 1.53632)" fill="#E6EDF3"/>
<path d="M0 0H4.1068V4.1068H0V0Z" transform="translate(76.5829 19.1296) scale(1.00968 0.990227) rotate(45)" fill="#E6EDF3"/>
<defs>
<linearGradient id="paint0_linear" x2="1" gradientUnits="userSpaceOnUse" gradientTransform="translate(-0.543945 20.6752) scale(22.5448 22.0848) rotate(-90)">
<stop stop-color="#EFF4F9"/>
<stop offset="1" stop-color="#B8C4CE"/>
</linearGradient>
</defs>
</svg>
