<svg width="66" height="59" viewBox="0 0 66 59" fill="none" xmlns="http://www.w3.org/2000/svg">
<path d="M0.0158375 1.77221C-0.11729 0.83685 0.605816 0 1.54717 0H22.744C23.6805 0 24.4022 0.828685 24.277 1.76023L20.3116 31.2602C20.2081 32.0305 19.553 32.6053 18.7786 32.6053H5.74583C4.97602 32.6053 4.32337 32.0371 4.2145 31.2722L0.0158375 1.77221Z" transform="translate(20.6249 15.0088)" fill="#E6EDF3"/>
<path d="M2.76947 16.8929H11.8988C12.4412 16.8929 12.9001 16.4915 12.9726 15.9535L15.0864 0.937914C15.1906 0.198022 14.9981 -0.259078 14.3789 0.15909C13.9901 0.421621 13.4377 0.821835 12.6556 1.42269C9.55083 3.80772 3.51028 4.69926 1.05391 3.75164C0.771282 3.64261 -0.042385 4.14539 0.00172565 4.44509L1.6968 15.9619C1.77306 16.4961 2.23024 16.8929 2.76947 16.8929Z" transform="translate(25.4896 28.6509)" fill="url(#paint0_linear)"/>
<path d="M0 0.971015C0 0.434738 0.434738 0 0.971015 0H6.84449C7.38077 0 7.81551 0.434738 7.81551 0.971015V0.971015C7.81551 1.50729 7.38077 1.94203 6.84449 1.94203H0.971015C0.434738 1.94203 0 1.50729 0 0.971015V0.971015Z" transform="translate(4.03103 35.5869) scale(1.00013 0.999873) rotate(-45)" fill="#E6EDF3"/>
<path d="M0 0.971015C0 0.434738 0.434738 0 0.971015 0H6.84449C7.38077 0 7.81551 0.434738 7.81551 0.971015V0.971015C7.81551 1.50729 7.38077 1.94203 6.84449 1.94203H0.971015C0.434738 1.94203 0 1.50729 0 0.971015V0.971015Z" transform="translate(5.41677 30.0615) scale(1.00013 0.999873) rotate(45)" fill="#E6EDF3"/>
<path fill-rule="evenodd" clip-rule="evenodd" d="M4.06492 4.03062C4.06504 4.0294 4.06517 4.02733 4.06517 4.02427C4.06517 4.0212 4.06504 4.01913 4.06492 4.01791C4.06408 4.01651 4.06215 4.01362 4.05855 4.01003C4.05306 4.00455 4.04834 4.00208 4.04677 4.00142L4.04498 4.00088C4.04436 4.00075 4.04066 4 4.03259 4C4.02452 4 4.02081 4.00075 4.02019 4.00088L4.0184 4.00142C4.01683 4.00208 4.01211 4.00455 4.00662 4.01003C4.00302 4.01362 4.00109 4.01651 4.00025 4.01791C4.00013 4.01913 4 4.0212 4 4.02427C4 4.02733 4.00013 4.0294 4.00025 4.03062C4.00109 4.03202 4.00302 4.03491 4.00662 4.03851C4.01211 4.04398 4.01683 4.04645 4.0184 4.04712L4.02019 4.04766C4.02081 4.04778 4.02452 4.04853 4.03259 4.04853C4.04066 4.04853 4.04436 4.04778 4.04498 4.04766L4.04677 4.04712C4.04834 4.04645 4.05306 4.04398 4.05855 4.03851C4.06215 4.03491 4.06408 4.03202 4.06492 4.03062ZM4.00043 4.032C4.00043 4.032 4.00042 4.03194 4.0004 4.0318ZM4.06474 4.01653C4.06474 4.01653 4.06475 4.0166 4.06477 4.01673ZM4.03259 8.04853C6.25972 8.04853 8.06517 6.24681 8.06517 4.02427C8.06517 1.80173 6.25972 0 4.03259 0C1.80545 0 0 1.80173 0 4.02427C0 6.24681 1.80545 8.04853 4.03259 8.04853Z" transform="translate(14.798 50.9515)" fill="#E6EDF3"/>
<path d="M1.54688 0.776316C1.54688 1.20506 1.2006 1.55263 0.773438 1.55263C0.34628 1.55263 0 1.20506 0 0.776316C0 0.347568 0.34628 0 0.773438 0C1.2006 0 1.54688 0.347568 1.54688 0.776316Z" transform="translate(35.0623 23.3246)" fill="#BECAD4"/>
<path d="M1.03125 0.517544C1.03125 0.803375 0.800397 1.03509 0.515625 1.03509C0.230853 1.03509 0 0.803375 0 0.517544C0 0.231712 0.230853 0 0.515625 0C0.800397 0 1.03125 0.231712 1.03125 0.517544Z" transform="translate(31.4529 19.2544)" fill="#BECAD4"/>
<path d="M2.57813 1.29386C2.57813 2.00844 2.00099 2.58772 1.28906 2.58772C0.577133 2.58772 0 2.00844 0 1.29386C0 0.579281 0.577133 0 1.28906 0C2.00099 0 2.57813 0.579281 2.57813 1.29386Z" transform="translate(27.8436 25.8772)" fill="#BECAD4"/>
<path d="M0 2.30003C0 1.02976 1.02976 0 2.30003 0V0C3.5703 0 4.60005 1.02976 4.60005 2.30003V2.30003C4.60005 3.5703 3.5703 4.60005 2.30003 4.60005V4.60005C1.02976 4.60005 0 3.5703 0 2.30003V2.30003Z" transform="translate(3.26289 44.3972) scale(1.00313 0.996865) rotate(45)" fill="#E6EDF3"/>
<path d="M0 0.610955C0 0.273534 0.273534 0 0.610955 0H4.3065C4.64392 0 4.91746 0.273534 4.91746 0.610955V0.610955C4.91746 0.948376 4.64392 1.22191 4.3065 1.22191H0.610955C0.273534 1.22191 0 0.948376 0 0.610955V0.610955Z" transform="translate(34.281 4.99744) scale(1.00237 0.997625) rotate(-45)" fill="#E6EDF3"/>
<path d="M0 0.610955C0 0.273534 0.273534 0 0.610955 0H4.3065C4.64392 0 4.91746 0.273534 4.91746 0.610955V0.610955C4.91746 0.948376 4.64392 1.22191 4.3065 1.22191H0.610955C0.273534 1.22191 0 0.948376 0 0.610955V0.610955Z" transform="translate(35.1552 1.52863) scale(1.00237 0.997625) rotate(45)" fill="#E6EDF3"/>
<path fill-rule="evenodd" clip-rule="evenodd" d="M5.4056 6.74058C6.20666 6.74058 6.81121 6.1024 6.81121 5.37029C6.81121 4.63818 6.20666 4 5.4056 4C4.60455 4 4 4.63818 4 5.37029C4 6.1024 4.60455 6.74058 5.4056 6.74058ZM5.4056 10.7406C8.39104 10.7406 10.8112 8.33622 10.8112 5.37029C10.8112 2.40436 8.39104 0 5.4056 0C2.42017 0 0 2.40436 0 5.37029C0 8.33622 2.42017 10.7406 5.4056 10.7406Z" transform="translate(51.7137)" fill="#E6EDF3"/>
<path d="M0 2.30003C0 1.02976 1.02976 0 2.30003 0V0C3.5703 0 4.60005 1.02976 4.60005 2.30003V2.30003C4.60005 3.5703 3.5703 4.60005 2.30003 4.60005V4.60005C1.02976 4.60005 0 3.5703 0 2.30003V2.30003Z" transform="translate(62.737 22.4882) scale(1.00313 0.996865) rotate(45)" fill="#E6EDF3"/>
<defs>
<linearGradient id="paint0_linear" x2="1" gradientUnits="userSpaceOnUse" gradientTransform="translate(-0.678686 19.2653) scale(18.8415 20.9064) rotate(-90)">
<stop stop-color="#EFF4F9"/>
<stop offset="1" stop-color="#B8C4CE"/>
</linearGradient>
</defs>
</svg>
