<svg width="66" height="59" viewBox="0 0 66 59" fill="none" xmlns="http://www.w3.org/2000/svg">
<path fill-rule="evenodd" clip-rule="evenodd" d="M15.4894 0C14.9594 0 14.5585 0.480701 14.6006 0.999167C14.6453 1.55008 14.6436 2.22026 14.4611 2.71352C13.6653 4.86393 11.0549 5.94258 8.94895 4.96173C8.48397 4.74516 8.01803 4.29342 7.66302 3.8879C7.31834 3.4942 6.69025 3.43361 6.31627 3.80065L3.83421 6.23663C3.45984 6.60405 3.52215 7.22132 3.92406 7.55955C4.33979 7.90943 4.80315 8.36936 5.02361 8.82902C6.00716 10.8797 4.93307 13.4124 2.76485 14.1926C2.26313 14.3731 1.58081 14.375 1.01954 14.3308C0.490753 14.2891 0 14.6828 0 15.2034V18.6421C0 19.1622 0.489794 19.5557 1.01807 19.5144C1.5794 19.4705 2.26226 19.4722 2.76485 19.6513C4.95594 20.4323 6.05501 22.9942 5.05559 25.0611C4.83493 25.5174 4.37463 25.9747 3.96145 26.3231C3.5603 26.6614 3.49856 27.2779 3.87254 27.6449L6.3546 30.0809C6.72897 30.4483 7.35792 30.3871 7.70255 29.9927C8.05904 29.5847 8.52768 29.1299 8.99604 28.9136C11.0855 27.9483 13.6662 29.0024 14.4611 31.1304C14.645 31.6228 14.6469 32.2924 14.6019 32.8433C14.5594 33.3623 14.9606 33.8439 15.491 33.8439H18.9931C19.5236 33.8439 19.9247 33.3623 19.8822 32.8433C19.8372 32.2924 19.8391 31.6228 20.023 31.1304C20.8179 29.0024 23.3866 27.9738 25.4881 28.9135C25.9933 29.1395 26.496 29.6337 26.8715 30.0702C27.2145 30.4689 27.847 30.5322 28.2229 30.1632L30.6955 27.7365C31.071 27.368 31.007 26.748 30.6016 26.4114C30.1595 26.0442 29.6591 25.5536 29.4285 25.0611C28.4553 22.9822 29.5282 20.4323 31.7193 19.6513C32.2218 19.4722 32.9047 19.4705 33.466 19.5144C33.9943 19.5557 34.4841 19.1622 34.4841 18.6421V15.2034C34.4841 14.6828 33.9934 14.2891 33.4646 14.3308C32.9033 14.375 32.221 14.3731 31.7193 14.1926C29.551 13.4124 28.5029 10.8915 29.4605 8.82902C29.6907 8.33314 30.1943 7.83979 30.639 7.47125C31.0452 7.13465 31.1097 6.51391 30.7338 6.145L28.2612 3.71828C27.8857 3.34974 27.254 3.41253 26.911 3.81042C26.5369 4.24433 26.037 4.73545 25.5351 4.96173C23.4169 5.91691 20.8188 4.86393 20.023 2.71352C19.8405 2.22026 19.8388 1.55008 19.8835 0.999167C19.9256 0.480701 19.5247 0 18.9947 0H15.4894ZM17.2421 22.9265C20.621 22.9265 23.3602 20.2382 23.3602 16.922C23.3602 13.6057 20.621 10.9174 17.2421 10.9174C13.8631 10.9174 11.1239 13.6057 11.1239 16.922C11.1239 20.2382 13.8631 22.9265 17.2421 22.9265Z" transform="matrix(0.92531 0.379211 -0.386756 0.922182 29.1894 11.5002)" fill="url(#paint0_linear)"/>
<path fill-rule="evenodd" clip-rule="evenodd" d="M10.6579 0C10.2932 0 10.0174 0.330718 10.0463 0.687418C10.0771 1.06644 10.0759 1.52752 9.95033 1.86688C9.4028 3.34634 7.60665 4.08844 6.15756 3.41362C5.83762 3.26463 5.51702 2.95383 5.27274 2.67484C5.03558 2.40398 4.6034 2.36229 4.34607 2.61481L2.63823 4.29074C2.38064 4.54353 2.42351 4.9682 2.70005 5.2009C2.98611 5.44161 3.30494 5.75805 3.45663 6.07429C4.13339 7.48511 3.39433 9.22764 1.90243 9.76438C1.55721 9.88859 1.08772 9.88985 0.701519 9.85944C0.337676 9.83079 0 10.1016 0 10.4598V12.8256C0 13.1834 0.337016 13.4541 0.700511 13.4257C1.08675 13.3955 1.55661 13.3967 1.90243 13.5199C3.41007 14.0572 4.16631 15.8198 3.47863 17.2418C3.3268 17.5558 3.01008 17.8704 2.72578 18.1101C2.44976 18.3428 2.40728 18.7669 2.6646 19.0194L4.37245 20.6954C4.63005 20.9482 5.06281 20.9061 5.29995 20.6347C5.54524 20.354 5.8677 20.0411 6.18996 19.8923C7.62765 19.2282 9.40336 19.9534 9.95033 21.4174C10.0769 21.7562 10.0782 22.2169 10.0472 22.5959C10.018 22.9529 10.294 23.2843 10.659 23.2843H13.0687C13.4337 23.2843 13.7097 22.9529 13.6805 22.5959C13.6495 22.2169 13.6508 21.7562 13.7774 21.4174C14.3243 19.9534 16.0918 19.2457 17.5377 19.8923C17.8854 20.0477 18.2313 20.3877 18.4897 20.688C18.7257 20.9623 19.1609 21.0059 19.4195 20.752L21.1208 19.0825C21.3792 18.8289 21.3352 18.4024 21.0563 18.1708C20.752 17.9182 20.4077 17.5806 20.2491 17.2418C19.5794 15.8115 20.3176 14.0572 21.8253 13.5199C22.1711 13.3967 22.641 13.3955 23.0272 13.4257C23.3907 13.4541 23.7277 13.1834 23.7277 12.8256V10.4598C23.7277 10.1016 23.39 9.83079 23.0262 9.85944C22.64 9.88985 22.1705 9.88859 21.8253 9.76438C20.3334 9.22764 19.6122 7.49323 20.2711 6.07429C20.4295 5.73312 20.776 5.39371 21.082 5.14015C21.3615 4.90857 21.4059 4.48151 21.1472 4.2277L19.4459 2.55814C19.1875 2.30459 18.7529 2.34779 18.5168 2.62153C18.2594 2.92006 17.9154 3.25795 17.5701 3.41363C16.1126 4.07078 14.3249 3.34634 13.7774 1.86688C13.6518 1.52752 13.6506 1.06644 13.6814 0.687418C13.7103 0.330718 13.4345 0 13.0698 0H10.6579ZM11.8639 15.7732C14.1888 15.7732 16.0736 13.9237 16.0736 11.6421C16.0736 9.36061 14.1888 7.51106 11.8639 7.51106C9.53887 7.51106 7.6541 9.36061 7.6541 11.6421C7.6541 13.9237 9.53887 15.7732 11.8639 15.7732Z" transform="matrix(0.928169 0.372159 -0.379611 0.925146 17.4838 4.58563)" fill="#E6EDF3"/>
<path d="M0 0.971014C0 0.434738 0.434738 0 0.971014 0H6.84449C7.38076 0 7.8155 0.434738 7.8155 0.971014V0.971014C7.8155 1.50729 7.38076 1.94203 6.84449 1.94203H0.971014C0.434738 1.94203 0 1.50729 0 0.971014V0.971014Z" transform="translate(4.03113 35.587) scale(1.00013 0.999873) rotate(-45)" fill="#E6EDF3"/>
<path d="M0 0.971014C0 0.434738 0.434738 0 0.971014 0H6.84449C7.38076 0 7.8155 0.434738 7.8155 0.971014V0.971014C7.8155 1.50729 7.38076 1.94203 6.84449 1.94203H0.971014C0.434738 1.94203 0 1.50729 0 0.971014V0.971014Z" transform="translate(5.41687 30.0614) scale(1.00013 0.999873) rotate(45)" fill="#E6EDF3"/>
<path fill-rule="evenodd" clip-rule="evenodd" d="M4.06491 4.03062C4.06503 4.0294 4.06516 4.02733 4.06516 4.02426C4.06516 4.0212 4.06503 4.01913 4.06491 4.01791C4.06408 4.01651 4.06214 4.01362 4.05854 4.01003C4.05306 4.00455 4.04833 4.00208 4.04676 4.00142L4.04497 4.00088C4.04435 4.00075 4.04065 4 4.03258 4C4.02451 4 4.02081 4.00075 4.02019 4.00088L4.0184 4.00142C4.01683 4.00208 4.01211 4.00455 4.00662 4.01003C4.00302 4.01362 4.00109 4.01651 4.00025 4.01791C4.00013 4.01913 4 4.0212 4 4.02426C4 4.02733 4.00013 4.0294 4.00025 4.03062C4.00109 4.03202 4.00302 4.03491 4.00662 4.0385C4.01211 4.04398 4.01683 4.04645 4.0184 4.04711L4.02019 4.04765C4.02081 4.04778 4.02451 4.04853 4.03258 4.04853C4.04065 4.04853 4.04435 4.04778 4.04497 4.04765L4.04676 4.04711C4.04833 4.04645 4.05306 4.04398 4.05854 4.0385C4.06214 4.03491 4.06408 4.03202 4.06491 4.03062ZM4.00043 4.032C4.00043 4.032 4.00042 4.03194 4.0004 4.0318ZM4.06473 4.01653C4.06473 4.01653 4.06475 4.01659 4.06477 4.01673ZM4.03258 8.04853C6.25972 8.04853 8.06516 6.2468 8.06516 4.02426C8.06516 1.80172 6.25972 0 4.03258 0C1.80545 0 0 1.80172 0 4.02426C0 6.2468 1.80545 8.04853 4.03258 8.04853Z" transform="translate(14.798 50.9515)" fill="#E6EDF3"/>
<path d="M0 0H4.60005V4.60005H0V0Z" transform="translate(3.26288 44.3971) scale(1.00312 0.996865) rotate(45)" fill="#E6EDF3"/>
<path d="M0 0.610955C0 0.273534 0.273534 0 0.610955 0H4.3065C4.64392 0 4.91745 0.273534 4.91745 0.610955V0.610955C4.91745 0.948375 4.64392 1.22191 4.3065 1.22191H0.610955C0.273534 1.22191 0 0.948375 0 0.610955V0.610955Z" transform="translate(34.2811 4.99747) scale(1.00237 0.997625) rotate(-45)" fill="#E6EDF3"/>
<path d="M0 0.610955C0 0.273534 0.273534 0 0.610955 0H4.3065C4.64392 0 4.91745 0.273534 4.91745 0.610955V0.610955C4.91745 0.948375 4.64392 1.22191 4.3065 1.22191H0.610955C0.273534 1.22191 0 0.948375 0 0.610955V0.610955Z" transform="translate(35.1553 1.52853) scale(1.00237 0.997625) rotate(45)" fill="#E6EDF3"/>
<path fill-rule="evenodd" clip-rule="evenodd" d="M5.4056 6.74057C6.20665 6.74057 6.8112 6.1024 6.8112 5.37029C6.8112 4.63817 6.20665 4 5.4056 4C4.60455 4 4 4.63817 4 5.37029C4 6.1024 4.60455 6.74057 5.4056 6.74057ZM5.4056 10.7406C8.39103 10.7406 10.8112 8.33621 10.8112 5.37029C10.8112 2.40436 8.39103 0 5.4056 0C2.42017 0 0 2.40436 0 5.37029C0 8.33621 2.42017 10.7406 5.4056 10.7406Z" transform="translate(51.7136)" fill="#E6EDF3"/>
<path d="M0 0H4.60005V4.60005H0V0Z" transform="translate(62.7372 22.488) scale(1.00312 0.996865) rotate(45)" fill="#E6EDF3"/>
<defs>
<linearGradient id="paint0_linear" x2="1" gradientUnits="userSpaceOnUse" gradientTransform="translate(-1.01132 38.512) scale(41.916 41.1378) rotate(-90)">
<stop stop-color="#EFF4F9"/>
<stop offset="1" stop-color="#B8C4CE"/>
</linearGradient>
</defs>
</svg>
