<svg width="78" height="59" viewBox="0 0 78 59" fill="none" xmlns="http://www.w3.org/2000/svg">
<path fill-rule="evenodd" clip-rule="evenodd" d="M40.7818 0H0V21.2159C0 22.3213 0.895011 23.2174 1.99911 23.2174H38.7827C39.8868 23.2174 40.7818 22.3213 40.7818 21.2159V0Z" transform="translate(14.2034 15.8668)" fill="url(#paint0_linear)"/>
<path d="M3.6589 0C1.63888 0 0 1.61358 0 3.60242C0 5.19255 1.04812 6.54346 2.5012 7.0219C2.687 7.05474 2.7537 6.94216 2.7537 6.84835C2.7537 6.75923 2.74894 6.47779 2.74894 6.17759C2.74894 6.17759 1.7294 6.39336 1.51501 5.75074C1.51501 5.75074 1.34827 5.33327 1.11006 5.22538C1.11006 5.22538 0.776563 5.00023 1.13388 5.00492C1.13388 5.00492 1.49596 5.03307 1.69605 5.37548C2.01525 5.92898 2.54884 5.7695 2.75847 5.67569C2.79182 5.44584 2.8871 5.28636 2.99191 5.19255C2.17724 5.10343 1.32445 4.79384 1.32445 3.41479C1.32445 3.02078 1.46737 2.70181 1.70082 2.44852C1.6627 2.35471 1.53883 1.98884 1.73893 1.49163C2.04384 1.39781 2.74418 1.86219 2.74418 1.86219C3.03479 1.78245 3.34923 1.74023 3.6589 1.74023C3.96857 1.74023 4.28301 1.78245 4.57363 1.86219C4.57363 1.86219 5.27396 1.39781 5.57887 1.49163C5.77897 1.98884 5.6551 2.35471 5.61698 2.44852C5.85043 2.70181 5.99335 3.02078 5.99335 3.41479C5.99335 4.79853 5.1358 5.10343 4.32112 5.19255C4.45452 5.30512 4.56886 5.52089 4.56886 5.85862C4.56886 6.34176 4.5641 6.73108 4.5641 6.84835C4.5641 6.94216 4.6308 7.05474 4.8166 7.0219C6.26968 6.54346 7.3178 5.19255 7.3178 3.60242C7.3178 1.61358 5.67892 0 3.6589 0ZM1.38638 5.17379C1.37685 5.19255 1.34827 5.19724 1.32445 5.18317C1.29586 5.1691 1.28157 5.14564 1.2911 5.12688C1.30062 5.11281 1.32445 5.10812 1.35303 5.1175C1.38162 5.13157 1.39591 5.15502 1.38638 5.17379ZM1.53407 5.33327C1.51501 5.35203 1.48166 5.34265 1.45784 5.3192C1.43402 5.29105 1.42926 5.25822 1.44831 5.24415C1.46737 5.22538 1.50072 5.23477 1.52454 5.25822C1.54836 5.28636 1.55313 5.3192 1.53407 5.33327ZM1.677 5.54435C1.65794 5.55842 1.61983 5.54435 1.596 5.51151C1.57218 5.47868 1.57218 5.44115 1.596 5.42708C1.61983 5.40832 1.65794 5.42239 1.677 5.45522C1.70082 5.48806 1.70082 5.52558 1.677 5.54435ZM1.87709 5.74135C1.85804 5.76481 1.81516 5.76012 1.78181 5.72728C1.74846 5.69914 1.73893 5.65692 1.76275 5.63816C1.78181 5.61471 1.82469 5.6194 1.85804 5.65223C1.88662 5.68038 1.89615 5.72259 1.87709 5.74135ZM2.14865 5.85862C2.13912 5.88677 2.09625 5.90084 2.05813 5.88676C2.01525 5.87738 1.98667 5.84455 1.9962 5.81641C2.00573 5.78826 2.0486 5.77419 2.08672 5.78357C2.12959 5.79764 2.15818 5.83048 2.14865 5.85862ZM2.4488 5.88207C2.4488 5.91022 2.41545 5.93367 2.37257 5.93367C2.32493 5.93836 2.29158 5.91491 2.29158 5.88207C2.29158 5.85393 2.32493 5.83048 2.3678 5.83048C2.41068 5.82579 2.4488 5.84924 2.4488 5.88207ZM2.72512 5.83517C2.72988 5.86331 2.7013 5.89146 2.65842 5.90084C2.61554 5.91022 2.57743 5.89146 2.57266 5.86331C2.5679 5.83048 2.59649 5.80233 2.63936 5.79295C2.68224 5.78826 2.72035 5.80702 2.72512 5.83517Z" transform="translate(16.2024 17.8683)" fill="#BFCBD6"/>
<path d="M0 0H24.3891V1.99232H0V0Z" transform="translate(26.9976 18.6689)" fill="white"/>
<path d="M1.99911 0C0.895011 0 0 1.05903 0 2.36541V5.2039H40.7818V2.36541C40.7818 1.05903 39.8868 0 38.7827 0H1.99911Z" transform="translate(14.2037 10.6629)" fill="#BFCBD6"/>
<path d="M1.59929 0.8006C1.59929 1.24276 1.24127 1.6012 0.799644 1.6012C0.358013 1.6012 0 1.24276 0 0.8006C0 0.358441 0.358013 0 0.799644 0C1.24127 0 1.59929 0.358441 1.59929 0.8006Z" transform="translate(16.2024 12.6644)" fill="white"/>
<path d="M1.59929 0.8006C1.59929 1.24276 1.24127 1.6012 0.799644 1.6012C0.358013 1.6012 0 1.24276 0 0.8006C0 0.358441 0.358013 0 0.799644 0C1.24127 0 1.59929 0.358441 1.59929 0.8006Z" transform="translate(19.001 12.6644)" fill="white"/>
<path d="M0 0H5.6808V0.942753H0V0Z" transform="translate(47.3413 12.8627)" fill="white"/>
<path d="M0 0H3.4716V0.942753H0V0Z" transform="translate(41.9761 12.8627)" fill="white"/>
<path d="M0 0H24.3891V1.99232H0V0Z" transform="translate(26.9976 23.7148)" fill="white"/>
<path d="M0 0H24.3891V1.99232H0V0Z" transform="translate(26.9976 28.7606)" fill="white"/>
<path d="M0 0H24.3891V1.99232H0V0Z" transform="translate(26.9976 33.8895)" fill="white"/>
<path fill-rule="evenodd" clip-rule="evenodd" d="M40.7818 0H0V21.2159C0 22.3213 0.895011 23.2174 1.99911 23.2174H38.7827C39.8868 23.2174 40.7818 22.3213 40.7818 21.2159V0Z" transform="translate(25.7985 27.8758)" fill="url(#paint1_linear)"/>
<path d="M3.6589 0C1.63888 0 0 1.61358 0 3.60242C0 5.19255 1.04812 6.54346 2.5012 7.0219C2.687 7.05474 2.7537 6.94216 2.7537 6.84835C2.7537 6.75923 2.74894 6.47779 2.74894 6.17759C2.74894 6.17759 1.7294 6.39336 1.51501 5.75074C1.51501 5.75074 1.34827 5.33327 1.11006 5.22538C1.11006 5.22538 0.776563 5.00023 1.13388 5.00492C1.13388 5.00492 1.49596 5.03307 1.69605 5.37548C2.01525 5.92898 2.54884 5.7695 2.75847 5.67569C2.79182 5.44584 2.8871 5.28636 2.99191 5.19255C2.17724 5.10343 1.32445 4.79384 1.32445 3.41479C1.32445 3.02078 1.46737 2.70181 1.70082 2.44852C1.6627 2.35471 1.53883 1.98884 1.73893 1.49163C2.04384 1.39781 2.74418 1.86219 2.74418 1.86219C3.03479 1.78245 3.34923 1.74023 3.6589 1.74023C3.96857 1.74023 4.28301 1.78245 4.57363 1.86219C4.57363 1.86219 5.27396 1.39781 5.57887 1.49163C5.77897 1.98884 5.6551 2.35471 5.61698 2.44852C5.85043 2.70181 5.99335 3.02078 5.99335 3.41479C5.99335 4.79853 5.1358 5.10343 4.32112 5.19255C4.45452 5.30512 4.56886 5.52089 4.56886 5.85862C4.56886 6.34176 4.5641 6.73108 4.5641 6.84835C4.5641 6.94216 4.6308 7.05474 4.8166 7.0219C6.26968 6.54346 7.3178 5.19255 7.3178 3.60242C7.3178 1.61358 5.67892 0 3.6589 0ZM1.38638 5.17379C1.37685 5.19255 1.34827 5.19724 1.32445 5.18317C1.29586 5.1691 1.28157 5.14564 1.2911 5.12688C1.30062 5.11281 1.32445 5.10812 1.35303 5.1175C1.38162 5.13157 1.39591 5.15502 1.38638 5.17379ZM1.53407 5.33327C1.51501 5.35203 1.48166 5.34265 1.45784 5.3192C1.43402 5.29105 1.42926 5.25822 1.44831 5.24415C1.46737 5.22538 1.50072 5.23477 1.52454 5.25822C1.54836 5.28636 1.55313 5.3192 1.53407 5.33327ZM1.677 5.54435C1.65794 5.55842 1.61983 5.54435 1.596 5.51151C1.57218 5.47868 1.57218 5.44115 1.596 5.42708C1.61983 5.40832 1.65794 5.42239 1.677 5.45522C1.70082 5.48806 1.70082 5.52558 1.677 5.54435ZM1.87709 5.74135C1.85804 5.76481 1.81516 5.76012 1.78181 5.72728C1.74846 5.69914 1.73893 5.65692 1.76275 5.63816C1.78181 5.61471 1.82469 5.6194 1.85804 5.65223C1.88662 5.68038 1.89615 5.72259 1.87709 5.74135ZM2.14865 5.85862C2.13912 5.88677 2.09625 5.90084 2.05813 5.88676C2.01525 5.87738 1.98667 5.84455 1.9962 5.81641C2.00573 5.78826 2.0486 5.77419 2.08672 5.78357C2.12959 5.79764 2.15818 5.83048 2.14865 5.85862ZM2.4488 5.88207C2.4488 5.91022 2.41545 5.93367 2.37257 5.93367C2.32493 5.93836 2.29158 5.91491 2.29158 5.88207C2.29158 5.85393 2.32493 5.83048 2.3678 5.83048C2.41068 5.82579 2.4488 5.84924 2.4488 5.88207ZM2.72512 5.83517C2.72988 5.86331 2.7013 5.89146 2.65842 5.90084C2.61554 5.91022 2.57743 5.89146 2.57266 5.86331C2.5679 5.83048 2.59649 5.80233 2.63936 5.79295C2.68224 5.78826 2.72035 5.80702 2.72512 5.83517Z" transform="translate(27.7975 29.8773)" fill="#BFCBD6"/>
<path d="M0 0H24.3891V1.99232H0V0Z" transform="translate(38.593 30.6779)" fill="white"/>
<path d="M1.99911 0C0.895011 0 0 1.05903 0 2.36541V5.2039H40.7818V2.36541C40.7818 1.05903 39.8868 0 38.7827 0H1.99911Z" transform="translate(25.7987 22.6719)" fill="#BFCBD6"/>
<path d="M1.59929 0.8006C1.59929 1.24276 1.24127 1.6012 0.799644 1.6012C0.358013 1.6012 0 1.24276 0 0.8006C0 0.358441 0.358013 0 0.799644 0C1.24127 0 1.59929 0.358441 1.59929 0.8006Z" transform="translate(27.7975 24.6734)" fill="white"/>
<path d="M1.59929 0.8006C1.59929 1.24276 1.24127 1.6012 0.799644 1.6012C0.358013 1.6012 0 1.24276 0 0.8006C0 0.358441 0.358013 0 0.799644 0C1.24127 0 1.59929 0.358441 1.59929 0.8006Z" transform="translate(30.5964 24.6734)" fill="white"/>
<path d="M0 0H5.6808V0.942753H0V0Z" transform="translate(58.9363 24.8717)" fill="white"/>
<path d="M0 0H3.4716V0.942753H0V0Z" transform="translate(53.5715 24.8717)" fill="white"/>
<path d="M0 0H24.3891V1.99232H0V0Z" transform="translate(38.593 35.7237)" fill="white"/>
<path d="M0 0H24.3891V1.99232H0V0Z" transform="translate(38.593 40.7695)" fill="white"/>
<path d="M0 0H24.3891V1.99232H0V0Z" transform="translate(38.593 45.8985)" fill="white"/>
<path d="M0 0.843676C0 0.377727 0.377727 0 0.843677 0H5.94691C6.41286 0 6.79059 0.377727 6.79059 0.843676V0.843676C6.79059 1.30963 6.41286 1.68735 5.94691 1.68735H0.843676C0.377727 1.68735 0 1.30963 0 0.843676V0.843676Z" transform="translate(3.49011 38.5843) scale(0.996521 1.00347) rotate(-45)" fill="#E6EDF3"/>
<path d="M0 0.843676C0 0.377727 0.377727 0 0.843677 0H5.94691C6.41286 0 6.79059 0.377727 6.79059 0.843676V0.843676C6.79059 1.30963 6.41286 1.68735 5.94691 1.68735H0.843676C0.377727 1.68735 0 1.30963 0 0.843676V0.843676Z" transform="translate(4.69006 33.766) scale(0.996521 1.00347) rotate(45)" fill="#E6EDF3"/>
<path fill-rule="evenodd" clip-rule="evenodd" d="M3.49112 3.28133C3.33733 3.28133 3.24538 3.40142 3.24538 3.5091C3.24538 3.61677 3.33733 3.73686 3.49112 3.73686C3.64491 3.73686 3.73686 3.61677 3.73686 3.5091C3.73686 3.40142 3.64491 3.28133 3.49112 3.28133ZM3.49112 7.01819C5.41921 7.01819 6.98224 5.44712 6.98224 3.5091C6.98224 1.57108 5.41921 0 3.49112 0C1.56303 0 0 1.57108 0 3.5091C0 5.44712 1.56303 7.01819 3.49112 7.01819Z" transform="translate(12.8114 51.9818)" fill="#E6EDF3"/>
<path d="M0 0H3.99672V3.99672H0V0Z" transform="translate(2.82483 46.2665) scale(0.999529 1.00047) rotate(45)" fill="#E6EDF3"/>
<path d="M0 0.530826C0 0.237659 0.237659 0 0.530826 0H3.74169C4.03486 0 4.27252 0.237659 4.27252 0.530826V0.530826C4.27252 0.823993 4.03486 1.06165 3.74169 1.06165H0.530826C0.237659 1.06165 0 0.823993 0 0.530826V0.530826Z" transform="translate(50.5402 4.3577) scale(0.998771 1.00123) rotate(-45)" fill="#E6EDF3"/>
<path d="M0 0.530826C0 0.237659 0.237659 0 0.530826 0H3.74169C4.03486 0 4.27252 0.237659 4.27252 0.530826V0.530826C4.27252 0.823993 4.03486 1.06165 3.74169 1.06165H0.530826C0.237659 1.06165 0 0.823993 0 0.530826V0.530826Z" transform="translate(51.2966 1.33286) scale(0.998771 1.00123) rotate(45)" fill="#E6EDF3"/>
<path fill-rule="evenodd" clip-rule="evenodd" d="M4.67978 5.62875C5.19826 5.62875 5.6227 5.20752 5.6227 4.68281C5.6227 4.1581 5.19826 3.73686 4.67978 3.73686C4.1613 3.73686 3.73686 4.1581 3.73686 4.68281C3.73686 5.20752 4.1613 5.62875 4.67978 5.62875ZM4.67978 9.36561C7.26435 9.36561 9.35956 7.26905 9.35956 4.68281C9.35956 2.09656 7.26435 0 4.67978 0C2.09521 0 0 2.09656 0 4.68281C0 7.26905 2.09521 9.36561 4.67978 9.36561Z" transform="translate(65.632)" fill="#E6EDF3"/>
<path d="M0 0H3.99672V3.99672H0V0Z" transform="translate(75.1752 19.6092) scale(0.999529 1.00047) rotate(45)" fill="#E6EDF3"/>
<defs>
<linearGradient id="paint0_linear" x2="1" gradientUnits="userSpaceOnUse" gradientTransform="translate(-1.19602 26.4198) scale(49.571 28.2211) rotate(-90)">
<stop stop-color="#EFF4F9"/>
<stop offset="1" stop-color="#DAE3EB"/>
</linearGradient>
<linearGradient id="paint1_linear" x2="1" gradientUnits="userSpaceOnUse" gradientTransform="translate(-1.19602 26.4198) scale(49.571 28.2211) rotate(-90)">
<stop stop-color="#EFF4F9"/>
<stop offset="1" stop-color="#DAE3EB"/>
</linearGradient>
</defs>
</svg>
