<svg width="3989" height="1156" viewBox="0 0 3989 1156" fill="none" xmlns="http://www.w3.org/2000/svg">
<g clip-path="url(#clip0)">
<path d="M2687.06 40.9597C2643.25 60.679 2599.44 80.3987 2555.5 81.838C2465.9 84.7727 2416.72 73.0313 2365.43 60.7857C2319.2 49.7511 2271.27 38.307 2190.5 36.8227C2111.42 35.3695 2053.68 57.326 1995.87 79.3131C1938.48 101.139 1879.8 124.327 1802.5 122.013C1724.53 119.679 1640.13 56.6831 1531.5 59C1431.97 61.1227 1361.75 118.307 1284.5 122.013C1207.25 125.719 1148.52 101.139 1091.13 79.3131C1033.32 57.326 975.581 35.3695 896.5 36.8227C815.731 38.307 767.795 49.7511 721.574 60.7857C670.28 73.0313 621.098 84.7727 531.5 81.838C487.557 80.3987 443.747 60.679 399.938 40.9597C353.344 19.9871 306.752 -0.985139 260 0.0358263C171.037 1.97861 74.7047 31.7884 0 80.4176L4 646.711H4679L4675 112.569C4660.65 113.82 4572.42 121.351 4519.5 122.013C4440.99 122.994 4383.52 101.139 4326.13 79.3131C4268.32 57.326 4210.58 35.3695 4131.5 36.8227C4050.73 38.307 4002.8 49.7511 3956.57 60.7857C3905.28 73.0313 3856.1 84.7727 3766.5 81.838C3722.56 80.3987 3678.75 60.679 3634.94 40.9597C3588.34 19.9871 3541.75 -0.985139 3495 0.0358263C3359.5 0.0358263 3296.8 78.7721 3160.5 78.6603C3024.57 78.5489 2938.5 2.47077 2827 0.0358263C2780.25 -0.985139 2733.66 19.9871 2687.06 40.9597Z" transform="translate(-403 515)" fill="white" fill-opacity="0.1"/>
<path d="M2555.5 81.838L2555.58 84.3367L2555.58 84.3367L2555.5 81.838ZM2687.06 40.9597L2686.04 38.68L2686.04 38.68L2687.06 40.9597ZM2365.43 60.7857L2366.01 58.354L2366.01 58.354L2365.43 60.7857ZM2190.5 36.8227L2190.45 39.3223L2190.5 36.8227ZM1995.87 79.3131L1994.98 76.9764L1994.98 76.9764L1995.87 79.3131ZM1802.5 122.013L1802.57 119.514L1802.57 119.514L1802.5 122.013ZM1531.5 59L1531.45 56.5006L1531.5 59ZM2827 0.0358263L2826.95 2.53523L2826.95 2.53523L2827 0.0358263ZM3766.5 81.838L3766.42 84.3367L3766.42 84.3367L3766.5 81.838ZM3634.94 40.9597L3635.96 38.68L3635.96 38.68L3634.94 40.9597ZM3956.57 60.7857L3955.99 58.354L3955.99 58.354L3956.57 60.7857ZM4131.5 36.8227L4131.55 39.3223L4131.55 39.3223L4131.5 36.8227ZM4326.13 79.3131L4325.24 81.6498L4325.24 81.6498L4326.13 79.3131ZM4519.5 122.013L4519.47 119.513L4519.47 119.513L4519.5 122.013ZM4675 112.569L4677.5 112.55L4677.48 109.843L4674.78 110.078L4675 112.569ZM4679 646.711V649.211H4681.52L4681.5 646.692L4679 646.711ZM3495 0.0358263V2.53583H3495.03L3495.05 2.53523L3495 0.0358263ZM531.5 81.838L531.418 84.3367L531.418 84.3367L531.5 81.838ZM399.938 40.9597L400.964 38.68L400.964 38.68L399.938 40.9597ZM721.574 60.7857L722.155 63.2173L722.155 63.2173L721.574 60.7857ZM896.5 36.8227L896.546 39.3223L896.546 39.3223L896.5 36.8227ZM1091.13 79.3131L1090.24 81.6498L1090.24 81.6498L1091.13 79.3131ZM4 646.711L1.50006 646.728L1.5176 649.211H4V646.711ZM0 80.4176L-1.36387 78.3224L-2.50959 79.0682L-2.49994 80.4353L0 80.4176ZM260 0.0358263L260.055 2.53523L260.055 2.53523L260 0.0358263ZM3160.5 78.6603L3160.5 81.1603L3160.5 78.6603ZM2555.58 84.3367C2600.11 82.8781 2644.39 62.9079 2688.09 43.2394L2686.04 38.68C2642.11 58.4502 2598.77 77.9193 2555.42 79.3394L2555.58 84.3367ZM2364.85 63.2173C2416.23 75.4835 2465.66 87.2821 2555.58 84.3367L2555.42 79.3394C2466.15 82.2634 2417.21 70.5792 2366.01 58.354L2364.85 63.2173ZM2190.45 39.3223C2270.95 40.8016 2318.68 52.1968 2364.85 63.2173L2366.01 58.354C2319.73 47.3053 2271.58 35.8124 2190.55 34.3231L2190.45 39.3223ZM1996.76 81.6498C2054.57 59.6639 2111.9 37.8788 2190.45 39.3223L2190.55 34.3231C2110.94 32.8602 2052.8 54.988 1994.98 76.9764L1996.76 81.6498ZM1802.43 124.512C1880.29 126.842 1939.4 103.461 1996.76 81.6498L1994.98 76.9764C1937.55 98.8163 1879.31 121.811 1802.57 119.514L1802.43 124.512ZM1531.55 61.4994C1585.38 60.3514 1633.27 75.3799 1677.66 91.1189C1721.87 106.795 1762.94 123.33 1802.43 124.512L1802.57 119.514C1764.09 118.362 1723.97 102.233 1679.33 86.4063C1634.87 70.643 1586.25 55.3318 1531.45 56.5006L1531.55 61.4994ZM2688.09 43.2394C2734.81 22.2074 2780.87 1.52894 2826.95 2.53523L2827.05 -2.46358C2779.63 -3.49922 2732.5 17.7668 2686.04 38.68L2688.09 43.2394ZM3766.58 79.3394C3723.23 77.9193 3679.89 58.4502 3635.96 38.68L3633.91 43.2394C3677.61 62.9079 3721.89 82.8781 3766.42 84.3367L3766.58 79.3394ZM3955.99 58.354C3904.79 70.5792 3855.85 82.2634 3766.58 79.3394L3766.42 84.3367C3856.34 87.2821 3905.77 75.4835 3957.15 63.2173L3955.99 58.354ZM4131.45 34.3231C4050.42 35.8124 4002.27 47.3053 3955.99 58.354L3957.15 63.2173C4003.32 52.1968 4051.05 40.8016 4131.55 39.3223L4131.45 34.3231ZM4327.02 76.9764C4269.2 54.988 4211.06 32.8602 4131.45 34.3231L4131.55 39.3223C4210.1 37.8788 4267.43 59.6639 4325.24 81.6498L4327.02 76.9764ZM4519.47 119.513C4441.48 120.488 4384.41 98.8008 4327.02 76.9764L4325.24 81.6498C4382.64 103.476 4440.5 125.501 4519.53 124.513L4519.47 119.513ZM4674.78 110.078C4660.41 111.332 4572.28 118.853 4519.47 119.513L4519.53 124.513C4572.57 123.85 4660.89 116.309 4675.22 115.059L4674.78 110.078ZM4681.5 646.692L4677.5 112.55L4672.5 112.587L4676.5 646.73L4681.5 646.692ZM3635.96 38.68C3589.5 17.7668 3542.37 -3.49922 3494.95 -2.46358L3495.05 2.53523C3541.13 1.52894 3587.19 22.2074 3633.91 43.2394L3635.96 38.68ZM531.582 79.3394C488.225 77.9193 444.886 58.4502 400.964 38.68L398.912 43.2394C442.608 62.9079 486.888 82.8781 531.418 84.3367L531.582 79.3394ZM720.994 58.354C669.785 70.5792 620.854 82.2634 531.582 79.3394L531.418 84.3367C621.343 87.2821 670.775 75.4835 722.155 63.2173L720.994 58.354ZM896.454 34.3231C815.416 35.8124 767.274 47.3053 720.994 58.354L722.155 63.2173C768.317 52.1968 816.047 40.8016 896.546 39.3223L896.454 34.3231ZM1092.02 76.9764C1034.2 54.988 976.065 32.8602 896.454 34.3231L896.546 39.3223C975.098 37.8788 1032.43 59.6639 1090.24 81.6498L1092.02 76.9764ZM1284.38 119.516C1207.74 123.193 1149.5 98.835 1092.02 76.9764L1090.24 81.6498C1147.55 103.442 1206.77 128.245 1284.62 124.51L1284.38 119.516ZM6.49994 646.693L2.49994 80.4L-2.49994 80.4353L1.50006 646.728L6.49994 646.693ZM259.946 -2.46358C170.515 -0.510596 73.7297 29.4401 -1.36387 78.3224L1.36387 82.5128C75.6797 34.1368 171.559 4.46781 260.055 2.53523L259.946 -2.46358ZM400.964 38.68C354.502 17.7668 307.369 -3.49922 259.946 -2.46358L260.055 2.53523C306.134 1.52894 352.186 22.2074 398.912 43.2394L400.964 38.68ZM4679 644.211H4V649.211H4679V644.211ZM1531.45 56.5006C1481.22 57.5718 1438.43 72.5417 1398.76 87.5749C1358.95 102.657 1322.51 117.686 1284.38 119.516L1284.62 124.51C1323.73 122.634 1361.03 107.217 1400.53 92.2505C1440.16 77.2344 1482.25 62.5509 1531.55 61.4994L1531.45 56.5006ZM3160.5 81.1603C3229.17 81.2166 3279.32 61.3859 3328.97 41.7142C3378.62 22.0436 3427.77 2.53583 3495 2.53583V-2.46417C3426.73 -2.46417 3376.78 17.3962 3327.13 37.0658C3277.48 56.7343 3228.13 76.2158 3160.5 76.1603L3160.5 81.1603ZM2826.95 2.53523C2882.19 3.74169 2931.16 23.1828 2983.73 42.565C3036.2 61.9124 3092.06 81.1042 3160.5 81.1603L3160.5 76.1603C3093.02 76.105 3037.88 57.202 2985.45 37.8737C2933.13 18.5803 2883.31 -1.23509 2827.05 -2.46358L2826.95 2.53523Z" transform="translate(-403 515)" fill="white" fill-opacity="0.1"/>
</g>
<defs>
<clipPath id="clip0">
<rect width="3989" height="1156" fill="white"/>
</clipPath>
</defs>
</svg>
