<svg width="66" height="59" viewBox="0 0 66 59" fill="none" xmlns="http://www.w3.org/2000/svg">
<path d="M0 0.971015C0 0.434738 0.434738 0 0.971015 0H6.84449C7.38077 0 7.81551 0.434738 7.81551 0.971015V0.971015C7.81551 1.50729 7.38077 1.94203 6.84449 1.94203H0.971015C0.434738 1.94203 0 1.50729 0 0.971015V0.971015Z" transform="translate(4.03101 35.5869) scale(1.00013 0.999873) rotate(-45)" fill="#E6EDF3"/>
<path d="M0 0.971015C0 0.434738 0.434738 0 0.971015 0H6.84449C7.38077 0 7.81551 0.434738 7.81551 0.971015V0.971015C7.81551 1.50729 7.38077 1.94203 6.84449 1.94203H0.971015C0.434738 1.94203 0 1.50729 0 0.971015V0.971015Z" transform="translate(5.41675 30.0615) scale(1.00013 0.999873) rotate(45)" fill="#E6EDF3"/>
<path fill-rule="evenodd" clip-rule="evenodd" d="M4.06492 4.03062C4.06504 4.0294 4.06517 4.02733 4.06517 4.02427C4.06517 4.0212 4.06504 4.01913 4.06492 4.01791C4.06408 4.01651 4.06215 4.01362 4.05855 4.01003C4.05306 4.00455 4.04834 4.00208 4.04677 4.00142L4.04498 4.00088C4.04436 4.00075 4.04066 4 4.03259 4C4.02452 4 4.02081 4.00075 4.02019 4.00088L4.0184 4.00142C4.01683 4.00208 4.01211 4.00455 4.00662 4.01003C4.00302 4.01362 4.00109 4.01651 4.00025 4.01791C4.00013 4.01913 4 4.0212 4 4.02427C4 4.02733 4.00013 4.0294 4.00025 4.03062C4.00109 4.03202 4.00302 4.03491 4.00662 4.03851C4.01211 4.04398 4.01683 4.04645 4.0184 4.04712L4.02019 4.04766C4.02081 4.04778 4.02452 4.04853 4.03259 4.04853C4.04066 4.04853 4.04436 4.04778 4.04498 4.04766L4.04677 4.04712C4.04834 4.04645 4.05306 4.04398 4.05855 4.03851C4.06215 4.03491 4.06408 4.03202 4.06492 4.03062ZM4.00043 4.032C4.00043 4.032 4.00042 4.03194 4.0004 4.0318ZM4.06474 4.01653C4.06474 4.01653 4.06475 4.0166 4.06477 4.01673ZM4.03259 8.04853C6.25972 8.04853 8.06517 6.24681 8.06517 4.02427C8.06517 1.80173 6.25972 0 4.03259 0C1.80545 0 0 1.80173 0 4.02427C0 6.24681 1.80545 8.04853 4.03259 8.04853Z" transform="translate(14.798 50.9515)" fill="#E6EDF3"/>
<path d="M0 2.30003C0 1.02976 1.02976 0 2.30003 0V0C3.5703 0 4.60005 1.02976 4.60005 2.30003V2.30003C4.60005 3.5703 3.5703 4.60005 2.30003 4.60005V4.60005C1.02976 4.60005 0 3.5703 0 2.30003V2.30003Z" transform="translate(3.26288 44.3972) scale(1.00313 0.996865) rotate(45)" fill="#E6EDF3"/>
<path fill-rule="evenodd" clip-rule="evenodd" d="M5.4056 6.74058C6.20666 6.74058 6.81121 6.1024 6.81121 5.37029C6.81121 4.63818 6.20666 4 5.4056 4C4.60455 4 4 4.63818 4 5.37029C4 6.1024 4.60455 6.74058 5.4056 6.74058ZM5.4056 10.7406C8.39104 10.7406 10.8112 8.33622 10.8112 5.37029C10.8112 2.40436 8.39104 0 5.4056 0C2.42017 0 0 2.40436 0 5.37029C0 8.33622 2.42017 10.7406 5.4056 10.7406Z" transform="translate(51.7137)" fill="#E6EDF3"/>
<path d="M0 2.30003C0 1.02976 1.02976 0 2.30003 0V0C3.5703 0 4.60005 1.02976 4.60005 2.30003V2.30003C4.60005 3.5703 3.5703 4.60005 2.30003 4.60005V4.60005C1.02976 4.60005 0 3.5703 0 2.30003V2.30003Z" transform="translate(62.737 22.4882) scale(1.00313 0.996865) rotate(45)" fill="#E6EDF3"/>
<path d="M7.875 0C7.15018 0 6.5625 0.588477 6.5625 1.31429V1.31429C6.5625 2.38773 7.6774 3.4904 7.58035 4.55945L6.85806 12.5157C6.6785 14.4936 5.34542 16.1777 3.46161 16.8065L2.80735 17.0248C2.68583 17.0654 2.56335 17.1006 2.44143 17.14C1.84499 17.3325 0 18.0615 0 19.7143V43.3714C0 44.8232 1.17535 46 2.625 46H18.375C19.8246 46 21 44.8232 21 43.3714V19.7143C21 18.0615 19.155 17.3325 18.5586 17.14C18.4366 17.1006 18.3142 17.0654 18.1926 17.0248L17.5384 16.8065C15.6546 16.1777 14.3215 14.4936 14.1419 12.5157L13.4197 4.55945C13.3226 3.4904 14.4375 2.38773 14.4375 1.31429V1.31429C14.4375 0.588477 13.8498 0 13.125 0H7.875Z" transform="translate(24 2)" fill="#E6EDF3"/>
<path d="M0 6.33137V19.9344C0 21.0752 0.839539 22 1.875 22H13.125C14.1605 22 15 21.0752 15 19.9344V3.79094C15 2.24696 14.3444 0.624485 12.8758 0.14789C12.7478 0.10635 12.6217 0.073643 12.5 0.0526941C10.3466 -0.317982 9.375 1.34366 7.5 2.63473C5.625 3.9258 4.3458 3.98477 2.5 3.28024C2.41076 3.24618 2.32024 3.22135 2.22918 3.20452C0.734121 2.92823 0 4.811 0 6.33137Z" transform="translate(27 23)" fill="url(#paint0_linear)"/>
<path d="M1.54688 0.776316C1.54688 1.20506 1.2006 1.55263 0.773438 1.55263C0.34628 1.55263 0 1.20506 0 0.776316C0 0.347568 0.34628 0 0.773438 0C1.2006 0 1.54688 0.347568 1.54688 0.776316Z" transform="translate(36 20)" fill="#BDC8D2"/>
<path d="M1 0.5C1 0.776142 0.776142 1 0.5 1C0.223858 1 0 0.776142 0 0.5C0 0.223858 0.223858 0 0.5 0C0.776142 0 1 0.223858 1 0.5Z" transform="translate(33 16)" fill="#BDC8D2"/>
<path d="M2.57813 1.29386C2.57813 2.00844 2.00099 2.58772 1.28906 2.58772C0.577133 2.58772 0 2.00844 0 1.29386C0 0.579281 0.577133 0 1.28906 0C2.00099 0 2.57813 0.579281 2.57813 1.29386Z" transform="translate(30 22.5526)" fill="#BDC8D2"/>
<defs>
<linearGradient id="paint0_linear" x2="1" gradientUnits="userSpaceOnUse" gradientTransform="translate(-0.439908 25.0345) scale(18.2328 26.7414) rotate(-90)">
<stop stop-color="#EFF4F9"/>
<stop offset="1" stop-color="#B8C4CE"/>
</linearGradient>
</defs>
</svg>
