<svg width="95" height="85" viewBox="0 0 95 85" fill="none" xmlns="http://www.w3.org/2000/svg">
<path d="M0.0227964 2.55318C-0.168826 1.20563 0.872008 0 2.22698 0H32.7376C34.0856 0 35.1244 1.19387 34.9442 2.53593L29.2364 45.0359C29.0874 46.1457 28.1445 46.9737 27.0298 46.9737H8.27051C7.16246 46.9737 6.22303 46.1552 6.06633 45.0532L0.0227964 2.55318Z" transform="translate(29.6875 21.6228)" fill="#FFE9DE"/>
<path d="M20.4637 34.2423L24.462 4.55976C24.5882 3.62245 25.2184 0.178957 25.2184 0.178957C25.2184 0.178957 25.9608 -0.939505 20.0231 2.41583C14.0855 5.77117 8.89031 6.51668 3.32379 5.7711C0.601074 5.47188 0 4.57181 0 4.57181L4.23341 34.2543C4.34318 35.024 5.00124 35.5957 5.77741 35.5957H18.9181C19.6989 35.5957 20.3593 35.0173 20.4637 34.2423Z" transform="translate(34.8989 30.0184)" fill="url(#paint0_linear)"/>
<path d="M0 1.3983C0 0.626039 0.626038 0 1.3983 0H9.85631C10.6286 0 11.2546 0.626039 11.2546 1.3983V1.3983C11.2546 2.17055 10.6286 2.79659 9.85631 2.79659H1.3983C0.626038 2.79659 0 2.17055 0 1.3983V1.3983Z" transform="translate(5.80255 51.2693) scale(0.999681 1.00032) rotate(-45)" fill="#FFE9DE"/>
<path d="M0 1.3983C0 0.626039 0.626038 0 1.3983 0H9.85631C10.6286 0 11.2546 0.626039 11.2546 1.3983V1.3983C11.2546 2.17055 10.6286 2.79659 9.85631 2.79659H1.3983C0.626038 2.79659 0 2.17055 0 1.3983V1.3983Z" transform="translate(7.79718 43.3089) scale(0.999544 1.00046) rotate(45)" fill="#FFE9DE"/>
<path fill-rule="evenodd" clip-rule="evenodd" d="M5.80448 7.59645C6.80445 7.59645 7.60896 6.78772 7.60896 5.79767C7.60896 4.80762 6.80445 3.9989 5.80448 3.9989C4.80451 3.9989 4 4.80762 4 5.79767C4 6.78772 4.80451 7.59645 5.80448 7.59645ZM5.80448 11.5953C9.0102 11.5953 11.609 8.99964 11.609 5.79767C11.609 2.59571 9.0102 0 5.80448 0C2.59875 0 0 2.59571 0 5.79767C0 8.99964 2.59875 11.5953 5.80448 11.5953Z" transform="translate(21.3002 73.4047)" fill="#FFE9DE"/>
<path d="M2.22656 1.11873C2.22656 1.73659 1.72813 2.23746 1.11328 2.23746C0.498433 2.23746 0 1.73659 0 1.11873C0 0.500872 0.498433 0 1.11328 0C1.72813 0 2.22656 0.500872 2.22656 1.11873Z" transform="translate(50.4688 27.5878)" fill="#F19E75"/>
<path d="M1.48438 0.745819C1.48438 1.15772 1.15209 1.49164 0.742188 1.49164C0.332289 1.49164 0 1.15772 0 0.745819C0 0.333915 0.332289 0 0.742188 0C1.15209 0 1.48438 0.333915 1.48438 0.745819Z" transform="translate(45.2734 26.6047)" fill="#F19E75"/>
<path d="M3.71094 1.86404C3.71094 2.89351 2.88022 3.72807 1.85547 3.72807C0.830722 3.72807 0 2.89351 0 1.86404C0 0.834557 0.830722 0 1.85547 0C2.88022 0 3.71094 0.834557 3.71094 1.86404Z" transform="translate(39.0781 29.8245)" fill="#F19E75"/>
<path d="M0 0H6.62513V6.62513H0V0Z" transform="translate(4.69666 63.962) scale(1.00268 0.997312) rotate(45)" fill="#FFE9DE"/>
<path d="M0 0.879916C0 0.393952 0.393952 0 0.879916 0H6.20236C6.68832 0 7.08227 0.393952 7.08227 0.879916V0.879916C7.08227 1.36588 6.68832 1.75983 6.20236 1.75983H0.879916C0.393952 1.75983 0 1.36588 0 0.879916V0.879916Z" transform="translate(49.3438 7.19977) scale(1.00192 0.998072) rotate(-45)" fill="#FFE9DE"/>
<path d="M0 0.879916C0 0.393952 0.393952 0 0.879916 0H6.20236C6.68832 0 7.08227 0.393952 7.08227 0.879916V0.879916C7.08227 1.36588 6.68832 1.75983 6.20236 1.75983H0.879916C0.393952 1.75983 0 1.36588 0 0.879916V0.879916Z" transform="translate(50.6022 2.20294) scale(1.00179 0.99821) rotate(45)" fill="#FFE9DE"/>
<path fill-rule="evenodd" clip-rule="evenodd" d="M7.78079 11.4748C9.88921 11.4748 11.5616 9.78099 11.5616 7.73686C11.5616 5.69272 9.88921 3.9989 7.78079 3.9989C5.67238 3.9989 4 5.69272 4 7.73686C4 9.78099 5.67238 11.4748 7.78079 11.4748ZM7.78079 15.4737C12.078 15.4737 15.5616 12.0098 15.5616 7.73686C15.5616 3.46391 12.078 0 7.78079 0C3.48358 0 0 3.46391 0 7.73686C0 12.0098 3.48358 15.4737 7.78079 15.4737Z" transform="translate(74.4364)" fill="#FFE9DE"/>
<path d="M0 0H6.62513V6.62513H0V0Z" transform="translate(90.3034 32.3982) scale(1.00268 0.997312) rotate(45)" fill="#FFE9DE"/>
<defs>
<linearGradient id="paint0_linear" x2="1" gradientUnits="userSpaceOnUse" gradientTransform="matrix(1.38778 -62.3077 44.9873 1.97838 -9.46535 58.5568)">
<stop stop-color="#FFF7F2"/>
<stop offset="1" stop-color="#EF9568"/>
</linearGradient>
</defs>
</svg>
