<svg width="3989" height="1156" viewBox="0 0 3989 1156" fill="none" xmlns="http://www.w3.org/2000/svg">
<g clip-path="url(#clip0)">
<path d="M1647 180.246C1727.5 145.492 1833.97 70.4451 1953.5 67.8349C2001.29 66.7913 2036.42 75.9637 2072.22 85.3122C2104.39 93.7091 2137.09 102.248 2180 103.654C2267.61 106.523 2328.48 79.8684 2390.12 52.8744C2448.34 27.3838 2507.24 1.59071 2590 0.0698488C2669.1 -1.38373 2729.11 20.095 2789.2 41.6011C2848.82 62.9397 2908.51 84.3053 2987 83.324C3065.49 84.3053 3125.18 62.9397 3184.8 41.6011C3244.89 20.095 3304.9 -1.38373 3384 0.0698488C3466.76 1.59071 3525.66 27.3838 3583.88 52.8744C3645.52 79.8684 3706.39 106.523 3794 103.654C3836.91 102.248 3869.61 93.7091 3901.78 85.3122C3937.58 75.9637 3972.71 66.7913 4020.5 67.8349C4140.03 70.4451 4303 165.815 4327 180.246L4328 1128.28H1L0 74.8114C30.137 78.744 68.8617 82.9473 99 83.324C177.49 84.3053 237.185 62.9397 296.804 41.6011C356.891 20.095 416.901 -1.38373 496 0.0698488C578.76 1.59071 637.664 27.3838 695.876 52.8744C757.522 79.8684 818.393 106.523 906 103.654C948.909 102.248 981.614 93.7091 1013.78 85.3122C1049.58 75.9637 1084.71 66.7913 1132.5 67.8349C1252.03 70.4451 1350.5 145.492 1439 180.246C1527.5 215 1566.5 215 1647 180.246Z" transform="translate(-339 97)" fill="white" fill-opacity="0.1"/>
<path d="M1953.5 67.8349L1953.55 70.3343L1953.55 70.3343L1953.5 67.8349ZM2072.22 85.3122L2072.86 82.8933L2072.86 82.8933L2072.22 85.3122ZM2180 103.654L2180.08 101.155L2180.08 101.155L2180 103.654ZM2390.12 52.8744L2389.12 50.5843L2389.12 50.5843L2390.12 52.8744ZM2590 0.0698488L2590.05 2.56943L2590.05 2.56943L2590 0.0698488ZM2789.2 41.6011L2788.35 43.9549L2788.35 43.9549L2789.2 41.6011ZM2987 83.324L2987.03 80.8242L2987 80.8238L2986.97 80.8242L2987 83.324ZM4327 180.246L4329.5 180.243L4329.5 178.831L4328.29 178.103L4327 180.246ZM4328 1128.28V1130.78H4330.5L4330.5 1128.27L4328 1128.28ZM4020.5 67.8349L4020.45 70.3343L4020.45 70.3343L4020.5 67.8349ZM3901.78 85.3122L3901.14 82.8933L3901.14 82.8933L3901.78 85.3122ZM3794 103.654L3793.92 101.155L3793.92 101.155L3794 103.654ZM3583.88 52.8744L3584.88 50.5843L3584.88 50.5843L3583.88 52.8744ZM3384 0.0698488L3383.95 2.56943L3383.95 2.56943L3384 0.0698488ZM3184.8 41.6011L3185.65 43.9549L3185.65 43.9549L3184.8 41.6011ZM1132.5 67.8349L1132.45 70.3343L1132.45 70.3343L1132.5 67.8349ZM1013.78 85.3122L1014.41 87.7311L1014.41 87.7311L1013.78 85.3122ZM906 103.654L905.918 101.155L905.918 101.155L906 103.654ZM695.876 52.8744L696.879 50.5843L696.879 50.5843L695.876 52.8744ZM496 0.0698488L495.954 2.56943L495.954 2.56943L496 0.0698488ZM296.804 41.6011L295.961 39.2473L295.961 39.2473L296.804 41.6011ZM99 83.324L98.9687 85.8238L98.9687 85.8238L99 83.324ZM0 74.8114L0.323485 72.3324L-2.5027 71.9636L-2.5 74.8138L0 74.8114ZM1 1128.28L-1.5 1128.28L-1.49763 1130.78H1V1128.28ZM1953.45 65.3355C1893.19 66.6514 1836.33 86.2206 1784.58 109.71C1758.7 121.457 1734.06 134.207 1710.9 146.165C1687.71 158.139 1666.04 169.303 1646.01 177.951L1647.99 182.541C1668.21 173.812 1690.04 162.562 1713.19 150.608C1736.37 138.64 1760.9 125.949 1786.65 114.263C1838.14 90.8879 1894.28 71.6287 1953.55 70.3343L1953.45 65.3355ZM2072.86 82.8933C2037.04 73.542 2001.61 64.2836 1953.45 65.3355L1953.55 70.3343C2000.96 69.299 2035.8 78.3854 2071.59 87.7311L2072.86 82.8933ZM2180.08 101.155C2137.48 99.7595 2105.01 91.2891 2072.86 82.8933L2071.59 87.7311C2103.76 96.1292 2136.7 104.737 2179.92 106.152L2180.08 101.155ZM2389.12 50.5843C2327.49 77.5733 2267.07 104.004 2180.08 101.155L2179.92 106.152C2268.14 109.042 2329.47 82.1634 2391.13 55.1644L2389.12 50.5843ZM2589.95 -2.42973C2506.65 -0.898847 2447.34 25.091 2389.12 50.5843L2391.13 55.1644C2449.33 29.6767 2507.83 4.08026 2590.05 2.56943L2589.95 -2.42973ZM2790.04 39.2473C2729.96 17.7436 2669.56 -3.8926 2589.95 -2.42973L2590.05 2.56943C2668.64 1.12515 2728.26 22.4463 2788.35 43.9549L2790.04 39.2473ZM2986.97 80.8242C2908.98 81.7992 2849.66 60.5884 2790.04 39.2473L2788.35 43.9549C2847.97 65.2909 2908.04 86.8113 2987.03 85.8238L2986.97 80.8242ZM4324.5 180.249L4325.5 1128.28L4330.5 1128.27L4329.5 180.243L4324.5 180.249ZM4020.45 70.3343C4079.69 71.6281 4149.94 95.9484 4208.56 121.894C4267.11 147.808 4313.76 175.201 4325.71 182.388L4328.29 178.103C4316.24 170.86 4269.4 143.353 4210.58 117.322C4151.84 91.3218 4080.84 66.6519 4020.55 65.3355L4020.45 70.3343ZM3902.41 87.7311C3938.2 78.3854 3973.04 69.299 4020.45 70.3343L4020.55 65.3355C3972.39 64.2836 3936.96 73.542 3901.14 82.8933L3902.41 87.7311ZM3794.08 106.152C3837.3 104.737 3870.24 96.1292 3902.41 87.7311L3901.14 82.8933C3868.99 91.2891 3836.52 99.7595 3793.92 101.155L3794.08 106.152ZM3582.87 55.1644C3644.53 82.1634 3705.86 109.042 3794.08 106.152L3793.92 101.155C3706.93 104.004 3646.51 77.5733 3584.88 50.5843L3582.87 55.1644ZM3383.95 2.56943C3466.17 4.08026 3524.67 29.6767 3582.87 55.1644L3584.88 50.5843C3526.66 25.091 3467.35 -0.898847 3384.05 -2.42973L3383.95 2.56943ZM3185.65 43.9549C3245.74 22.4463 3305.36 1.12515 3383.95 2.56943L3384.05 -2.42973C3304.44 -3.8926 3244.04 17.7436 3183.96 39.2473L3185.65 43.9549ZM2986.97 85.8238C3065.96 86.8113 3126.03 65.2909 3185.65 43.9549L3183.96 39.2473C3124.34 60.5884 3065.02 81.7992 2987.03 80.8242L2986.97 85.8238ZM1132.45 70.3343C1191.7 71.6284 1245.84 90.8798 1296.33 114.255C1321.59 125.946 1345.87 138.635 1369.45 150.616C1393 162.581 1415.84 173.836 1438.09 182.573L1439.91 177.919C1417.91 169.278 1395.26 158.12 1371.71 146.158C1348.2 134.212 1323.8 121.459 1298.44 109.718C1247.69 86.2287 1192.82 66.6516 1132.55 65.3355L1132.45 70.3343ZM1014.41 87.7311C1050.2 78.3854 1085.04 69.299 1132.45 70.3343L1132.55 65.3355C1084.39 64.2836 1048.96 73.542 1013.14 82.8933L1014.41 87.7311ZM906.082 106.152C949.297 104.737 982.242 96.1292 1014.41 87.7311L1013.14 82.8933C980.987 91.2891 948.521 99.7595 905.918 101.155L906.082 106.152ZM694.873 55.1644C756.53 82.1634 817.859 109.042 906.082 106.152L905.918 101.155C818.926 104.004 758.513 77.5733 696.879 50.5843L694.873 55.1644ZM495.954 2.56943C578.169 4.08026 636.667 29.6767 694.873 55.1644L696.879 50.5843C638.66 25.091 579.352 -0.898847 496.046 -2.42973L495.954 2.56943ZM297.646 43.9549C357.74 22.4463 417.361 1.12515 495.954 2.56943L496.046 -2.42973C416.441 -3.8926 356.042 17.7436 295.961 39.2473L297.646 43.9549ZM98.9687 85.8238C177.957 86.8113 238.034 65.2909 297.646 43.9549L295.961 39.2473C236.335 60.5884 177.024 81.7992 99.0313 80.8242L98.9687 85.8238ZM-0.323485 77.2904C29.8287 81.225 68.6753 85.4451 98.9687 85.8238L99.0313 80.8242C69.0481 80.4494 30.4452 76.263 0.323485 72.3324L-0.323485 77.2904ZM3.5 1128.27L2.5 74.809L-2.5 74.8138L-1.5 1128.28L3.5 1128.27ZM1438.09 182.573C1482.42 199.981 1514.65 208.811 1546 208.811C1577.38 208.811 1607.63 199.968 1647.99 182.541L1646.01 177.951C1605.87 195.278 1576.37 203.811 1546 203.811C1515.6 203.811 1484.08 195.265 1439.91 177.919L1438.09 182.573ZM1 1130.78H4328V1125.78H1V1130.78Z" transform="translate(-339 97)" fill="white" fill-opacity="0.1"/>
</g>
<defs>
<clipPath id="clip0">
<rect width="3989" height="1156" fill="white"/>
</clipPath>
</defs>
</svg>
