<svg width="79" height="42" viewBox="0 0 79 42" fill="none" xmlns="http://www.w3.org/2000/svg">
<path d="M7.43259 7.42301C7.43259 8.41529 7.06862 9.1595 6.35984 9.69381C5.63191 10.2281 4.59748 10.4762 3.25655 10.4762C1.91562 10.4762 0.823715 10.2663 0 9.86555V8.01457C1.18768 8.56795 2.29874 8.8351 3.33317 8.8351C4.65495 8.8351 5.32541 8.43438 5.32541 7.63292C5.32541 7.38485 5.24879 7.15586 5.11469 6.98412C4.96144 6.81238 4.73157 6.64064 4.38676 6.44982C4.04195 6.25899 3.5822 6.06817 2.98836 5.83918C1.81984 5.38121 1.03443 4.94232 0.612997 4.48434C0.191561 4.02637 0 3.4539 0 2.72877C0 1.87007 0.344811 1.20219 1.05359 0.725128C1.74321 0.248071 2.70102 5.82345e-07 3.90786 5.82345e-07C5.09554 5.82345e-07 6.22575 0.248071 7.27934 0.725128L6.58972 2.34712C5.49782 1.88915 4.57832 1.67924 3.83123 1.67924C2.70102 1.67924 2.12633 2.00364 2.12633 2.65244C2.12633 2.97684 2.27958 3.24399 2.56692 3.45389C2.85427 3.6638 3.50558 3.96912 4.5017 4.35076C5.34457 4.67516 5.93841 4.9614 6.32153 5.22855C6.70466 5.4957 6.97284 5.80102 7.1644 6.16358C7.33681 6.52615 7.43259 6.94596 7.43259 7.42301Z" transform="translate(27.7764 24.0056)" fill="#293343"/>
<path d="M0 1.1831C0 0.801457 0.0957819 0.49614 0.3065 0.305317C0.517217 0.095412 0.823715 -5.82345e-07 1.20684 -5.82345e-07C1.58996 -5.82345e-07 1.8773 0.095412 2.08802 0.305317C2.29874 0.515223 2.41368 0.801457 2.41368 1.1831C2.41368 1.54567 2.29874 1.8319 2.08802 2.04181C1.8773 2.25171 1.58996 2.3662 1.20684 2.3662C0.823715 2.3662 0.517217 2.27079 0.3065 2.04181C0.114938 1.8319 0 1.54567 0 1.1831ZM2.29874 13.9492H0.15325V3.85462H2.29874V13.9492Z" transform="translate(39.2701 20.3606)" fill="#293343"/>
<path d="M4.04195 14.3881C2.77765 14.3881 1.78152 13.9301 1.07274 13.0141C0.363966 12.0982 1.1692e-06 10.8197 1.1692e-06 9.17858C1.1692e-06 7.51842 0.363966 6.23991 1.07274 5.30488C1.78152 4.38893 2.77764 3.93095 4.0611 3.93095C5.40203 3.93095 6.39816 4.42709 7.10694 5.40029H7.22187C7.12609 4.67516 7.06862 4.10269 7.06862 3.68288V2.91173e-07H9.23327V14.1972H7.54753L7.1644 12.8805H7.06862C6.379 13.8728 5.36373 14.3881 4.04195 14.3881ZM4.61664 12.6516C5.49782 12.6516 6.14912 12.4035 6.5514 11.9074C6.95368 11.4112 7.1644 10.6098 7.18356 9.4839V9.17858C7.18356 7.90007 6.97284 7.0032 6.5514 6.4689C6.12997 5.93459 5.47866 5.66744 4.59748 5.66744C3.83123 5.66744 3.25655 5.97276 2.85427 6.58339C2.45199 7.19402 2.24127 8.07181 2.24127 9.19767C2.24127 10.3235 2.43283 11.1631 2.83511 11.7547C3.21823 12.3462 3.81208 12.6516 4.61664 12.6516Z" transform="translate(45.8981 20.1128)" fill="#293343"/>
<path d="M5.03807 10.4571C3.46726 10.4571 2.22211 9.99912 1.34093 9.08317C0.459748 8.16722 0 6.90779 0 5.30488C0 3.6638 0.421435 2.3662 1.24515 1.41209C2.06887 0.477056 3.19908 0 4.63579 0C5.97672 0 7.03031 0.400727 7.81571 1.22127C8.60111 2.02272 8.98424 3.14858 8.98424 4.56067V5.72469H2.22212C2.26043 6.69789 2.50945 7.46118 3.02667 7.9764C3.52473 8.5107 4.23351 8.75877 5.13385 8.75877C5.72769 8.75877 6.28322 8.70153 6.80044 8.58703C7.31765 8.47254 7.87318 8.28172 8.46702 8.03365V9.77013C7.93065 10.0182 7.41343 10.1899 6.87706 10.3044C6.34069 10.3998 5.72769 10.4571 5.03807 10.4571ZM4.63579 1.60291C3.94617 1.60291 3.4098 1.81282 2.98836 2.25171C2.56693 2.6906 2.33705 3.32032 2.24127 4.14086H6.83875C6.81959 3.30124 6.62803 2.67152 6.22575 2.25171C5.86178 1.8319 5.32541 1.60291 4.63579 1.60291Z" transform="translate(59.4799 24.0439)" fill="#293343"/>
<path d="M5.13385 2.91173e-07C5.57444 2.91173e-07 5.91925 0.0381649 6.20659 0.0954118L5.99588 2.09905C5.68938 2.02272 5.36372 1.98456 5.03807 1.98456C4.17604 1.98456 3.48642 2.27079 2.95005 2.82418C2.41367 3.37757 2.14549 4.10269 2.14549 4.99956V10.2854H0V0.190823H1.68574L1.97308 1.96548H2.08802C2.43283 1.35484 2.85427 0.877785 3.40979 0.534304C3.92701 0.190822 4.5017 2.91173e-07 5.13385 2.91173e-07Z" transform="translate(72.7934 24.0247)" fill="#293343"/>
<path d="M1.99224 0.992279C1.99224 1.54567 1.55165 1.98456 0.99612 1.98456C0.440592 1.98456 0 1.54567 0 0.992279C0 0.438893 0.459748 0 0.99612 0C1.55165 0 1.99224 0.438893 1.99224 0.992279Z" transform="translate(6.70465)" fill="#E05B48"/>
<path d="M2.87342 1.43117C2.87342 2.21355 2.24127 2.86234 1.43671 2.86234C0.65131 2.86234 0 2.23263 0 1.43117C0 0.648798 0.632154 0 1.43671 0C2.24127 0 2.87342 0.629716 2.87342 1.43117Z" transform="translate(5.44037 7.78564)" fill="#E05B48"/>
<path d="M2.22265 1.12639C2.22265 1.73702 1.70543 2.23316 1.09244 2.21408C0.479439 2.21408 -0.0186213 1.69886 0.000534844 1.08822C0.000534844 0.47759 0.517751 -0.0185495 1.13075 0.000532782C1.74374 0.0196151 2.22265 0.515755 2.22265 1.12639Z" transform="translate(9.23273 4.33105)" fill="#E05B48"/>
<path d="M8.85015 0.648798C8.85015 0.305317 8.50533 -2.91173e-07 8.06474 -2.91173e-07H0.785403C0.344811 -2.91173e-07 0 0.286234 0 0.648798V2.78601H8.83099V0.648798H8.85015Z" transform="translate(3.83124 12.6133)" fill="#293343"/>
<path d="M14.3097 0.0190823L10.7083 2.91173e-07L4.21435 21.792H2.66271V2.65244H6.57056C7.2985 2.65244 7.89234 2.06089 7.89234 1.33576C7.89234 0.610634 7.2985 0.0190823 6.57056 0.0190823H2.60524C1.16853 0 0 1.16402 0 2.59519V21.8683C0 23.2995 1.16853 24.4635 2.60524 24.4635H5.80432L12.2983 2.67152H14.1564V21.8111H9.84627C9.11833 21.8111 8.52449 22.4026 8.52449 23.1277C8.52449 23.8529 9.11833 24.4444 9.84627 24.4444H14.2139C15.6506 24.4444 16.8191 23.2804 16.8191 21.8492V2.57611C16.8191 1.20219 15.6889 0.0572469 14.3097 0.0190823Z" transform="translate(0 17.5364)" fill="#293343"/>
</svg>
