<svg width="22" height="17" viewBox="0 0 22 17" fill="none" xmlns="http://www.w3.org/2000/svg">
<path d="M21.0044 3.09816C21.2544 3.34816 21.3794 3.65173 21.3794 4.00888C21.3794 4.36602 21.2544 4.66959 21.0044 4.91959L11.308 14.616L9.48655 16.4374C9.23655 16.6874 8.93298 16.8124 8.57584 16.8124C8.2187 16.8124 7.91513 16.6874 7.66513 16.4374L5.8437 14.616L0.995483 9.7678C0.745483 9.5178 0.620483 9.21423 0.620483 8.85709C0.620483 8.49995 0.745483 8.19638 0.995483 7.94638L2.81691 6.12495C3.06691 5.87495 3.37048 5.74995 3.72763 5.74995C4.08477 5.74995 4.38834 5.87495 4.63834 6.12495L8.57584 10.0758L17.3616 1.27673C17.6116 1.02673 17.9151 0.901733 18.2723 0.901733C18.6294 0.901733 18.933 1.02673 19.183 1.27673L21.0044 3.09816Z" fill="url(#paint0_linear)"/>
<defs>
<linearGradient id="paint0_linear" x1="14.6176" y1="26.7241" x2="14.6176" y2="0.999999" gradientUnits="userSpaceOnUse">
<stop stop-color="#EFF4F9"/>
<stop offset="1" stop-color="#B8C4CE"/>
</linearGradient>
</defs>
</svg>
