<svg width="53" height="43" viewBox="0 0 53 43" fill="none" xmlns="http://www.w3.org/2000/svg">
<rect width="52.8347" height="42.9368" fill="black" fill-opacity="0" transform="translate(0 0.0632324)"/>
<path d="M52.8347 10.3242C52.8347 8.46438 52.2057 6.74888 50.9477 5.17767C49.6898 3.59577 47.981 2.35057 45.8215 1.44205C43.662 0.522837 41.3033 0.0632324 38.7455 0.0632324C36.1876 0.0632324 33.8289 0.522837 31.6694 1.44205C29.5099 2.35057 27.8012 3.59577 26.5432 5.17767C25.2852 6.74888 24.6562 8.46438 24.6562 10.3242C24.6562 11.8526 25.0913 13.2956 25.9614 14.653C26.842 15.9998 28.0475 17.1541 29.578 18.1161C29.5256 18.5329 29.4575 18.923 29.3736 19.2865C29.3002 19.6392 29.2269 19.9438 29.1535 20.2003C29.0801 20.4569 28.9753 20.7134 28.839 20.9699C28.7027 21.2264 28.5926 21.4242 28.5088 21.5631C28.4354 21.7021 28.3096 21.8677 28.1314 22.0601C27.9637 22.2632 27.8431 22.4022 27.7697 22.477C27.6963 22.5518 27.5601 22.6747 27.3609 22.8457C27.1722 23.0274 27.0516 23.145 26.9992 23.1984C26.7476 23.4336 26.6428 23.6313 26.6847 23.7917C26.7162 23.9092 26.7843 24.0054 26.8891 24.0802C26.994 24.1551 27.1093 24.1871 27.2351 24.1764C27.5915 24.1444 28.0423 24.0749 28.5874 23.968C31.334 23.3695 33.614 22.1456 35.4276 20.2965C36.4864 20.4889 37.5923 20.5851 38.7455 20.5851C41.3033 20.5851 43.662 20.1309 45.8215 19.2223C47.981 18.3031 49.6898 17.0579 50.9477 15.4867C52.2057 13.9048 52.8347 12.184 52.8347 10.3242Z" fill="url(#paint0_linear)"/>
<path d="M6.48499e-05 25.0908C6.48499e-05 22.6867 0.8125 20.4691 2.43737 18.438C4.06225 16.3931 6.26937 14.7835 9.05873 13.609C11.8481 12.4208 14.8947 11.8267 18.1986 11.8267C21.5025 11.8267 24.5492 12.4208 27.3386 13.609C30.1279 14.7835 32.335 16.3931 33.9599 18.438C35.5848 20.4691 36.3972 22.6867 36.3972 25.0908C36.3972 27.0666 35.8353 28.9319 34.7114 30.6866C33.574 32.4275 32.0168 33.9197 30.0399 35.1633C30.1076 35.7021 30.1956 36.2064 30.3039 36.6762C30.3987 37.1321 30.4935 37.5259 30.5883 37.8575C30.6831 38.1891 30.8185 38.5207 30.9945 38.8523C31.1705 39.1839 31.3127 39.4396 31.421 39.6192C31.5158 39.7988 31.6783 40.013 31.9085 40.2617C32.1252 40.5242 32.2809 40.7038 32.3757 40.8005C32.4704 40.8972 32.6465 41.0561 32.9037 41.2772C33.1475 41.5121 33.3032 41.6641 33.3709 41.7332C33.6959 42.0371 33.8313 42.2927 33.7771 42.5C33.7365 42.652 33.6485 42.7763 33.5131 42.873C33.3777 42.9698 33.2287 43.0112 33.0662 42.9974C32.6058 42.9559 32.0236 42.8661 31.3195 42.728C27.7718 41.9542 24.8268 40.3722 22.4842 37.9819C21.1166 38.2306 19.6881 38.3549 18.1986 38.3549C14.8947 38.3549 11.8481 37.7677 9.05873 36.5933C6.26937 35.4051 4.06225 33.7954 2.43737 31.7643C0.8125 29.7194 6.48499e-05 27.4949 6.48499e-05 25.0908Z" fill="#ECF2F7"/>
<path d="M11.8163 22.9281C11.8163 22.4311 11.5797 22.2247 11.1066 22.2247H7.09231C6.61915 22.2247 6.38257 22.4311 6.38257 22.9281V27.8523C6.38257 28.3417 6.61915 28.5482 7.09231 28.5482H11.1066C11.5797 28.5482 11.8163 28.3417 11.8163 27.8523V22.9281ZM6.9931 24.9926V23.0352C6.9931 22.8593 7.08468 22.8058 7.25258 22.8058H10.9463C11.1142 22.8058 11.2058 22.8593 11.2058 23.0352V24.9926H6.9931ZM6.9931 25.5661H11.2058V27.7376C11.2058 27.9135 11.1142 27.967 10.9463 27.967H7.25258C7.08468 27.967 6.9931 27.9135 6.9931 27.7376V25.5661Z" fill="#BFCBD6"/>
<path d="M17.2348 23.7616C16.6014 25.1073 15.4566 26.3154 14.4492 26.9807C14.35 27.0495 14.2966 27.1489 14.2966 27.2483C14.2966 27.3171 14.3195 27.3859 14.3653 27.4471C14.434 27.5312 14.5179 27.5771 14.6095 27.5771C14.6858 27.5771 14.7698 27.5465 14.8461 27.493C15.8611 26.7972 16.9829 25.5126 17.5935 24.0368C17.5401 24.3962 17.5248 24.8168 17.5248 25.1532V26.7819H16.2121C16.0748 26.7819 15.9908 26.9042 15.9908 27.0495C15.9908 27.2101 16.0748 27.3171 16.2121 27.3171H17.5248V28.724C17.5248 28.8693 17.6393 28.9458 17.8148 28.9458C17.998 28.9458 18.1048 28.8693 18.1048 28.724V27.3171H19.4022C19.5396 27.3171 19.6159 27.2101 19.6159 27.0495C19.6159 26.9042 19.5396 26.7819 19.4022 26.7819H18.1048V25.1456C18.1048 24.8015 18.0819 24.3809 18.0285 24.0292C18.6619 25.5508 19.8143 26.7819 20.898 27.4853C20.9667 27.5312 21.0354 27.5541 21.104 27.5541C21.2033 27.5541 21.3025 27.5006 21.3712 27.4012C21.4017 27.3477 21.4246 27.2789 21.4246 27.2101C21.4246 27.103 21.3788 26.9883 21.2643 26.9195C20.1272 26.2466 19.0053 25.0385 18.3719 23.7616H21.0201C21.1575 23.7616 21.2338 23.6316 21.2338 23.4787C21.2338 23.3181 21.1575 23.2034 21.0201 23.2034H18.1048V22.0641C18.1048 21.9112 17.998 21.8347 17.8148 21.8347C17.6393 21.8347 17.5248 21.9112 17.5248 22.0641V23.2034H14.7011C14.5637 23.2034 14.4874 23.3257 14.4874 23.4787C14.4874 23.6392 14.5637 23.7616 14.7011 23.7616H17.2348Z" fill="#BFCBD6"/>
<path d="M26.0188 25.0538C25.8738 25.0538 25.8051 25.1532 25.8051 25.3138C25.8051 25.4667 25.8738 25.5738 26.0188 25.5738H30.0102C30.1476 25.5738 30.2239 25.4667 30.2239 25.3138C30.2239 25.1532 30.1476 25.0538 30.0102 25.0538H29.4912V24.0521C29.4912 23.6163 29.2928 23.4404 28.8502 23.4404H27.8504C27.9191 23.1805 27.9878 22.9128 28.0489 22.6452H29.8652C30.0102 22.6452 30.0865 22.5382 30.0865 22.3852C30.0865 22.217 30.0102 22.1253 29.8652 22.1253H26.2783C26.1409 22.1253 26.0646 22.2247 26.0646 22.3852C26.0646 22.5382 26.1409 22.6452 26.2783 22.6452H27.4994C27.446 22.9128 27.3773 23.1805 27.3086 23.4404H26.4386C26.2936 23.4404 26.2173 23.5398 26.2173 23.6928C26.2173 23.8457 26.2936 23.9451 26.4386 23.9451H27.1636C27.0491 24.3198 26.9194 24.6944 26.7667 25.0538H26.0188ZM27.3315 25.0538C27.4688 24.6868 27.5986 24.3198 27.7054 23.9451H28.6975C28.8578 23.9451 28.9265 23.9833 28.9265 24.1439V25.0538H27.3315ZM26.9346 26.2084C26.4767 26.2084 26.2707 26.369 26.2707 26.8277V28.1276C26.2707 28.5864 26.4767 28.7546 26.9346 28.7546H29.0868C29.5523 28.7546 29.7583 28.5864 29.7583 28.1276V26.8277C29.7583 26.369 29.5523 26.2084 29.0944 26.2084H26.9346ZM27.072 28.227C26.9041 28.227 26.8354 28.1888 26.8354 28.0129V26.9195C26.8354 26.7513 26.9041 26.713 27.072 26.713H28.957C29.1249 26.713 29.1936 26.7513 29.1936 26.9195V28.0129C29.1936 28.1888 29.1249 28.227 28.957 28.227H27.072ZM23.2791 23.1499C23.1417 23.1499 23.073 23.2569 23.073 23.4099C23.073 23.5628 23.1417 23.6698 23.2791 23.6698H25.6144C25.7441 23.6698 25.8204 23.5628 25.8204 23.4099C25.8204 23.2569 25.7441 23.1499 25.6144 23.1499H23.2791ZM25.4846 24.7785C25.6067 24.7785 25.6754 24.6562 25.6754 24.5262C25.6754 24.3886 25.6067 24.2739 25.4846 24.2739H23.5614C23.4317 24.2739 23.3706 24.3886 23.3706 24.5262C23.3706 24.6638 23.4317 24.7785 23.5614 24.7785H25.4846ZM23.5691 22.0488C23.447 22.0488 23.3706 22.1482 23.3706 22.3011C23.3706 22.4464 23.447 22.5535 23.5691 22.5535H25.4694C25.5991 22.5535 25.6678 22.4464 25.6678 22.3011C25.6678 22.1482 25.5991 22.0488 25.4694 22.0488H23.5691ZM25.6678 27.0036C25.6678 26.6136 25.4846 26.4531 25.0801 26.4531H23.9507C23.5538 26.4531 23.3706 26.6136 23.3706 27.0036V28.2041C23.3706 28.594 23.5538 28.7546 23.9507 28.7546H25.0801C25.4846 28.7546 25.6678 28.594 25.6678 28.2041V27.0036ZM24.9275 26.9119C25.0649 26.9119 25.1336 26.9577 25.1336 27.0954V28.0894C25.1336 28.2347 25.0649 28.2729 24.9275 28.2729H24.1109C23.9735 28.2729 23.9049 28.2347 23.9049 28.0894V27.0954C23.9049 26.9577 23.9735 26.9119 24.1109 26.9119H24.9275ZM25.477 25.8796C25.6067 25.8796 25.6754 25.7573 25.6754 25.6273C25.6754 25.4896 25.6067 25.3749 25.477 25.3749H23.5614C23.4317 25.3749 23.3706 25.4896 23.3706 25.6273C23.3706 25.7649 23.4317 25.8796 23.5614 25.8796H25.477Z" fill="#BFCBD6"/>
<path d="M35.842 13.6946C35.3673 13.6946 34.9374 13.5774 34.5521 13.3431C34.1703 13.1087 33.8728 12.783 33.6595 12.366C33.4462 11.9456 33.3396 11.4752 33.3396 10.9548V10.7325C33.3396 10.1948 33.4428 9.71063 33.6492 9.27984C33.859 8.84905 34.1497 8.5113 34.5212 8.26661C34.8926 8.01848 35.2951 7.89441 35.7285 7.89441C36.4061 7.89441 36.9427 8.12704 37.3383 8.59229C37.7373 9.0541 37.9368 9.68651 37.9368 10.4895V10.8359H33.9536V10.9548C33.9536 11.5889 34.1342 12.1179 34.4954 12.5418C34.86 12.9623 35.3175 13.1725 35.8678 13.1725C36.198 13.1725 36.4887 13.1122 36.7398 12.9916C36.9943 12.8709 37.2248 12.6779 37.4312 12.4126L37.8182 12.7072C37.3641 13.3655 36.7054 13.6946 35.842 13.6946ZM35.7285 8.4217C35.2641 8.4217 34.872 8.59229 34.5521 8.93348C34.2357 9.27467 34.043 9.73303 33.9742 10.3086H37.3228V10.2414C37.3056 9.70374 37.1526 9.26605 36.8636 8.92831C36.5747 8.59057 36.1963 8.4217 35.7285 8.4217Z" fill="white"/>
<path d="M39.7272 7.9978L39.7479 8.95416C39.9577 8.60953 40.2191 8.3476 40.5321 8.16839C40.8451 7.98574 41.1908 7.89441 41.5692 7.89441C42.1677 7.89441 42.6132 8.06328 42.9055 8.40102C43.1979 8.73876 43.3458 9.24538 43.3493 9.92086V13.5912H42.7353V9.91569C42.7318 9.41597 42.6252 9.04376 42.4154 8.79907C42.209 8.55438 41.8771 8.43204 41.4196 8.43204C41.0378 8.43204 40.6989 8.55266 40.4031 8.7939C40.1107 9.0317 39.894 9.35394 39.753 9.7606V13.5912H39.139V7.9978H39.7272Z" fill="white"/>
<defs>
<linearGradient id="paint0_linear" x1="40.9555" y1="27.5047" x2="40.9555" y2="-1.80777" gradientUnits="userSpaceOnUse">
<stop stop-color="#EFF4F9"/>
<stop offset="1" stop-color="#B8C4CE"/>
</linearGradient>
</defs>
</svg>
