<svg width="30" height="61" viewBox="0 0 30 61" fill="none" xmlns="http://www.w3.org/2000/svg">
<g id="concurrent">
<rect width="28.4023" height="59.3077" fill="black" fill-opacity="0" transform="translate(1 0.916748)"/>
<g id="Group 2">
<rect width="28.4023" height="59.3077" fill="black" fill-opacity="0" transform="translate(1 0.916748)"/>
<rect id="Rectangle" x="12" y="0.916748" width="17.4022" height="17.3077" rx="3" fill="url(#paint0_linear)"/>
<rect id="Rectangle_2" x="12" y="21.9167" width="17.4022" height="17.3077" rx="3" fill="url(#paint1_linear)"/>
<rect id="Rectangle_3" x="12" y="42.9167" width="17.4022" height="17.3077" rx="3" fill="url(#paint2_linear)"/>
<g id="git-merge">
<rect width="7.73432" height="9.22575" fill="black" fill-opacity="0" transform="translate(17.3174 47.2437)"/>
<path id="Vector" d="M23.7627 51.1975C23.283 51.1975 22.8701 51.4685 22.6486 51.8659C22.5907 51.8617 22.534 51.8565 22.4736 51.8565C21.1537 51.8565 19.9012 50.8285 19.4442 49.5559C19.7189 49.3142 19.8955 48.9603 19.8955 48.5616C19.8955 47.8341 19.318 47.2437 18.6064 47.2437C17.8949 47.2437 17.3174 47.8341 17.3174 48.5616C17.3174 49.0478 17.5777 49.4684 17.9619 49.6971V54.0162C17.5777 54.2447 17.3174 54.6649 17.3174 55.1514C17.3174 55.8786 17.8949 56.4694 18.6064 56.4694C19.318 56.4694 19.8955 55.8786 19.8955 55.1514C19.8955 54.6649 19.6352 54.2447 19.251 54.0162V51.6451C20.0985 52.5618 21.2689 53.1745 22.4736 53.1745C22.5378 53.1745 22.5907 53.17 22.6486 53.1681C22.8714 53.5638 23.2843 53.8335 23.7627 53.8335C24.4739 53.8335 25.0517 53.2427 25.0517 52.5155C25.0517 51.788 24.4739 51.1975 23.7627 51.1975ZM18.6064 55.8104C18.2508 55.8104 17.9619 55.5157 17.9619 55.1514C17.9619 54.7878 18.2508 54.4925 18.6064 54.4925C18.963 54.4925 19.251 54.7878 19.251 55.1514C19.251 55.5157 18.963 55.8104 18.6064 55.8104ZM18.6064 49.2206C18.2508 49.2206 17.9619 48.9262 17.9619 48.5616C17.9619 48.1971 18.2508 47.9026 18.6064 47.9026C18.963 47.9026 19.251 48.1971 19.251 48.5616C19.251 48.9262 18.963 49.2206 18.6064 49.2206ZM23.7627 53.1745C23.407 53.1745 23.1181 52.8797 23.1181 52.5155C23.1181 52.1509 23.407 51.8565 23.7627 51.8565C24.1189 51.8565 24.4072 52.1509 24.4072 52.5155C24.4072 52.8797 24.1189 53.1745 23.7627 53.1745Z" fill="#BFCBD6"/>
</g>
<g id="git-merge_2">
<rect width="7.73432" height="9.22575" fill="black" fill-opacity="0" transform="translate(17.3174 26.2437)"/>
<path id="Vector_2" d="M23.7627 30.1975C23.283 30.1975 22.8701 30.4685 22.6486 30.8659C22.5907 30.8617 22.534 30.8565 22.4736 30.8565C21.1537 30.8565 19.9012 29.8285 19.4442 28.5559C19.7189 28.3142 19.8955 27.9603 19.8955 27.5616C19.8955 26.8341 19.318 26.2437 18.6064 26.2437C17.8949 26.2437 17.3174 26.8341 17.3174 27.5616C17.3174 28.0478 17.5777 28.4684 17.9619 28.6971V33.0162C17.5777 33.2447 17.3174 33.6649 17.3174 34.1514C17.3174 34.8786 17.8949 35.4694 18.6064 35.4694C19.318 35.4694 19.8955 34.8786 19.8955 34.1514C19.8955 33.6649 19.6352 33.2447 19.251 33.0162V30.6451C20.0985 31.5618 21.2689 32.1745 22.4736 32.1745C22.5378 32.1745 22.5907 32.17 22.6486 32.1681C22.8714 32.5638 23.2843 32.8335 23.7627 32.8335C24.4739 32.8335 25.0517 32.2427 25.0517 31.5155C25.0517 30.788 24.4739 30.1975 23.7627 30.1975ZM18.6064 34.8104C18.2508 34.8104 17.9619 34.5157 17.9619 34.1514C17.9619 33.7878 18.2508 33.4925 18.6064 33.4925C18.963 33.4925 19.251 33.7878 19.251 34.1514C19.251 34.5157 18.963 34.8104 18.6064 34.8104ZM18.6064 28.2206C18.2508 28.2206 17.9619 27.9262 17.9619 27.5616C17.9619 27.1971 18.2508 26.9026 18.6064 26.9026C18.963 26.9026 19.251 27.1971 19.251 27.5616C19.251 27.9262 18.963 28.2206 18.6064 28.2206ZM23.7627 32.1745C23.407 32.1745 23.1181 31.8797 23.1181 31.5155C23.1181 31.1509 23.407 30.8565 23.7627 30.8565C24.1189 30.8565 24.4072 31.1509 24.4072 31.5155C24.4072 31.8797 24.1189 32.1745 23.7627 32.1745Z" fill="#BFCBD6"/>
</g>
<g id="git-merge_3">
<rect width="7.73432" height="9.22575" fill="black" fill-opacity="0" transform="translate(17.3174 5.24365)"/>
<path id="Vector_3" d="M23.7627 9.19754C23.283 9.19754 22.8701 9.46847 22.6486 9.86585C22.5907 9.86167 22.534 9.85652 22.4736 9.85652C21.1537 9.85652 19.9012 8.82847 19.4442 7.55588C19.7189 7.31423 19.8955 6.96029 19.8955 6.56162C19.8955 5.8341 19.318 5.24365 18.6064 5.24365C17.8949 5.24365 17.3174 5.8341 17.3174 6.56162C17.3174 7.04781 17.5777 7.46835 17.9619 7.69713V12.0162C17.5777 12.2447 17.3174 12.6649 17.3174 13.1514C17.3174 13.8786 17.8949 14.4694 18.6064 14.4694C19.318 14.4694 19.8955 13.8786 19.8955 13.1514C19.8955 12.6649 19.6352 12.2447 19.251 12.0162V9.64513C20.0985 10.5618 21.2689 11.1745 22.4736 11.1745C22.5378 11.1745 22.5907 11.17 22.6486 11.1681C22.8714 11.5638 23.2843 11.8335 23.7627 11.8335C24.4739 11.8335 25.0517 11.2427 25.0517 10.5155C25.0517 9.78799 24.4739 9.19754 23.7627 9.19754ZM18.6064 13.8104C18.2508 13.8104 17.9619 13.5157 17.9619 13.1514C17.9619 12.7878 18.2508 12.4925 18.6064 12.4925C18.963 12.4925 19.251 12.7878 19.251 13.1514C19.251 13.5157 18.963 13.8104 18.6064 13.8104ZM18.6064 7.2206C18.2508 7.2206 17.9619 6.92618 17.9619 6.56162C17.9619 6.19705 18.2508 5.90263 18.6064 5.90263C18.963 5.90263 19.251 6.19705 19.251 6.56162C19.251 6.92618 18.963 7.2206 18.6064 7.2206ZM23.7627 11.1745C23.407 11.1745 23.1181 10.8797 23.1181 10.5155C23.1181 10.1509 23.407 9.85652 23.7627 9.85652C24.1189 9.85652 24.4072 10.1509 24.4072 10.5155C24.4072 10.8797 24.1189 11.1745 23.7627 11.1745Z" fill="#BFCBD6"/>
</g>
<path id="Vector 2" d="M5.48706 10.4167C5.7632 10.4167 5.98706 10.1929 5.98706 9.91675C5.98706 9.64061 5.7632 9.41675 5.48706 9.41675V10.4167ZM0.999891 9.91675V9.41675C0.723749 9.41675 0.499891 9.64061 0.499891 9.91675H0.999891ZM0.999891 50.9423H0.499891C0.499891 51.2184 0.723749 51.4423 0.999891 51.4423V50.9423ZM5.48706 51.4423C5.7632 51.4423 5.98706 51.2184 5.98706 50.9423C5.98706 50.6662 5.7632 50.4423 5.48706 50.4423V51.4423ZM5.48706 30.9295C5.7632 30.9295 5.98706 30.7057 5.98706 30.4295C5.98706 30.1534 5.7632 29.9295 5.48706 29.9295V30.9295ZM5.48706 9.41675H0.999891V10.4167H5.48706V9.41675ZM0.999891 51.4423H5.48706V50.4423H0.999891V51.4423ZM0.499891 9.91675L0.499891 30.4295H1.49989L1.49989 9.91675H0.499891ZM0.499891 30.4295L0.499891 50.9423H1.49989L1.49989 30.4295H0.499891ZM0.999891 30.9295H5.48706V29.9295H0.999891V30.9295Z" fill="#BFCBD6"/>
</g>
</g>
<defs>
<linearGradient id="paint0_linear" x1="22.1772" y1="14.0443" x2="28.0298" y2="26.3791" gradientUnits="userSpaceOnUse">
<stop stop-color="#EFF4F9"/>
<stop offset="1" stop-color="#DAE3EB"/>
</linearGradient>
<linearGradient id="paint1_linear" x1="22.1772" y1="35.0443" x2="28.0298" y2="47.3791" gradientUnits="userSpaceOnUse">
<stop stop-color="#EFF4F9"/>
<stop offset="1" stop-color="#DAE3EB"/>
</linearGradient>
<linearGradient id="paint2_linear" x1="22.1772" y1="56.0443" x2="28.0298" y2="68.3791" gradientUnits="userSpaceOnUse">
<stop stop-color="#EFF4F9"/>
<stop offset="1" stop-color="#DAE3EB"/>
</linearGradient>
</defs>
</svg>
