<svg width="43" height="40" viewBox="0 0 43 40" fill="none" xmlns="http://www.w3.org/2000/svg">
<g id="support">
<rect width="41.2771" height="39.0113" fill="black" fill-opacity="0" transform="translate(0.825562 0.0631104)"/>
<path id="Union" d="M22.0973 17.4033C24.8079 15.7741 26.6227 12.796 26.6227 9.39202C26.6227 4.2398 22.4651 0.0631104 17.3364 0.0631104C12.2077 0.0631104 8.05013 4.2398 8.05013 9.39202C8.05013 12.796 9.86488 15.7741 12.5754 17.4033C6.52718 19.8061 1.91073 26.6698 0.851224 35.1479C0.595676 37.1927 2.28416 38.8714 4.33562 38.8714H30.3372C32.3886 38.8714 34.0771 37.1927 33.8216 35.1479C32.7621 26.6698 28.1456 19.8061 22.0973 17.4033Z" fill="#E6EDF3"/>
<g id="pc">
<rect width="23.4046" height="15.4603" fill="black" fill-opacity="0" transform="translate(18.698 23.6141)"/>
<path id="Rectangle (Stroke)" fill-rule="evenodd" clip-rule="evenodd" d="M19.5982 23.6141C19.101 23.6141 18.698 23.9602 18.698 24.3872V37.5284H42.1025V24.3872C42.1025 23.9602 41.6995 23.6141 41.2024 23.6141H19.5982Z" fill="#D1DAE2"/>
<path id="Rectangle 2.1" d="M18.698 37.5283H42.1025C42.1025 38.3822 41.4105 39.0744 40.5568 39.0744H20.2437C19.39 39.0744 18.698 38.3822 18.698 37.5283Z" fill="#BFCBD6"/>
</g>
<path id="&#239;&#137;&#186;" d="M42.1027 10.2093C42.1027 9.44752 41.8462 8.74486 41.3333 8.10131C40.8203 7.45337 40.1236 6.94335 39.2431 6.57122C38.3626 6.19472 37.4009 6.00647 36.3579 6.00647C35.315 6.00647 34.3532 6.19472 33.4727 6.57122C32.5922 6.94335 31.8955 7.45337 31.3825 8.10131C30.8696 8.74486 30.6132 9.44752 30.6132 10.2093C30.6132 10.8353 30.7905 11.4263 31.1453 11.9823C31.5044 12.534 31.9959 13.0068 32.62 13.4008C32.5986 13.5715 32.5708 13.7313 32.5366 13.8802C32.5067 14.0246 32.4768 14.1494 32.4469 14.2545C32.4169 14.3596 32.3742 14.4646 32.3186 14.5697C32.2631 14.6748 32.2182 14.7558 32.184 14.8127C32.1541 14.8696 32.1028 14.9374 32.0301 15.0162C31.9617 15.0994 31.9126 15.1563 31.8826 15.187C31.8527 15.2176 31.7972 15.268 31.7159 15.338C31.639 15.4124 31.5899 15.4606 31.5685 15.4825C31.4659 15.5788 31.4232 15.6598 31.4402 15.7255C31.4531 15.7736 31.4809 15.813 31.5236 15.8437C31.5663 15.8743 31.6134 15.8874 31.6647 15.8831C31.81 15.8699 31.9938 15.8415 32.216 15.7977C33.3359 15.5525 34.2656 15.0513 35.0051 14.2939C35.4368 14.3727 35.8877 14.4121 36.3579 14.4121C37.4009 14.4121 38.3626 14.226 39.2431 13.8539C40.1236 13.4774 40.8203 12.9674 41.3333 12.3238C41.8462 11.6759 42.1027 10.971 42.1027 10.2093Z" fill="url(#paint0_linear)"/>
</g>
<defs>
<linearGradient id="paint0_linear" x1="37.259" y1="17.2463" x2="37.259" y2="5.24012" gradientUnits="userSpaceOnUse">
<stop stop-color="#EFF4F9"/>
<stop offset="1" stop-color="#B8C4CE"/>
</linearGradient>
</defs>
</svg>
