<svg width="40" height="40" viewBox="0 0 40 40" fill="none" xmlns="http://www.w3.org/2000/svg">
<g id="custom">
<rect width="39.0897" height="39.1272" fill="black" fill-opacity="0" transform="translate(0.838501 0.872192)"/>
<g id="Rectangle">
<path d="M35.4359 8.14249C35.8567 8.56648 35.8567 9.25389 35.4359 9.67787L10.8189 34.4833C10.3981 34.9073 9.71595 34.9073 9.29519 34.4833L5.85085 31.0126C5.43009 30.5886 5.43009 29.9012 5.85085 29.4772L30.4679 4.67179C30.8886 4.24781 31.5708 4.24781 31.9916 4.67179L35.4359 8.14249Z" fill="#E6EDF3"/>
<path d="M38.7692 4.23329C39.3408 4.80929 39.354 5.72981 38.7988 6.28933L37.8428 7.25259C37.4221 7.67657 36.7399 7.67657 36.3191 7.25259L32.8748 3.78188C32.454 3.3579 32.454 2.67049 32.8748 2.24651L33.8307 1.28325C34.386 0.72373 35.2995 0.737083 35.8711 1.31308L38.7692 4.23329Z" fill="#E6EDF3"/>
</g>
<g id="Group">
<rect width="7.51838" height="7.59027" fill="black" fill-opacity="0" transform="translate(0.838501 32.2179)"/>
<path id="Polygon" d="M1.67744 39.7488C1.18067 39.9867 0.662053 39.4655 0.896651 38.9643L3.76272 32.8407C4.08086 32.1609 4.97167 32.0047 5.49906 32.5361L8.04111 35.0976C8.56759 35.6281 8.41411 36.524 7.74158 36.8459L1.67744 39.7488Z" fill="#E6EDF3"/>
<path id="Intersect" fill-rule="evenodd" clip-rule="evenodd" d="M0.896655 38.9642C0.662053 39.4654 1.18064 39.9865 1.67745 39.7488L3.58622 38.8351C3.57594 37.8527 2.7765 37.0596 1.79173 37.0596C1.79052 37.0596 1.78931 37.0596 1.7881 37.0596L0.896655 38.9642Z" fill="#BFCBD6"/>
</g>
<g id="Subtract">
<path fill-rule="evenodd" clip-rule="evenodd" d="M6.26244 11.0908C6.3503 11.0908 6.43522 11.1243 6.49712 11.1867L13.4584 18.2012C13.8814 18.6274 14.5705 18.6274 14.9935 18.2012L18.4378 14.7306C18.8563 14.3088 18.8563 13.6283 18.4378 13.2066L11.5408 6.25676C11.3461 6.06058 11.239 5.79641 11.209 5.52163C10.9352 3.01293 8.82502 1.06128 6.26244 1.06128C3.5139 1.06128 1.28577 3.30646 1.28577 6.07604C1.28577 8.84562 3.5139 11.0908 6.26244 11.0908ZM6.26244 8.43593C7.55587 8.43593 8.6044 7.37937 8.6044 6.07604C8.6044 4.77271 7.55587 3.71615 6.26244 3.71615C4.96901 3.71615 3.92047 4.77271 3.92047 6.07604C3.92047 7.37937 4.96901 8.43593 6.26244 8.43593Z" fill="url(#paint0_linear)"/>
<path d="M35.5092 30.001C35.2319 29.9699 34.9656 29.8608 34.769 29.6628L26.9996 21.8339C26.5766 21.4077 25.8875 21.4077 25.4645 21.8339L22.0202 25.3046C21.6017 25.7263 21.6017 26.4068 22.0202 26.8286L29.8789 34.7475C29.9414 34.8103 29.9748 34.896 29.9748 34.9847C29.9748 37.7542 32.2029 39.9994 34.9515 39.9994C35.5163 39.9994 35.7114 39.3359 35.3135 38.9349L33.9193 37.53C33.7002 37.3093 33.5867 37.0048 33.6079 36.6945L33.7391 34.7681C33.7758 34.229 34.2045 33.7998 34.7434 33.7625L36.6393 33.6314C36.9527 33.6097 37.2601 33.7255 37.4814 33.9485L38.8653 35.343C39.2635 35.7443 39.9281 35.55 39.9281 34.9847C39.9281 32.4051 37.9952 30.2804 35.5092 30.001Z" fill="url(#paint1_linear)"/>
</g>
</g>
<defs>
<linearGradient id="paint0_linear" x1="23.6377" y1="45.3702" x2="23.6377" y2="-1.95978" gradientUnits="userSpaceOnUse">
<stop stop-color="#EFF4F9"/>
<stop offset="1" stop-color="#B8C4CE"/>
</linearGradient>
<linearGradient id="paint1_linear" x1="23.6377" y1="45.3702" x2="23.6377" y2="-1.95978" gradientUnits="userSpaceOnUse">
<stop stop-color="#EFF4F9"/>
<stop offset="1" stop-color="#B8C4CE"/>
</linearGradient>
</defs>
</svg>
