<svg width="40" height="51" viewBox="0 0 40 51" fill="none" xmlns="http://www.w3.org/2000/svg">
<g id="custom-tools">
<rect width="39.8414" height="49.5425" fill="black" fill-opacity="0" transform="translate(0.076416 0.825684)"/>
<path id="Rectangle" d="M10.3711 40.3161H38.516C39.2901 40.3161 39.9177 39.6805 39.9177 38.8966V9.34272L32.2087 0.825684C32.2087 0.825684 11.1721 0.825684 10.3711 0.825684C9.5701 0.825684 8.96948 1.46122 8.96948 2.24519V38.8966C8.96948 39.6805 9.59702 40.3161 10.3711 40.3161Z" fill="url(#paint0_linear)"/>
<g id="goodcheck">
<path d="M14.8884 32.5794V32.9055L14.5236 33.0001C14.5903 33.1053 14.6236 33.2231 14.6236 33.3535C14.6236 33.606 14.5361 33.803 14.361 33.9446C14.1873 34.0849 13.9455 34.155 13.6357 34.155L13.521 34.1487L13.4272 34.1382C13.3619 34.1886 13.3293 34.2447 13.3293 34.3064C13.3293 34.399 13.446 34.4453 13.6794 34.4453H14.0755C14.3311 34.4453 14.5257 34.5007 14.6591 34.6114C14.7939 34.7222 14.8613 34.8849 14.8613 35.0995C14.8613 35.3743 14.7473 35.5875 14.5194 35.7389C14.2929 35.8904 13.9671 35.9661 13.5419 35.9661C13.2167 35.9661 12.968 35.9086 12.7957 35.7936C12.6248 35.68 12.5393 35.5202 12.5393 35.314C12.5393 35.1724 12.5831 35.0539 12.6706 34.9585C12.7582 34.8632 12.8867 34.7952 13.0562 34.7545C12.9909 34.7264 12.9339 34.6809 12.8853 34.6178C12.8367 34.5532 12.8124 34.4852 12.8124 34.4137C12.8124 34.324 12.8381 34.2496 12.8895 34.1907C12.9409 34.1304 13.0152 34.0715 13.1125 34.014C12.9902 33.9608 12.8929 33.8752 12.8207 33.7574C12.7498 33.6396 12.7144 33.5008 12.7144 33.3409C12.7144 33.0843 12.7971 32.8858 12.9624 32.7456C13.1278 32.6054 13.364 32.5353 13.6711 32.5353C13.7364 32.5353 13.8135 32.5416 13.9025 32.5542C13.9928 32.5654 14.0504 32.5738 14.0755 32.5794H14.8884ZM13.0896 35.2635C13.0896 35.3519 13.1313 35.4213 13.2146 35.4718C13.2994 35.5223 13.4175 35.5475 13.569 35.5475C13.7969 35.5475 13.9754 35.516 14.1046 35.4529C14.2339 35.3898 14.2985 35.3035 14.2985 35.1941C14.2985 35.1058 14.2603 35.0448 14.1838 35.0111C14.1074 34.9775 13.9893 34.9606 13.8295 34.9606H13.5002C13.3835 34.9606 13.2855 34.988 13.2063 35.0427C13.1285 35.0988 13.0896 35.1724 13.0896 35.2635ZM13.3209 33.3493C13.3209 33.4769 13.3494 33.5779 13.4064 33.6522C13.4648 33.7266 13.553 33.7637 13.6711 33.7637C13.7906 33.7637 13.8781 33.7266 13.9337 33.6522C13.9893 33.5779 14.0171 33.4769 14.0171 33.3493C14.0171 33.066 13.9018 32.9244 13.6711 32.9244C13.4377 32.9244 13.3209 33.066 13.3209 33.3493Z" fill="white"/>
<path d="M15.9085 33.7511C15.9085 33.9839 15.946 34.1599 16.0211 34.2791C16.0975 34.3983 16.2212 34.4579 16.3921 34.4579C16.5616 34.4579 16.6832 34.399 16.7568 34.2812C16.8319 34.162 16.8694 33.9853 16.8694 33.7511C16.8694 33.5183 16.8319 33.3437 16.7568 33.2273C16.6818 33.1109 16.5588 33.0527 16.3879 33.0527C16.2184 33.0527 16.0961 33.1109 16.0211 33.2273C15.946 33.3423 15.9085 33.5169 15.9085 33.7511ZM17.5197 33.7511C17.5197 34.1339 17.4197 34.4333 17.2196 34.6493C17.0195 34.8653 16.7409 34.9733 16.3837 34.9733C16.16 34.9733 15.9627 34.9242 15.7918 34.826C15.6209 34.7264 15.4896 34.5841 15.3978 34.399C15.3061 34.2139 15.2603 33.9979 15.2603 33.7511C15.2603 33.3669 15.3596 33.0682 15.5583 32.855C15.757 32.6418 16.0363 32.5353 16.3962 32.5353C16.62 32.5353 16.8173 32.5843 16.9882 32.6825C17.1591 32.7807 17.2904 32.9216 17.3821 33.1053C17.4738 33.289 17.5197 33.5043 17.5197 33.7511Z" fill="white"/>
<path d="M18.6795 33.7511C18.6795 33.9839 18.717 34.1599 18.7921 34.2791C18.8685 34.3983 18.9922 34.4579 19.1631 34.4579C19.3326 34.4579 19.4542 34.399 19.5278 34.2812C19.6029 34.162 19.6404 33.9853 19.6404 33.7511C19.6404 33.5183 19.6029 33.3437 19.5278 33.2273C19.4528 33.1109 19.3298 33.0527 19.1589 33.0527C18.9894 33.0527 18.8671 33.1109 18.7921 33.2273C18.717 33.3423 18.6795 33.5169 18.6795 33.7511ZM20.2907 33.7511C20.2907 34.1339 20.1906 34.4333 19.9906 34.6493C19.7905 34.8653 19.5119 34.9733 19.1547 34.9733C18.931 34.9733 18.7337 34.9242 18.5628 34.826C18.3919 34.7264 18.2606 34.5841 18.1688 34.399C18.0771 34.2139 18.0313 33.9979 18.0313 33.7511C18.0313 33.3669 18.1306 33.0682 18.3293 32.855C18.528 32.6418 18.8073 32.5353 19.1672 32.5353C19.391 32.5353 19.5883 32.5843 19.7592 32.6825C19.9301 32.7807 20.0614 32.9216 20.1531 33.1053C20.2448 33.289 20.2907 33.5043 20.2907 33.7511Z" fill="white"/>
<path d="M21.6819 34.9733C21.4081 34.9733 21.1927 34.866 21.0357 34.6514C20.8801 34.4369 20.8023 34.1396 20.8023 33.7595C20.8023 33.3739 20.8815 33.0738 21.0399 32.8592C21.1997 32.6432 21.4192 32.5353 21.6985 32.5353C21.9917 32.5353 22.2155 32.6502 22.3697 32.8802H22.3905C22.3586 32.7049 22.3426 32.5486 22.3426 32.4111V31.6581H22.9804V34.9312H22.4927L22.3697 34.6262H22.3426C22.1981 34.8576 21.9778 34.9733 21.6819 34.9733ZM21.9049 34.4621C22.0675 34.4621 22.1863 34.4144 22.2613 34.3191C22.3377 34.2237 22.3794 34.0617 22.3864 33.8331V33.7637C22.3864 33.5113 22.3475 33.3304 22.2696 33.221C22.1932 33.1116 22.0682 33.0569 21.8945 33.0569C21.7527 33.0569 21.6423 33.1179 21.5631 33.2399C21.4852 33.3605 21.4463 33.5365 21.4463 33.7679C21.4463 33.9993 21.4859 34.1732 21.5651 34.2896C21.6443 34.4046 21.7576 34.4621 21.9049 34.4621Z" fill="white"/>
<path d="M24.7197 34.9733C23.9943 34.9733 23.6316 34.5715 23.6316 33.7679C23.6316 33.3683 23.7303 33.0632 23.9276 32.8529C24.1249 32.6411 24.4077 32.5353 24.7759 32.5353C25.0455 32.5353 25.2873 32.5885 25.5013 32.6951L25.3137 33.1916C25.2136 33.1509 25.1205 33.1179 25.0344 33.0927C24.9482 33.066 24.8621 33.0527 24.7759 33.0527C24.4452 33.0527 24.2799 33.2897 24.2799 33.7637C24.2799 34.2237 24.4452 34.4537 24.7759 34.4537C24.8982 34.4537 25.0115 34.4376 25.1157 34.4053C25.2199 34.3716 25.3241 34.3198 25.4283 34.2496V34.7987C25.3255 34.8646 25.2213 34.9101 25.1157 34.9354C25.0115 34.9606 24.8795 34.9733 24.7197 34.9733Z" fill="white"/>
<path d="M28.2494 34.9312H27.6136V33.5576C27.6136 33.2182 27.4886 33.0485 27.2385 33.0485C27.0606 33.0485 26.9321 33.1095 26.8528 33.2315C26.7736 33.3535 26.734 33.5513 26.734 33.8247V34.9312H26.0983V31.6581H26.734V32.3249C26.734 32.3768 26.7292 32.4988 26.7195 32.6909L26.7049 32.8802H26.7382C26.8799 32.6502 27.1051 32.5353 27.4135 32.5353C27.6873 32.5353 27.895 32.6096 28.0367 32.7582C28.1785 32.9069 28.2494 33.12 28.2494 33.3977V34.9312Z" fill="white"/>
<path d="M29.9969 32.9917C29.8622 32.9917 29.7565 33.0352 29.6801 33.1221C29.6037 33.2077 29.5599 33.3297 29.5488 33.4882H30.4409C30.4381 33.3297 30.3971 33.2077 30.3179 33.1221C30.2387 33.0352 30.1317 32.9917 29.9969 32.9917ZM30.0866 34.9733C29.7114 34.9733 29.4182 34.8688 29.207 34.6598C28.9958 34.4509 28.8902 34.155 28.8902 33.7721C28.8902 33.3781 28.9874 33.0738 29.182 32.8592C29.3779 32.6432 29.6482 32.5353 29.9928 32.5353C30.3221 32.5353 30.5785 32.6299 30.7619 32.8192C30.9453 33.0086 31.037 33.2701 31.037 33.6039V33.9152H29.5342C29.5412 34.0975 29.5947 34.2398 29.6947 34.3422C29.7948 34.4446 29.9351 34.4958 30.1157 34.4958C30.2561 34.4958 30.3888 34.481 30.5139 34.4516C30.6389 34.4221 30.7695 34.3751 30.9057 34.3106V34.8071C30.7945 34.8632 30.6757 34.9045 30.5493 34.9312C30.4228 34.9592 30.2686 34.9733 30.0866 34.9733Z" fill="white"/>
<path d="M32.6283 34.9733C31.9029 34.9733 31.5403 34.5715 31.5403 33.7679C31.5403 33.3683 31.6389 33.0632 31.8362 32.8529C32.0336 32.6411 32.3163 32.5353 32.6846 32.5353C32.9541 32.5353 33.1959 32.5885 33.4099 32.6951L33.2223 33.1916C33.1223 33.1509 33.0292 33.1179 32.943 33.0927C32.8569 33.066 32.7707 33.0527 32.6846 33.0527C32.3539 33.0527 32.1885 33.2897 32.1885 33.7637C32.1885 34.2237 32.3539 34.4537 32.6846 34.4537C32.8068 34.4537 32.9201 34.4376 33.0243 34.4053C33.1285 34.3716 33.2327 34.3198 33.337 34.2496V34.7987C33.2341 34.8646 33.1299 34.9101 33.0243 34.9354C32.9201 34.9606 32.7881 34.9733 32.6283 34.9733Z" fill="white"/>
<path d="M34.6177 33.6522L34.8949 33.2946L35.5473 32.5794H36.2643L35.3388 33.5996L36.3206 34.9312H35.5869L34.9157 33.9783L34.6427 34.1992V34.9312H34.007V31.6581H34.6427V33.1179L34.6093 33.6522H34.6177Z" fill="white"/>
</g>
<path id="Rectangle_2" d="M1.47806 50.3681H29.623C30.3971 50.3681 31.0246 49.7325 31.0246 48.9486V19.3947L23.3156 10.8777C23.3156 10.8777 2.29015 10.8777 1.47806 10.8777C0.665964 10.8777 0.076416 11.5132 0.076416 12.2972V48.9486C0.076416 49.7325 0.703951 50.3681 1.47806 50.3681Z" fill="url(#paint1_linear)"/>
<g id="querly">
<path d="M5.798 44.5743C6.06665 44.5743 6.26351 44.4972 6.38857 44.343C6.51363 44.1864 6.58195 43.9141 6.59353 43.5261V43.3964C6.59353 42.9757 6.52868 42.6741 6.39899 42.4918C6.27161 42.3095 6.06549 42.2184 5.78064 42.2184C5.28271 42.2184 5.03375 42.6134 5.03375 43.4034C5.03375 43.796 5.09512 44.0894 5.21787 44.2834C5.34293 44.4773 5.53631 44.5743 5.798 44.5743ZM5.41935 45.4123C4.9608 45.4123 4.60183 45.2346 4.34244 44.8794C4.08306 44.5218 3.95337 44.0251 3.95337 43.3894C3.95337 42.7489 4.08538 42.2488 4.34939 41.8888C4.61572 41.5289 4.97932 41.3489 5.44019 41.3489C5.68568 41.3489 5.89991 41.3957 6.08286 41.4892C6.26582 41.5826 6.42678 41.7276 6.56573 41.9239H6.59353L6.68732 41.4225H7.58358V47.067H6.52057V45.4228C6.52057 45.2802 6.53563 45.0839 6.56573 44.8338H6.52057C6.40709 45.0231 6.25656 45.1668 6.06897 45.265C5.88138 45.3632 5.66484 45.4123 5.41935 45.4123Z" fill="#BFCBD6"/>
<path d="M11.6565 45.3421L11.5141 44.8408H11.4585C11.345 45.0231 11.1841 45.1645 10.9756 45.265C10.7672 45.3632 10.5298 45.4123 10.2635 45.4123C9.80725 45.4123 9.46333 45.2895 9.23174 45.0441C9.00014 44.7964 8.88435 44.4411 8.88435 43.9783V41.4225H9.94388V43.7119C9.94388 43.9947 9.99368 44.2074 10.0933 44.35C10.1928 44.4902 10.3515 44.5603 10.5692 44.5603C10.8656 44.5603 11.0798 44.461 11.2119 44.2623C11.3439 44.0613 11.4099 43.7294 11.4099 43.2666V41.4225H12.4694V45.3421H11.6565Z" fill="#BFCBD6"/>
<path d="M15.4029 42.1097C15.1783 42.1097 15.0022 42.1822 14.8749 42.3271C14.7475 42.4696 14.6745 42.673 14.656 42.9371H16.1428C16.1382 42.673 16.0699 42.4696 15.9379 42.3271C15.8059 42.1822 15.6275 42.1097 15.4029 42.1097ZM15.5523 45.4123C14.927 45.4123 14.4383 45.2381 14.0863 44.8899C13.7343 44.5416 13.5583 44.0485 13.5583 43.4104C13.5583 42.7536 13.7204 42.2464 14.0446 41.8888C14.3712 41.5289 14.8216 41.3489 15.3959 41.3489C15.9448 41.3489 16.3721 41.5067 16.6778 41.8222C16.9835 42.1377 17.1364 42.5736 17.1364 43.1299V43.6488H14.6317C14.6433 43.9526 14.7324 44.1899 14.8992 44.3605C15.0659 44.5311 15.2998 44.6164 15.6009 44.6164C15.8348 44.6164 16.056 44.5919 16.2644 44.5428C16.4729 44.4937 16.6906 44.4154 16.9175 44.3079V45.1353C16.7322 45.2288 16.5342 45.2977 16.3235 45.3421C16.1127 45.3889 15.8557 45.4123 15.5523 45.4123Z" fill="#BFCBD6"/>
<path d="M20.379 41.3489C20.5226 41.3489 20.6419 41.3594 20.7368 41.3805L20.6569 42.3832C20.5713 42.3598 20.467 42.3481 20.3443 42.3481C20.0062 42.3481 19.7422 42.4357 19.5522 42.611C19.3647 42.7863 19.2709 43.0317 19.2709 43.3473V45.3421H18.2113V41.4225H19.0138L19.1701 42.0817H19.2222C19.3427 41.8619 19.5048 41.6855 19.7086 41.5523C19.9147 41.4167 20.1382 41.3489 20.379 41.3489Z" fill="#BFCBD6"/>
<path d="M22.715 45.3421H21.6555V39.887H22.715V45.3421Z" fill="#BFCBD6"/>
<path d="M23.4877 41.4225H24.648L25.381 43.6278C25.4436 43.8194 25.4864 44.0461 25.5096 44.3079H25.5304C25.5559 44.0672 25.6057 43.8404 25.6798 43.6278L26.3989 41.4225H27.5348L25.8917 45.8435C25.7411 46.2525 25.5258 46.5587 25.2455 46.762C24.9676 46.9654 24.6422 47.067 24.2694 47.067C24.0864 47.067 23.9069 47.0472 23.7309 47.0074V46.159C23.8583 46.1894 23.9973 46.2046 24.1478 46.2046C24.3354 46.2046 24.4987 46.1462 24.6376 46.0293C24.7789 45.9148 24.8889 45.7406 24.9676 45.5069L25.0302 45.3141L23.4877 41.4225Z" fill="#BFCBD6"/>
</g>
</g>
<defs>
<linearGradient id="paint0_linear" x1="26.8709" y1="-9" x2="26.5" y2="51.5" gradientUnits="userSpaceOnUse">
<stop stop-color="#EFF4F9"/>
<stop offset="1" stop-color="#B8C4CE"/>
</linearGradient>
<linearGradient id="paint1_linear" x1="16" y1="93" x2="17.9778" y2="7.81378" gradientUnits="userSpaceOnUse">
<stop stop-color="#DAE3EB"/>
<stop offset="1" stop-color="#EFF4F9"/>
</linearGradient>
</defs>
</svg>
