<svg width="47" height="50" viewBox="0 0 47 50" fill="none" xmlns="http://www.w3.org/2000/svg">
<g id="Bugs">
<rect width="45.3129" height="49.5424" fill="black" fill-opacity="0" transform="translate(0.952637 0.45752)"/>
<g id="find-bug">
<rect width="45.3129" height="49.5424" fill="black" fill-opacity="0" transform="translate(0.952637 0.45752)"/>
<path id="Line (Stroke)" fill-rule="evenodd" clip-rule="evenodd" d="M35.2611 48.9C34.2302 49.3659 33.0157 48.8865 32.5816 47.8424L26.3057 32.7474L29.3104 31.2012L37.3313 45.5932C37.9 46.6136 37.4754 47.8992 36.4108 48.3803L35.2611 48.9Z" fill="#EBF1F7"/>
<path id="magni" d="M39.9453 29.3265C36.4548 38.3392 26.3111 42.8359 17.2889 39.3703C8.26659 35.9047 3.78225 25.789 7.27281 16.7764C10.7634 7.76372 20.907 3.26697 29.9293 6.73261C38.9515 10.1982 43.4359 20.3139 39.9453 29.3265Z" fill="url(#paint0_linear)"/>
<g id="bug">
<rect width="17.7739" height="19.2299" fill="black" fill-opacity="0" transform="translate(15 12.0586)"/>
<path id="Rectangle 5.1 (Stroke)" fill-rule="evenodd" clip-rule="evenodd" d="M27.9451 12.5585C27.9451 14.2325 26.588 15.5896 24.914 15.5896H22.8599C21.1859 15.5896 19.8289 14.2325 19.8289 12.5585C19.8289 12.2824 20.0527 12.0585 20.3289 12.0585C20.605 12.0585 20.8289 12.2824 20.8289 12.5585C20.8289 13.6803 21.7382 14.5896 22.8599 14.5896H24.914C26.0357 14.5896 26.9451 13.6803 26.9451 12.5585C26.9451 12.2824 27.1689 12.0585 27.4451 12.0585C27.7212 12.0585 27.9451 12.2824 27.9451 12.5585Z" fill="#BFCBD6"/>
<path id="Vector 2 (Stroke)" fill-rule="evenodd" clip-rule="evenodd" d="M15.5 18.3862C15.7761 18.3862 16 18.6101 16 18.8862C16 19.801 16.265 20.2358 16.4979 20.4412C16.7416 20.6561 17.0326 20.6942 17.2086 20.6692C17.482 20.6303 17.7352 20.8204 17.7741 21.0938C17.813 21.3672 17.6229 21.6203 17.3495 21.6592C16.9325 21.7185 16.334 21.63 15.8364 21.1911C15.328 20.7427 15 19.9963 15 18.8862C15 18.6101 15.2239 18.3862 15.5 18.3862Z" fill="#BFCBD6"/>
<path id="Vector 2.1 (Stroke)" fill-rule="evenodd" clip-rule="evenodd" d="M15.5 30.5347C15.7761 30.5347 16 30.3108 16 30.0347C16 29.1199 16.265 28.6851 16.4979 28.4797C16.7416 28.2648 17.0326 28.2267 17.2086 28.2517C17.482 28.2906 17.7352 28.1005 17.7741 27.8271C17.813 27.5537 17.6229 27.3006 17.3495 27.2617C16.9325 27.2024 16.334 27.2909 15.8364 27.7298C15.328 28.1782 15 28.9246 15 30.0347C15 30.3108 15.2239 30.5347 15.5 30.5347Z" fill="#BFCBD6"/>
<path id="Vector 2.2 (Stroke)" fill-rule="evenodd" clip-rule="evenodd" d="M32.2739 18.3862C31.9978 18.3862 31.7739 18.6101 31.7739 18.8862C31.7739 19.801 31.5089 20.2358 31.276 20.4412C31.0323 20.6561 30.7414 20.6942 30.5653 20.6692C30.2919 20.6303 30.0388 20.8204 29.9999 21.0938C29.961 21.3672 30.1511 21.6203 30.4244 21.6592C30.8414 21.7185 31.4399 21.63 31.9375 21.1911C32.4459 20.7427 32.7739 19.9963 32.7739 18.8862C32.7739 18.6101 32.5501 18.3862 32.2739 18.3862Z" fill="#BFCBD6"/>
<path id="Vector 2.3 (Stroke)" fill-rule="evenodd" clip-rule="evenodd" d="M32.2739 30.5347C31.9978 30.5347 31.7739 30.3108 31.7739 30.0347C31.7739 29.1199 31.5089 28.6851 31.276 28.4797C31.0323 28.2648 30.7414 28.2267 30.5653 28.2517C30.2919 28.2906 30.0388 28.1005 29.9999 27.8271C29.961 27.5537 30.1511 27.3006 30.4244 27.2617C30.8414 27.2024 31.4399 27.2909 31.9375 27.7298C32.4459 28.1782 32.7739 28.9246 32.7739 30.0347C32.7739 30.3108 32.5501 30.5347 32.2739 30.5347Z" fill="#BFCBD6"/>
<path id="Vector 3 (Stroke)" fill-rule="evenodd" clip-rule="evenodd" d="M15 24.4546C15 24.1784 15.2239 23.9546 15.5 23.9546H16.7708C17.0469 23.9546 17.2708 24.1784 17.2708 24.4546C17.2708 24.7307 17.0469 24.9546 16.7708 24.9546H15.5C15.2239 24.9546 15 24.7307 15 24.4546ZM30.5032 24.4546C30.5032 24.1784 30.727 23.9546 31.0032 23.9546H32.2739C32.5501 23.9546 32.7739 24.1784 32.7739 24.4546C32.7739 24.7307 32.5501 24.9546 32.2739 24.9546H31.0032C30.727 24.9546 30.5032 24.7307 30.5032 24.4546Z" fill="#BFCBD6"/>
<rect id="Rectangle 4" x="16.2625" y="17.1145" width="15.249" height="14.174" rx="6" fill="url(#paint1_linear)"/>
<path id="Vector (Stroke)" fill-rule="evenodd" clip-rule="evenodd" d="M23.887 20.6642C24.1631 20.6642 24.387 20.888 24.387 21.1642V29.0105C24.387 29.2866 24.1631 29.5105 23.887 29.5105C23.6108 29.5105 23.387 29.2866 23.387 29.0105V21.1642C23.387 20.888 23.6108 20.6642 23.887 20.6642Z" fill="white"/>
<path id="Rectangle 5" d="M20.3289 18.2534C20.3289 16.5061 21.7454 15.0896 23.4927 15.0896H24.2812C26.0286 15.0896 27.4451 16.5061 27.4451 18.2534C27.4451 19.3018 26.5952 20.1517 25.5468 20.1517H22.2272C21.1788 20.1517 20.3289 19.3018 20.3289 18.2534Z" fill="#BFCBD6"/>
</g>
</g>
</g>
<defs>
<linearGradient id="paint0_linear" x1="23.113" y1="32.5523" x2="25.2567" y2="60.0204" gradientUnits="userSpaceOnUse">
<stop stop-color="#EFF4F9"/>
<stop offset="1" stop-color="#DAE3EB"/>
</linearGradient>
<linearGradient id="paint1_linear" x1="25.083" y1="33.2435" x2="25.083" y2="16.0148" gradientUnits="userSpaceOnUse">
<stop stop-color="#EFF4F9"/>
<stop offset="1" stop-color="#B8C4CE"/>
</linearGradient>
</defs>
</svg>
