<svg width="46" height="43" viewBox="0 0 46 43" fill="none" xmlns="http://www.w3.org/2000/svg">
<g id="tool-support">
<rect width="45.4048" height="42.1111" fill="black" fill-opacity="0"/>
<path id="Exclude" fill-rule="evenodd" clip-rule="evenodd" d="M16.694 0C16.1229 0 15.6907 0.527999 15.7361 1.09748C15.7843 1.70259 15.7825 2.43872 15.5857 2.98052C14.7281 5.34251 11.9147 6.5273 9.64493 5.44993C9.14378 5.21206 8.64161 4.71586 8.25899 4.27045C7.8875 3.83801 7.21056 3.77145 6.80749 4.17461L4.13241 6.85027C3.72892 7.25385 3.79607 7.93185 4.22924 8.30337C4.67731 8.68767 5.1767 9.19286 5.41431 9.69775C6.47435 11.9502 5.31672 14.7321 2.97988 15.5891C2.43914 15.7874 1.70375 15.7894 1.09883 15.7408C0.52892 15.6951 0 16.1275 0 16.6994V20.4763C0 21.0476 0.527886 21.4799 1.09725 21.4345C1.70223 21.3862 2.4382 21.3881 2.97988 21.5849C5.34137 22.4427 6.52591 25.2567 5.44877 27.5269C5.21095 28.0282 4.71485 28.5305 4.26954 28.9132C3.83719 29.2848 3.77065 29.9618 4.17371 30.365L6.84881 33.0407C7.2523 33.4442 7.93016 33.3771 8.30159 32.9438C8.68581 32.4956 9.19089 31.9961 9.69567 31.7585C11.9476 30.6982 14.729 31.8561 15.5857 34.1934C15.784 34.7343 15.786 35.4698 15.7375 36.0749C15.6917 36.6449 16.1241 37.1739 16.6958 37.1739H20.4702C21.0419 37.1739 21.4743 36.6449 21.4285 36.0749C21.38 35.4698 21.382 34.7343 21.5803 34.1934C22.437 31.8561 25.2054 30.7262 27.4703 31.7585C28.0149 32.0067 28.5567 32.5495 28.9614 33.029C29.331 33.4668 30.0127 33.5363 30.4178 33.1311L33.0827 30.4656C33.4874 30.0608 33.4185 29.3799 32.9815 29.0101C32.505 28.6068 31.9657 28.0679 31.7172 27.527C30.6683 25.2435 31.8246 22.4427 34.1861 21.5849C34.7278 21.3881 35.4638 21.3862 36.0687 21.4345C36.6381 21.4799 37.166 21.0476 37.166 20.4763V16.6994C37.166 16.1275 36.6371 15.6951 36.0672 15.7408C35.4622 15.7894 34.7269 15.7874 34.1861 15.5891C31.8493 14.7321 30.7196 11.9631 31.7517 9.69775C31.9998 9.15307 32.5426 8.61118 33.0219 8.20637C33.4597 7.83666 33.5292 7.15484 33.1241 6.74963L30.4591 4.08413C30.0544 3.67933 29.3736 3.74831 29.0039 4.18534C28.6007 4.66195 28.0619 5.20139 27.5211 5.44994C25.2381 6.49909 22.4379 5.34251 21.5803 2.98052C21.3835 2.43872 21.3817 1.70259 21.4299 1.09748C21.4753 0.527999 21.0431 0 20.472 0H16.694ZM18.583 25.1823C22.2247 25.1823 25.177 22.2295 25.177 18.587C25.177 14.9444 22.2247 11.9916 18.583 11.9916C14.9412 11.9916 11.989 14.9444 11.989 18.587C11.989 22.2295 14.9412 25.1823 18.583 25.1823Z" fill="#E6EDF3"/>
<path id="Exclude_2" fill-rule="evenodd" clip-rule="evenodd" d="M45.4048 28.6207H21.4641V40.9482C21.4641 41.5905 21.9895 42.1112 22.6377 42.1112H44.2313C44.8794 42.1112 45.4048 41.5905 45.4048 40.9482V28.6207Z" fill="url(#paint0_linear)"/>
<path id="Exclude_3" d="M22.6377 25.5969C21.9895 25.5969 21.4641 26.2123 21.4641 26.9713V28.6206H45.4048V26.9713C45.4048 26.2123 44.8794 25.5969 44.2313 25.5969H22.6377Z" fill="#BFCBD6"/>
<path id="&#239;&#128;&#140;" d="M38.4216 32.4004C38.5384 32.5169 38.5969 32.6584 38.5969 32.8248C38.5969 32.9912 38.5384 33.1327 38.4216 33.2492L33.8894 37.7674L33.038 38.6161C32.9212 38.7326 32.7793 38.7909 32.6123 38.7909C32.4454 38.7909 32.3035 38.7326 32.1867 38.6161L31.3353 37.7674L29.0692 35.5083C28.9523 35.3918 28.8939 35.2503 28.8939 35.0839C28.8939 34.9175 28.9523 34.776 29.0692 34.6596L29.9206 33.8108C30.0374 33.6943 30.1793 33.6361 30.3462 33.6361C30.5132 33.6361 30.6551 33.6943 30.7719 33.8108L32.6123 35.6518L36.7189 31.5517C36.8357 31.4352 36.9776 31.377 37.1446 31.377C37.3115 31.377 37.4534 31.4352 37.5702 31.5517L38.4216 32.4004Z" fill="white"/>
</g>
<defs>
<linearGradient id="paint0_linear" x1="35.3122" y1="43.9719" x2="35.3122" y2="27.5741" gradientUnits="userSpaceOnUse">
<stop stop-color="#EFF4F9"/>
<stop offset="1" stop-color="#DAE3EB"/>
</linearGradient>
</defs>
</svg>
