<svg width="38" height="51" viewBox="0 0 38 51" fill="none" xmlns="http://www.w3.org/2000/svg">
<g id="config">
<rect width="37.019" height="49.5425" fill="black" fill-opacity="0" transform="translate(0.204102 0.838745)"/>
<path id="Rectangle" d="M1.74656 50.3812H35.6807C36.5325 50.3812 37.2231 49.6881 37.2231 48.833V10.128L28.7396 0.838745H1.74656C0.894684 0.838745 0.204102 1.5319 0.204102 2.38695V48.833C0.204102 49.6881 0.894684 50.3812 1.74656 50.3812Z" fill="url(#paint0_linear)"/>
<g id=".config">
<path d="M5.76147 44.1891C5.76147 44.0036 5.82307 43.8531 5.94625 43.7375C6.07211 43.622 6.22876 43.5642 6.41622 43.5642C6.60635 43.5642 6.763 43.622 6.88618 43.7375C7.01205 43.8531 7.07498 44.0036 7.07498 44.1891C7.07498 44.3719 7.01338 44.521 6.8902 44.6366C6.76702 44.7495 6.60902 44.806 6.41622 44.806C6.22609 44.806 6.06943 44.7495 5.94625 44.6366C5.82307 44.521 5.76147 44.3719 5.76147 44.1891Z" fill="#BFCBD6"/>
<path d="M9.90282 43.9028C10.117 43.9028 10.2911 43.8437 10.425 43.7254C10.5589 43.6072 10.6285 43.4499 10.6339 43.2537H11.7224C11.7198 43.5494 11.6394 43.8209 11.4814 44.0681C11.3234 44.3127 11.1065 44.5036 10.8307 44.6407C10.5576 44.775 10.255 44.8422 9.9229 44.8422C9.30163 44.8422 8.81158 44.6447 8.45274 44.2496C8.09391 43.8518 7.91449 43.3034 7.91449 42.6046V42.528C7.91449 41.856 8.09257 41.3198 8.44873 40.9193C8.80489 40.5188 9.2936 40.3186 9.91487 40.3186C10.4585 40.3186 10.8936 40.4745 11.2203 40.7863C11.5497 41.0954 11.7171 41.508 11.7224 42.024H10.6339C10.6285 41.7983 10.5589 41.6155 10.425 41.4757C10.2911 41.3333 10.1144 41.262 9.89478 41.262C9.62432 41.262 9.41946 41.3615 9.28021 41.5604C9.14364 41.7566 9.07535 42.0764 9.07535 42.5199V42.6409C9.07535 43.0898 9.14364 43.4123 9.28021 43.6085C9.41678 43.8047 9.62432 43.9028 9.90282 43.9028Z" fill="#BFCBD6"/>
<path d="M12.2045 42.5401C12.2045 42.1074 12.2875 41.7216 12.4535 41.383C12.6195 41.0443 12.8579 40.7822 13.1685 40.5968C13.4818 40.4113 13.8447 40.3186 14.2571 40.3186C14.8435 40.3186 15.3215 40.4987 15.6911 40.8588C16.0633 41.219 16.2708 41.7082 16.3137 42.3264L16.3217 42.6248C16.3217 43.294 16.1356 43.8316 15.7634 44.2375C15.3911 44.6407 14.8917 44.8422 14.2651 44.8422C13.6385 44.8422 13.1377 44.6407 12.7628 44.2375C12.3906 43.8343 12.2045 43.286 12.2045 42.5925V42.5401ZM13.3653 42.6248C13.3653 43.0387 13.443 43.3559 13.5983 43.5763C13.7536 43.794 13.9759 43.9028 14.2651 43.9028C14.5463 43.9028 14.7658 43.7953 14.9238 43.5803C15.0818 43.3626 15.1608 43.0158 15.1608 42.5401C15.1608 42.1342 15.0818 41.8198 14.9238 41.5967C14.7658 41.3736 14.5436 41.262 14.2571 41.262C13.9732 41.262 13.7536 41.3736 13.5983 41.5967C13.443 41.8171 13.3653 42.1598 13.3653 42.6248Z" fill="#BFCBD6"/>
<path d="M18.1052 40.3992L18.1413 40.9032C18.452 40.5135 18.8684 40.3186 19.3905 40.3186C19.8511 40.3186 20.1939 40.4543 20.4189 40.7258C20.6438 40.9973 20.7589 41.4031 20.7643 41.9434V44.7616H19.6034V41.9716C19.6034 41.7243 19.5499 41.5456 19.4428 41.4354C19.3357 41.3225 19.1576 41.2661 18.9085 41.2661C18.5818 41.2661 18.3368 41.4058 18.1735 41.6854V44.7616H17.0126V40.3992H18.1052Z" fill="#BFCBD6"/>
<path d="M21.9292 44.7616V41.254H21.2825V40.3992H21.9292V40.1976C21.9345 39.6493 22.1019 39.2273 22.4313 38.9317C22.7633 38.6333 23.2306 38.4841 23.8332 38.4841C24.1947 38.4841 24.6338 38.5634 25.1507 38.722L24.982 39.6856C24.7195 39.6077 24.516 39.5579 24.3714 39.5364C24.2268 39.5122 24.0715 39.5001 23.9055 39.5001C23.3645 39.5001 23.0941 39.7407 23.0941 40.2218V40.3992H23.9496V41.254H23.0941V44.7616H21.9292ZM25.6929 44.7616H24.5281V40.3992H25.6929V44.7616Z" fill="#BFCBD6"/>
<path d="M26.4843 42.5482C26.4843 41.8789 26.6423 41.34 26.9582 40.9314C27.2769 40.5229 27.7054 40.3186 28.2436 40.3186C28.7203 40.3186 29.0912 40.4825 29.3563 40.8105L29.4045 40.3992H30.4569V44.6165C30.4569 44.9981 30.3699 45.3301 30.1958 45.6123C30.0244 45.8945 29.7821 46.1096 29.4688 46.2574C29.1554 46.4052 28.7886 46.4791 28.3681 46.4791C28.0495 46.4791 27.7388 46.4146 27.4362 46.2856C27.1336 46.1593 26.9047 45.9953 26.7494 45.7937L27.2635 45.0842C27.5527 45.4094 27.9035 45.572 28.3159 45.572C28.6239 45.572 28.8636 45.4887 29.0349 45.322C29.2063 45.1581 29.292 44.9242 29.292 44.6205V44.3867C29.0242 44.6904 28.6721 44.8422 28.2356 44.8422C27.7134 44.8422 27.2903 44.638 26.9663 44.2294C26.6449 43.8182 26.4843 43.2739 26.4843 42.5965V42.5482ZM27.6451 42.6328C27.6451 43.0279 27.7241 43.3384 27.8821 43.5642C28.0401 43.7873 28.257 43.8988 28.5328 43.8988C28.8863 43.8988 29.1394 43.7658 29.292 43.4997V41.6652C29.1367 41.3991 28.8863 41.2661 28.5409 41.2661C28.2624 41.2661 28.0428 41.3803 27.8821 41.6088C27.7241 41.8372 27.6451 42.1786 27.6451 42.6328Z" fill="#BFCBD6"/>
</g>
<path id="Exclude" fill-rule="evenodd" clip-rule="evenodd" d="M17.9756 9.70117C17.7525 9.70117 17.5837 9.90296 17.6015 10.1206C17.6203 10.3519 17.6196 10.6332 17.5427 10.8403C17.2077 11.743 16.1088 12.1958 15.2222 11.784C15.0265 11.6931 14.8303 11.5035 14.6808 11.3332C14.5357 11.168 14.2713 11.1425 14.1139 11.2966L13.069 12.3192C12.9114 12.4734 12.9376 12.7325 13.1068 12.8745C13.2818 13.0214 13.4769 13.2145 13.5697 13.4074C13.9838 14.2682 13.5316 15.3315 12.6188 15.659C12.4076 15.7347 12.1203 15.7355 11.884 15.717C11.6614 15.6995 11.4548 15.8647 11.4548 16.0833V17.5268C11.4548 17.7451 11.661 17.9103 11.8834 17.8929C12.1197 17.8745 12.4072 17.8752 12.6188 17.9504C13.5412 18.2783 14.0039 19.3537 13.5832 20.2213C13.4903 20.4129 13.2965 20.6049 13.1225 20.7511C12.9537 20.8931 12.9277 21.1519 13.0851 21.306L14.13 22.3286C14.2876 22.4828 14.5524 22.4571 14.6975 22.2915C14.8476 22.1203 15.0449 21.9294 15.242 21.8385C16.1216 21.4333 17.2081 21.8758 17.5427 22.7691C17.6202 22.9758 17.6209 23.2569 17.602 23.4882C17.5841 23.706 17.753 23.9082 17.9763 23.9082H19.4506C19.6739 23.9082 19.8428 23.706 19.8249 23.4882C19.806 23.2569 19.8068 22.9758 19.8842 22.7691C20.2189 21.8758 21.3002 21.444 22.1849 21.8385C22.3976 21.9334 22.6092 22.1409 22.7673 22.3241C22.9117 22.4914 23.178 22.518 23.3362 22.3631L24.3772 21.3444C24.5352 21.1897 24.5083 20.9295 24.3376 20.7882C24.1515 20.6341 23.9408 20.4281 23.8438 20.2213C23.4341 19.3487 23.8857 18.2783 24.8081 17.9504C25.0197 17.8752 25.3072 17.8745 25.5435 17.8929C25.7659 17.9103 25.9721 17.7451 25.9721 17.5268V16.0833C25.9721 15.8647 25.7655 15.6995 25.5429 15.717C25.3066 15.7355 25.0194 15.7347 24.8081 15.659C23.8954 15.3315 23.4541 14.2732 23.8572 13.4074C23.9542 13.1993 24.1662 12.9922 24.3534 12.8375C24.5244 12.6962 24.5515 12.4356 24.3933 12.2807L23.3524 11.262C23.1943 11.1073 22.9283 11.1337 22.7839 11.3007C22.6265 11.4829 22.416 11.689 22.2047 11.784C21.313 12.185 20.2192 11.743 19.8842 10.8403C19.8074 10.6332 19.8066 10.3519 19.8255 10.1206C19.8432 9.90296 19.6744 9.70117 19.4513 9.70117H17.9756ZM18.7135 19.3253C20.136 19.3253 21.2891 18.1968 21.2891 16.8047C21.2891 15.4126 20.136 14.2841 18.7135 14.2841C17.291 14.2841 16.1378 15.4126 16.1378 16.8047C16.1378 18.1968 17.291 19.3253 18.7135 19.3253Z" fill="#BFCBD6"/>
</g>
<defs>
<linearGradient id="paint0_linear" x1="22" y1="-3.5" x2="22.5" y2="80.5" gradientUnits="userSpaceOnUse">
<stop stop-color="#EFF4F9"/>
<stop offset="1" stop-color="#DAE3EB"/>
</linearGradient>
</defs>
</svg>
