<svg width="48" height="24" viewBox="0 0 48 24" fill="none" xmlns="http://www.w3.org/2000/svg">
<g id="slack">
<rect width="46.4048" height="24" fill="black" fill-opacity="0"/>
<g id="computer">
<rect width="24" height="24" fill="black" fill-opacity="0"/>
<g id="iconmonstr-slack-1">
<rect width="24" height="24" fill="black" fill-opacity="0"/>
<path id="Vector" d="M14.358 0C18.771 0 21.177 2.645 22.994 8.7C23.652 10.895 24 12.759 24 14.359C24 18.772 21.355 21.177 15.3 22.994C13.104 23.653 11.241 24 9.641 24C5.228 24 2.822 21.356 1.006 15.3C0.347 13.105 0 11.242 0 9.642C0 5.229 2.644 2.823 8.7 1.006C10.894 0.347 12.758 0 14.358 0Z" fill="#BFCBD6"/>
<path id="Vector_2" fill-rule="evenodd" clip-rule="evenodd" d="M22.0778 8.975C20.4122 3.42458 18.2068 1 14.1615 1C12.6948 1 10.9862 1.31808 8.975 1.92217C3.42367 3.58775 1 5.79325 1 9.8385C1 11.3052 1.31808 13.0129 1.92217 15.025C3.58683 20.5763 5.79233 23 9.83758 23C11.3043 23 13.012 22.6819 15.025 22.0778C20.5754 20.4122 23 18.2077 23 14.1624C23 12.6958 22.681 10.9871 22.0778 8.975ZM18.2608 13.8819L16.8363 14.3577L17.3286 15.8344C17.522 16.4321 17.2067 17.0829 16.6081 17.2763C15.9343 17.467 15.3495 17.0875 15.1653 16.5558L14.673 15.0782L11.736 16.0627L12.2282 17.5403C12.4226 18.1389 12.1054 18.7898 11.5077 18.9823C10.8386 19.1729 10.251 18.798 10.0658 18.2608L9.57267 16.7841L8.14817 17.2589C7.48358 17.4514 6.89142 17.0728 6.70533 16.5375C6.51283 15.9398 6.82908 15.289 7.42675 15.0956L8.85125 14.6208L7.90158 11.7892L6.47708 12.264C5.80883 12.4538 5.22125 12.0807 5.03517 11.5426C4.84175 10.9449 5.158 10.2941 5.75567 10.1007L7.18108 9.62583L6.68792 8.14908C6.4945 7.5505 6.81167 6.89967 7.40933 6.70625C8.007 6.51283 8.65783 6.82908 8.85125 7.42767L9.34442 8.90442L12.2805 7.91992L11.7892 6.44225C11.5948 5.84458 11.912 5.19375 12.5097 5.00033C13.1082 4.80692 13.7591 5.12317 13.9525 5.72175L14.4447 7.19942L15.8693 6.72367C16.4669 6.53025 17.1178 6.84742 17.3112 7.44508C17.5055 8.04275 17.1883 8.69358 16.5907 8.887L15.1653 9.36183L16.1149 12.1934L17.5403 11.7186C18.138 11.5252 18.7888 11.8414 18.9823 12.44C19.1757 13.0377 18.8585 13.6885 18.2608 13.8819ZM12.9928 10.108L10.0576 11.0916L11.0063 13.9259L13.9415 12.9433L12.9928 10.108Z" fill="white"/>
</g>
</g>
<path id="Vector_3" d="M29.894 3.09583H34.6114M38.6654 3.09583H46.4049M29.894 7.78139H38.1495M42.3427 7.78139H46.4049M29.894 12.1786H31.3355M35.0537 12.1786H39.6973M43.391 12.1786H46.4049" stroke="#BFCBD6" stroke-width="2" stroke-linecap="round" stroke-linejoin="round"/>
</g>
</svg>
