<svg width="21" height="24" viewBox="0 0 21 24" version="1.1" xmlns="http://www.w3.org/2000/svg" xmlns:xlink="http://www.w3.org/1999/xlink">
<g id="Canvas" fill="none">
<path id="flow-merge" fill-rule="evenodd" clip-rule="evenodd" d="M 16.8421 9.86653C 15.6126 9.86653 14.5179 10.5396 13.9284 11.541L 13.9284 11.5082C 12.16 11.4754 10.1053 10.9172 8.65685 9.83369C 7.39369 8.88152 6.13053 7.19058 5.47369 5.82799C 6.01787 5.40415 6.4133 4.82579 6.60516 4.17307C 6.79702 3.52036 6.77581 2.82564 6.54446 2.1852C 6.31312 1.54477 5.8831 0.990353 5.31402 0.598813C 4.74494 0.207272 4.06499 -0.00199728 3.36842 1.4384e-05C 1.49895 1.4384e-05 0 1.47753 0 3.2998C 0.0035482 3.87279 0.160872 4.4349 0.456336 4.93027C 0.7518 5.42563 1.17512 5.837 1.68421 6.12349L 1.68421 16.8929C 0.690527 17.4675 0 18.5182 0 19.7166C 0 21.5389 1.49895 23 3.36842 23C 4.10838 23.0019 4.82825 22.7654 5.41608 22.3273C 6.00391 21.8892 6.42675 21.2741 6.61885 20.5775C 6.81094 19.881 6.76153 19.1421 6.47828 18.4757C 6.19504 17.8094 5.69384 17.2529 5.05264 16.8929L 5.05264 10.9665C 6.18106 12.1156 7.4779 13.0514 8.92632 13.7409C 10.3747 14.4304 12.3453 14.7752 13.9284 14.7916L 13.9284 14.7587C 14.5347 15.7602 15.6126 16.4333 16.8421 16.4333C 18.7116 16.4333 20.2105 14.9722 20.2105 13.1499C 20.2105 11.3276 18.7116 9.86653 16.8421 9.86653ZM 5.38948 19.7166C 5.38948 20.8001 4.46316 21.6866 3.36842 21.6866C 2.27369 21.6866 1.34737 20.7837 1.34737 19.7166C 1.34737 18.6495 2.27369 17.7466 3.36842 17.7466C 4.46316 17.7466 5.38948 18.6495 5.38948 19.7166ZM 3.36842 5.26982C 2.25684 5.26982 1.34737 4.36689 1.34737 3.2998C 1.34737 2.2327 2.27369 1.32978 3.36842 1.32978C 4.46316 1.32978 5.38948 2.2327 5.38948 3.2998C 5.38948 4.36689 4.46316 5.26982 3.36842 5.26982ZM 16.8421 15.1199C 15.7305 15.1199 14.8211 14.217 14.8211 13.1499C 14.8211 12.0828 15.7474 11.1799 16.8421 11.1799C 17.9369 11.1799 18.8632 12.0828 18.8632 13.1499C 18.8632 14.217 17.9369 15.1199 16.8421 15.1199Z" transform="translate(0 0.6875)" fill="#A5ACB5"/>
</g>
</svg>
