<svg width="24" height="18" viewBox="0 0 24 18" version="1.1" xmlns="http://www.w3.org/2000/svg" xmlns:xlink="http://www.w3.org/1999/xlink">
<g id="Canvas" fill="none">
<path id="flow-code" d="M 7.18907 14.1451L 6.56066 14.7735C 6.47687 14.8573 6.38051 14.8992 6.27159 14.8992C 6.16266 14.8992 6.0663 14.8573 5.98251 14.7735L 0.125683 8.91664C 0.0418944 8.83285 0 8.7365 0 8.62757C 0 8.51865 0.0418944 8.42229 0.125683 8.3385L 5.98251 2.48167C 6.0663 2.39788 6.16266 2.35599 6.27159 2.35599C 6.38051 2.35599 6.47687 2.39788 6.56066 2.48167L 7.18907 3.11008C 7.27286 3.19387 7.31475 3.29023 7.31475 3.39916C 7.31475 3.50808 7.27286 3.60444 7.18907 3.68823L 2.24973 8.62757L 7.18907 13.5669C 7.27286 13.6507 7.31475 13.7471 7.31475 13.856C 7.31475 13.9649 7.27286 14.0613 7.18907 14.1451ZM 14.6169 0.734674L 9.92896 16.9604C 9.89545 17.0693 9.82842 17.1489 9.72787 17.1992C 9.6357 17.2578 9.53935 17.2704 9.4388 17.2369L 8.65956 17.0232C 8.55064 16.9897 8.46685 16.9227 8.4082 16.8221C 8.35792 16.7299 8.34955 16.6294 8.38306 16.5205L 13.071 0.294783C 13.1046 0.185858 13.1674 0.106259 13.2596 0.0559861C 13.3601 -0.002666 13.4607 -0.0152343 13.5612 0.0182811L 14.3404 0.231942C 14.4494 0.265458 14.529 0.332488 14.5792 0.433035C 14.6379 0.525202 14.6505 0.625749 14.6169 0.734674ZM 22.8743 8.91664L 17.0175 14.7735C 16.9337 14.8573 16.8373 14.8992 16.7284 14.8992C 16.6195 14.8992 16.5231 14.8573 16.4393 14.7735L 15.8109 14.1451C 15.7271 14.0613 15.6852 13.9649 15.6852 13.856C 15.6852 13.7471 15.7271 13.6507 15.8109 13.5669L 20.7503 8.62757L 15.8109 3.68823C 15.7271 3.60444 15.6852 3.50808 15.6852 3.39916C 15.6852 3.29023 15.7271 3.19387 15.8109 3.11008L 16.4393 2.48167C 16.5231 2.39788 16.6195 2.35599 16.7284 2.35599C 16.8373 2.35599 16.9337 2.39788 17.0175 2.48167L 22.8743 8.3385C 22.9581 8.42229 23 8.51865 23 8.62757C 23 8.7365 22.9581 8.83285 22.8743 8.91664Z" transform="translate(0.726074 0.683136)" fill="#A5ACB5"/>
</g>
</svg>
