<svg width="19" height="23" viewBox="0 0 19 23" version="1.1" xmlns="http://www.w3.org/2000/svg" xmlns:xlink="http://www.w3.org/1999/xlink">
<g id="Canvas" fill="none">
<path id="flow-pull" fill-rule="evenodd" clip-rule="evenodd" d="M 16.8311 17.296L 16.8311 7.66666C 16.7852 6.47066 16.3108 5.41266 15.3926 4.508C 14.4744 3.60333 13.4338 3.11267 12.2401 3.06667L 10.7098 3.06667L 10.7098 0L 6.11873 4.6L 10.7098 9.2L 10.7098 6.13333L 12.2401 6.13333C 12.6533 6.164 12.9747 6.302 13.296 6.60866C 13.6174 6.91533 13.7551 7.25266 13.7705 7.66666L 13.7705 17.296C 13.1878 17.6322 12.7324 18.1519 12.4751 18.7743C 12.2177 19.3967 12.1728 20.0868 12.3473 20.7374C 12.5219 21.388 12.9061 21.9625 13.4402 22.3717C 13.9743 22.7809 14.6284 23.0018 15.3008 23C 15.9732 23.0018 16.6273 22.7809 17.1614 22.3717C 17.6955 21.9625 18.0797 21.388 18.2543 20.7374C 18.4288 20.0868 18.3839 19.3967 18.1265 18.7743C 17.8692 18.1519 17.4138 17.6322 16.8311 17.296L 16.8311 17.296ZM 15.3008 21.7733C 14.2908 21.7733 13.4644 20.93 13.4644 19.9333C 13.4644 18.9367 14.3061 18.0933 15.3008 18.0933C 16.2955 18.0933 17.1372 18.9367 17.1372 19.9333C 17.1372 20.93 16.2955 21.7733 15.3008 21.7733ZM 6.11873 4.6C 6.11873 2.898 4.75672 1.53333 3.05804 1.53333C 2.38568 1.53155 1.73157 1.75243 1.19745 2.16161C 0.663323 2.5708 0.279112 3.14535 0.104567 3.79593C -0.0699791 4.44651 -0.0250766 5.13664 0.232291 5.75901C 0.489659 6.38138 0.945067 6.90109 1.52769 7.23733L 1.52769 17.296C 0.945067 17.6322 0.489659 18.1519 0.232291 18.7743C -0.0250766 19.3967 -0.0699791 20.0868 0.104567 20.7374C 0.279112 21.388 0.663323 21.9625 1.19745 22.3717C 1.73157 22.7809 2.38568 23.0018 3.05804 23C 3.7304 23.0018 4.3845 22.7809 4.91863 22.3717C 5.45275 21.9625 5.83696 21.388 6.01151 20.7374C 6.18605 20.0868 6.14115 19.3967 5.88378 18.7743C 5.62642 18.1519 5.17101 17.6322 4.58838 17.296L 4.58838 7.23733C 5.49129 6.716 6.11873 5.73466 6.11873 4.6ZM 4.89445 19.9333C 4.89445 20.9453 4.05276 21.7733 3.05804 21.7733C 2.06331 21.7733 1.22162 20.93 1.22162 19.9333C 1.22162 18.9367 2.06331 18.0933 3.05804 18.0933C 4.05276 18.0933 4.89445 18.9367 4.89445 19.9333ZM 3.05804 6.44C 2.04801 6.44 1.22162 5.59666 1.22162 4.6C 1.22162 3.60333 2.06331 2.76 3.05804 2.76C 4.05276 2.76 4.89445 3.60333 4.89445 4.6C 4.89445 5.59666 4.05276 6.44 3.05804 6.44Z" fill="#A5ACB5"/>
</g>
</svg>
