<svg width="21" height="21" viewBox="0 0 21 21" version="1.1" xmlns="http://www.w3.org/2000/svg" xmlns:xlink="http://www.w3.org/1999/xlink">
<g id="Canvas" fill="none">
<path id="flow-fix" d="M 4.19256 16.9287C 4.34694 16.7743 4.42413 16.5915 4.42413 16.3803C 4.42413 16.169 4.34694 15.9862 4.19256 15.8318C 4.03819 15.6774 3.85537 15.6002 3.64412 15.6002C 3.43287 15.6002 3.25005 15.6774 3.09567 15.8318C 2.9413 15.9862 2.86411 16.169 2.86411 16.3803C 2.86411 16.5915 2.9413 16.7743 3.09567 16.9287C 3.25005 17.0831 3.43287 17.1603 3.64412 17.1603C 3.85537 17.1603 4.03819 17.0831 4.19256 16.9287ZM 12.273 11.2614L 3.961 19.5734C 3.66037 19.8741 3.29474 20.0244 2.86411 20.0244C 2.4416 20.0244 2.07191 19.8741 1.75503 19.5734L 0.463132 18.2572C 0.154377 17.9647 0 17.599 0 17.1603C 0 16.7296 0.154377 16.3599 0.463132 16.0512L 8.76295 7.75137C 9.07983 8.54763 9.54296 9.25452 10.1523 9.87203C 10.7699 10.4814 11.4767 10.9445 12.273 11.2614ZM 20 5.95978C 20 6.27666 19.9066 6.70729 19.7197 7.25167C 19.3378 8.34044 18.6675 9.22608 17.7087 9.90859C 16.7581 10.583 15.7099 10.9202 14.5643 10.9202C 13.0611 10.9202 11.7733 10.388 10.7008 9.32358C 9.6364 8.25107 9.10421 6.96323 9.10421 5.46008C 9.10421 3.95694 9.6364 2.67317 10.7008 1.60877C 11.7733 0.536258 13.0611 0 14.5643 0C 15.0355 0 15.5271 0.0690636 16.039 0.207191C 16.559 0.337192 16.9978 0.52407 17.3553 0.767824C 17.4853 0.857201 17.5503 0.970953 17.5503 1.10908C 17.5503 1.24721 17.4853 1.36096 17.3553 1.45034L 13.7843 3.51005L 13.7843 6.2401L 16.1365 7.54418C 16.1771 7.5198 16.4981 7.3248 17.0993 6.95917C 17.7006 6.58541 18.249 6.25635 18.7447 5.97197C 19.2484 5.67946 19.5369 5.53321 19.61 5.53321C 19.7319 5.53321 19.8253 5.57384 19.8903 5.65509C 19.9634 5.73634 20 5.8379 20 5.95978Z" transform="translate(0.731445 0.571442)" fill="#A5ACB5"/>
</g>
</svg>
