<svg width="14" height="23" viewBox="0 0 14 23" fill="none" xmlns="http://www.w3.org/2000/svg">
<path d="M6.91052 0.507792C6.91052 0.238961 6.64128 -2.27891e-07 6.29725 -2.27891e-07H0.613271C0.269241 -2.27891e-07 0 0.224026 0 0.507792V2.18052H6.89556V0.507792H6.91052Z" transform="translate(2.99158)" fill="#A5ACB5"/>
<path d="M11.1735 0.0149351L8.36143 2.27891e-07L3.29072 17.0558H2.07914V2.07597H5.13053C5.69893 2.07597 6.16262 1.61299 6.16262 1.04545C6.16262 0.477922 5.69893 0.0149351 5.13053 0.0149351H2.03426C0.912428 0 0 0.911039 0 2.03117V17.1156C0 18.2357 0.912428 19.1468 2.03426 19.1468H4.53222L9.60292 2.09091H11.0538V17.0708H7.68832C7.11993 17.0708 6.65623 17.5338 6.65623 18.1013C6.65623 18.6688 7.11993 19.1318 7.68832 19.1318H11.0987C12.2205 19.1318 13.133 18.2208 13.133 17.1007V2.01623C13.133 0.94091 12.2505 0.0448052 11.1735 0.0149351Z" transform="translate(0 3.85324)" fill="#A5ACB5"/>
</svg>
